IntelOneMono-Bold-mstr.ufo
<glyph name="exclam" format="2">
  <advance width="614"/>
  <unicode hex="0021"/>
  <outline>
    <contour>
      <point x="258" y="277" type="line"/>
      <point x="356" y="277" type="line"/>
      <point x="440" y="710" type="line"/>
      <point x="175" y="710" type="line"/>
    </contour>
    <contour>
      <point x="299" y="-15" type="curve" smooth="yes"/>
      <point x="386.0" y="-15.0"/>
      <point x="421.0" y="13"/>
      <point x="421" y="73" type="curve" smooth="yes"/>
      <point x="421.0" y="132"/>
      <point x="394.0" y="161.0"/>
      <point x="301" y="161" type="curve" smooth="yes"/>
      <point x="208.0" y="161.0"/>
      <point x="179.0" y="128"/>
      <point x="179" y="73" type="curve" smooth="yes"/>
      <point x="179.0" y="14"/>
      <point x="209.0" y="-15.0"/>
    </contour>
  </outline>
</glyph>
<glyph name="quotedbl" format="2">
  <advance width="614"/>
  <unicode hex="0022"/>
  <outline>
    <contour>
      <point x="393" y="359" type="line"/>
      <point x="521" y="359" type="line"/>
      <point x="538" y="710" type="line"/>
      <point x="376" y="710" type="line"/>
    </contour>
    <contour>
      <point x="116" y="359" type="line"/>
      <point x="244" y="359" type="line"/>
      <point x="261" y="710" type="line"/>
      <point x="99" y="710" type="line"/>
    </contour>
  </outline>
</glyph>
<glyph name="dollar" format="2">
  <advance width="614"/>
  <unicode hex="0024"/>
  <outline>
    <contour>
      <point x="357" y="-142" type="line"/>
      <point x="357" y="29" type="line"/>
      <point x="266" y="29" type="line"/>
      <point x="266" y="-142" type="line"/>
    </contour>
    <contour>
      <point x="298" y="119" type="curve" smooth="yes"/>
      <point x="243" y="119"/>
      <point x="174" y="134"/>
      <point x="80" y="162" type="curve"/>
      <point x="54" y="41" type="line"/>
      <point x="144" y="15"/>
      <point x="220" y="0"/>
      <point x="295" y="0" type="curve" smooth="yes"/>
      <point x="464" y="0"/>
      <point x="547" y="83"/>
      <point x="547" y="193" type="curve" smooth="yes"/>
      <point x="547" y="297"/>
      <point x="502" y="346"/>
      <point x="385" y="380" type="curve" smooth="yes"/>
      <point x="319" y="399" type="line" smooth="yes"/>
      <point x="233" y="424"/>
      <point x="219" y="445"/>
      <point x="219" y="482" type="curve" smooth="yes"/>
      <point x="219" y="515"/>
      <point x="244" y="536"/>
      <point x="315" y="536" type="curve" smooth="yes"/>
      <point x="362" y="536"/>
      <point x="424" y="526"/>
      <point x="505" y="509" type="curve"/>
      <point x="521" y="630" type="line"/>
      <point x="451" y="644"/>
      <point x="394" y="655"/>
      <point x="319" y="655" type="curve" smooth="yes"/>
      <point x="160" y="655"/>
      <point x="75" y="571"/>
      <point x="75" y="470" type="curve" smooth="yes"/>
      <point x="75" y="373"/>
      <point x="123" y="318"/>
      <point x="236" y="283" type="curve" smooth="yes"/>
      <point x="298" y="263" type="line" smooth="yes"/>
      <point x="388" y="234"/>
      <point x="402" y="220"/>
      <point x="402" y="183" type="curve" smooth="yes"/>
      <point x="402" y="143"/>
      <point x="376" y="119"/>
    </contour>
    <contour>
      <point x="357" y="630" type="line"/>
      <point x="357" y="796" type="line"/>
      <point x="266" y="796" type="line"/>
      <point x="266" y="630" type="line"/>
    </contour>
  </outline>
</glyph>
<glyph name="percent" format="2">
  <advance width="614"/>
  <unicode hex="0025"/>
  <outline>
    <contour>
      <point x="39" y="494" type="curve" smooth="yes"/>
      <point x="39" y="385"/>
      <point x="88" y="317"/>
      <point x="188" y="317" type="curve" smooth="yes"/>
      <point x="290" y="317"/>
      <point x="341" y="386"/>
      <point x="341" y="495" type="curve" smooth="yes"/>
      <point x="341" y="604"/>
      <point x="290" y="670"/>
      <point x="189" y="670" type="curve" smooth="yes"/>
      <point x="89" y="670"/>
      <point x="39" y="603"/>
    </contour>
    <contour>
      <point x="188" y="595" type="curve" smooth="yes"/>
      <point x="235" y="595"/>
      <point x="256" y="557"/>
      <point x="256" y="494" type="curve" smooth="yes"/>
      <point x="256" y="429"/>
      <point x="236" y="394"/>
      <point x="189" y="394" type="curve" smooth="yes"/>
      <point x="142" y="394"/>
      <point x="123" y="430"/>
      <point x="123" y="495" type="curve" smooth="yes"/>
      <point x="123" y="557"/>
      <point x="141" y="595"/>
    </contour>
    <contour>
      <point x="202" y="277" type="line"/>
      <point x="14" y="1" type="line"/>
      <point x="14" y="-5" type="line"/>
      <point x="144" y="-5" type="line"/>
      <point x="254" y="277" type="line"/>
    </contour>
    <contour>
      <point x="273" y="160" type="curve" smooth="yes"/>
      <point x="273" y="51"/>
      <point x="324" y="-15"/>
      <point x="425" y="-15" type="curve" smooth="yes"/>
      <point x="525" y="-15"/>
      <point x="575" y="52"/>
      <point x="575" y="161" type="curve" smooth="yes"/>
      <point x="575" y="270"/>
      <point x="526" y="338"/>
      <point x="426" y="338" type="curve" smooth="yes"/>
      <point x="324" y="338"/>
      <point x="273" y="269"/>
    </contour>
    <contour>
      <point x="426" y="60" type="curve" smooth="yes"/>
      <point x="379" y="60"/>
      <point x="358" y="98"/>
      <point x="358" y="161" type="curve" smooth="yes"/>
      <point x="358" y="226"/>
      <point x="378" y="261"/>
      <point x="425" y="261" type="curve" smooth="yes"/>
      <point x="472" y="261"/>
      <point x="491" y="225"/>
      <point x="491" y="160" type="curve" smooth="yes"/>
      <point x="491" y="98"/>
      <point x="473" y="60"/>
    </contour>
    <contour>
      <point x="412" y="378" type="line"/>
      <point x="600" y="654" type="line"/>
      <point x="600" y="660" type="line"/>
      <point x="470" y="660" type="line"/>
      <point x="360" y="378" type="line"/>
    </contour>
  </outline>
</glyph>
<glyph name="ampersand" format="2">
  <advance width="614"/>
  <unicode hex="0026"/>
  <outline>
    <contour>
      <point x="478" y="655" type="line"/>
      <point x="408" y="666"/>
      <point x="362" y="669"/>
      <point x="331" y="669" type="curve" smooth="yes"/>
      <point x="210" y="669"/>
      <point x="138" y="595"/>
      <point x="138" y="506" type="curve" smooth="yes"/>
      <point x="138" y="455"/>
      <point x="156" y="414"/>
      <point x="197" y="352" type="curve" smooth="yes"/>
      <point x="365" y="98" type="line"/>
      <point x="373" y="98" type="line"/>
      <point x="434" y="-1" type="line"/>
      <point x="583" y="-1" type="line"/>
      <point x="457" y="195" type="line"/>
      <point x="450" y="195" type="line"/>
      <point x="293" y="439" type="line" smooth="yes"/>
      <point x="273" y="470"/>
      <point x="268" y="487"/>
      <point x="268.0" y="505" type="curve" smooth="yes"/>
      <point x="268" y="539"/>
      <point x="295" y="559"/>
      <point x="343" y="559.0" type="curve" smooth="yes"/>
      <point x="372" y="559.0"/>
      <point x="406" y="556"/>
      <point x="465" y="548" type="curve"/>
    </contour>
    <contour>
      <point x="434" y="113" type="line"/>
      <point x="572" y="373" type="line"/>
      <point x="467" y="416" type="line"/>
      <point x="355" y="191" type="line"/>
      <point x="351" y="191" type="line"/>
      <point x="316" y="115"/>
      <point x="290" y="105.0"/>
      <point x="248" y="105" type="curve" smooth="yes"/>
      <point x="202.0" y="105.0"/>
      <point x="174" y="130.0"/>
      <point x="174" y="188" type="curve" smooth="yes"/>
      <point x="174" y="243.0"/>
      <point x="186.0" y="268.0"/>
      <point x="298" y="294" type="curve"/>
      <point x="273" y="386" type="line"/>
      <point x="88" y="342"/>
      <point x="44" y="289.0"/>
      <point x="44" y="171" type="curve" smooth="yes"/>
      <point x="44" y="52"/>
      <point x="115.0" y="-14"/>
      <point x="224" y="-14" type="curve" smooth="yes"/>
      <point x="318.0" y="-14.0"/>
      <point x="361" y="17.0"/>
      <point x="424" y="119" type="curve"/>
    </contour>
  </outline>
</glyph>
<glyph name="parenleft" format="2">
  <advance width="614"/>
  <unicode hex="0028"/>
  <outline>
    <contour>
      <point x="98" y="326" type="curve" smooth="yes"/>
      <point x="98" y="149"/>
      <point x="224" y="-15"/>
      <point x="476" y="-151" type="curve"/>
      <point x="555" y="-60" type="line"/>
      <point x="315" y="66"/>
      <point x="245" y="192"/>
      <point x="245" y="329" type="curve" smooth="yes"/>
      <point x="245" y="466"/>
      <point x="315" y="592"/>
      <point x="555" y="718" type="curve"/>
      <point x="476" y="809" type="line"/>
      <point x="223" y="673"/>
      <point x="98" y="505"/>
    </contour>
  </outline>
</glyph>
<glyph name="asterisk" format="2">
  <advance width="614"/>
  <unicode hex="002A"/>
  <outline>
    <contour>
      <point x="283" y="354" type="line"/>
      <point x="333" y="354" type="line"/>
      <point x="333" y="401" type="line"/>
      <point x="283" y="401" type="line"/>
    </contour>
    <contour>
      <point x="370" y="630" type="curve"/>
      <point x="246" y="630" type="line"/>
      <point x="246" y="562"/>
      <point x="287" y="495"/>
      <point x="287" y="400" type="curve"/>
      <point x="329" y="400" type="line"/>
      <point x="329" y="493"/>
      <point x="370" y="562"/>
    </contour>
    <contour>
      <point x="57" y="404" type="line"/>
      <point x="121" y="382"/>
      <point x="199" y="398"/>
      <point x="287" y="368" type="curve"/>
      <point x="301" y="407" type="line"/>
      <point x="211" y="439"/>
      <point x="162" y="499"/>
      <point x="98" y="521" type="curve"/>
    </contour>
    <contour>
      <point x="103" y="233" type="curve"/>
      <point x="196" y="153" type="line"/>
      <point x="241" y="204"/>
      <point x="254" y="283"/>
      <point x="315" y="353" type="curve"/>
      <point x="284" y="381" type="line"/>
      <point x="222" y="309"/>
      <point x="147" y="285"/>
    </contour>
    <contour>
      <point x="514" y="233" type="line"/>
      <point x="470" y="285"/>
      <point x="395" y="309"/>
      <point x="333" y="381" type="curve"/>
      <point x="301" y="353" type="line"/>
      <point x="362" y="283"/>
      <point x="376" y="204"/>
      <point x="421" y="153" type="curve"/>
    </contour>
    <contour>
      <point x="518" y="521" type="line"/>
      <point x="454" y="499"/>
      <point x="405" y="439"/>
      <point x="315" y="407" type="curve"/>
      <point x="330" y="368" type="line"/>
      <point x="417" y="398"/>
      <point x="496" y="382"/>
      <point x="560" y="404" type="curve"/>
    </contour>
  </outline>
</glyph>
<glyph name="plus" format="2">
  <advance width="614"/>
  <unicode hex="002B"/>
  <outline>
    <contour>
      <point x="241" y="581" type="line"/>
      <point x="241" y="79" type="line"/>
      <point x="372" y="79" type="line"/>
      <point x="372" y="581" type="line"/>
    </contour>
    <contour>
      <point x="62" y="272" type="line"/>
      <point x="552" y="272" type="line"/>
      <point x="552" y="388" type="line"/>
      <point x="62" y="388" type="line"/>
    </contour>
  </outline>
</glyph>
<glyph name="comma" format="2">
  <advance width="614"/>
  <unicode hex="002C"/>
  <outline>
    <contour>
      <point x="79" y="-171" type="line"/>
      <point x="210" y="-171" type="line"/>
      <point x="339" y="-77"/>
      <point x="406" y="10"/>
      <point x="437" y="160" type="curve"/>
      <point x="221" y="160" type="line"/>
      <point x="206" y="25"/>
      <point x="177" y="-36"/>
      <point x="79" y="-169" type="curve"/>
    </contour>
  </outline>
</glyph>
<glyph name="hyphen" format="2">
  <advance width="614"/>
  <unicode hex="002D"/>
  <outline>
    <contour>
      <point x="120" y="348" type="line"/>
      <point x="120" y="204" type="line"/>
      <point x="494" y="204" type="line"/>
      <point x="494" y="348" type="line"/>
    </contour>
  </outline>
</glyph>
<glyph name="zero" format="2">
  <advance width="614"/>
  <unicode hex="0030"/>
  <outline>
    <contour>
      <point x="550" y="328" type="curve" smooth="yes"/>
      <point x="550" y="564"/>
      <point x="466" y="670"/>
      <point x="309" y="670" type="curve" smooth="yes"/>
      <point x="150" y="670"/>
      <point x="64" y="561"/>
      <point x="64" y="326" type="curve" smooth="yes"/>
      <point x="64" y="90"/>
      <point x="148" y="-15"/>
      <point x="305" y="-15" type="curve" smooth="yes"/>
      <point x="464" y="-15"/>
      <point x="550" y="93"/>
    </contour>
    <contour>
      <point x="200" y="328" type="curve" smooth="yes"/>
      <point x="200" y="497"/>
      <point x="230" y="544"/>
      <point x="307" y="544" type="curve" smooth="yes"/>
      <point x="383" y="544"/>
      <point x="414" y="496"/>
      <point x="414" y="326" type="curve" smooth="yes"/>
      <point x="414" y="157"/>
      <point x="384" y="110"/>
      <point x="307" y="110" type="curve" smooth="yes"/>
      <point x="231" y="110"/>
      <point x="200" y="158"/>
    </contour>
    <contour>
      <point x="162" y="250" type="line"/>
      <point x="162" y="136" type="line"/>
      <point x="456" y="406" type="line"/>
      <point x="456" y="520" type="line"/>
    </contour>
  </outline>
</glyph>
<glyph name="two" format="2">
  <advance width="614"/>
  <unicode hex="0032"/>
  <outline>
    <contour>
      <point x="71" y="0" type="line"/>
      <point x="559" y="0" type="line"/>
      <point x="559" y="120" type="line"/>
      <point x="129" y="120" type="line"/>
      <point x="71" y="97" type="line"/>
    </contour>
    <contour>
      <point x="537" y="485" type="curve" smooth="yes"/>
      <point x="537" y="602"/>
      <point x="450" y="670"/>
      <point x="328" y="670" type="curve" smooth="yes"/>
      <point x="240" y="670"/>
      <point x="170" y="634"/>
      <point x="54" y="528" type="curve"/>
      <point x="131" y="431" type="line"/>
      <point x="234" y="525"/>
      <point x="272" y="545"/>
      <point x="318" y="545" type="curve" smooth="yes"/>
      <point x="367" y="545"/>
      <point x="391" y="520"/>
      <point x="391" y="479" type="curve" smooth="yes"/>
      <point x="391" y="438"/>
      <point x="377" y="402"/>
      <point x="260" y="291" type="curve" smooth="yes"/>
      <point x="71" y="112" type="line"/>
      <point x="71" y="87" type="line"/>
      <point x="253" y="85" type="line"/>
      <point x="253" y="150" type="line"/>
      <point x="227" y="100" type="line"/>
      <point x="391" y="250" type="line" smooth="yes"/>
      <point x="519" y="367"/>
      <point x="537" y="417"/>
    </contour>
  </outline>
</glyph>
<glyph name="three" format="2">
  <advance width="614"/>
  <unicode hex="0033"/>
  <outline>
    <contour>
      <point x="362" y="363" type="line"/>
      <point x="362" y="425" type="line"/>
      <point x="338" y="373" type="line"/>
      <point x="518" y="559" type="line"/>
      <point x="518" y="580" type="line"/>
      <point x="340" y="580" type="line"/>
      <point x="340" y="505" type="line"/>
      <point x="364" y="556" type="line"/>
      <point x="164" y="354" type="line"/>
      <point x="194" y="278" type="line"/>
      <point x="242" y="287"/>
      <point x="276" y="290"/>
      <point x="302" y="290" type="curve" smooth="yes"/>
      <point x="370" y="290"/>
      <point x="401" y="265"/>
      <point x="401" y="225" type="curve" smooth="yes"/>
      <point x="401" y="173"/>
      <point x="351" y="143"/>
      <point x="199" y="131" type="curve" smooth="yes"/>
      <point x="76" y="122" type="line"/>
      <point x="89" y="-10" type="line"/>
      <point x="214" y="-2" type="line" smooth="yes"/>
      <point x="455" y="14"/>
      <point x="548" y="98"/>
      <point x="548" y="223" type="curve" smooth="yes"/>
      <point x="548" y="306"/>
      <point x="486" y="396"/>
      <point x="336" y="396" type="curve" smooth="yes"/>
      <point x="302" y="396"/>
      <point x="268" y="391"/>
      <point x="240" y="384" type="curve"/>
    </contour>
    <contour>
      <point x="70" y="535" type="line"/>
      <point x="474" y="535" type="line"/>
      <point x="518" y="575" type="line"/>
      <point x="518" y="655" type="line"/>
      <point x="70" y="655" type="line"/>
    </contour>
  </outline>
</glyph>
<glyph name="four" format="2">
  <advance width="614"/>
  <unicode hex="0034"/>
  <outline>
    <contour>
      <point x="38" y="151" type="line"/>
      <point x="596" y="151" type="line"/>
      <point x="596" y="264" type="line"/>
      <point x="402" y="264" type="line"/>
      <point x="391" y="249" type="line"/>
      <point x="77" y="249" type="line"/>
      <point x="38" y="232" type="line"/>
    </contour>
    <contour>
      <point x="38" y="222" type="line"/>
      <point x="162" y="224" type="line"/>
      <point x="162" y="279" type="line"/>
      <point x="143" y="223" type="line"/>
      <point x="378" y="611" type="line"/>
      <point x="374" y="655" type="line"/>
      <point x="290" y="655" type="line"/>
      <point x="38" y="247" type="line"/>
    </contour>
    <contour>
      <point x="473" y="655" type="line"/>
      <point x="351" y="655" type="line"/>
      <point x="351" y="227" type="line"/>
      <point x="339" y="224" type="line"/>
      <point x="339" y="0" type="line"/>
      <point x="473" y="0" type="line"/>
    </contour>
  </outline>
</glyph>
<glyph name="five" format="2">
  <advance width="614"/>
  <unicode hex="0035"/>
  <outline>
    <contour>
      <point x="118" y="655" type="line"/>
      <point x="118" y="546" type="line"/>
      <point x="135" y="535" type="line"/>
      <point x="502" y="535" type="line"/>
      <point x="502" y="655" type="line"/>
    </contour>
    <contour>
      <point x="109" y="655" type="line"/>
      <point x="88" y="302" type="line"/>
      <point x="91" y="297" type="line"/>
      <point x="194" y="277" type="line"/>
      <point x="216" y="366" type="line"/>
      <point x="237" y="655" type="line"/>
    </contour>
    <contour>
      <point x="542" y="235" type="curve" smooth="yes"/>
      <point x="542" y="354"/>
      <point x="459" y="423"/>
      <point x="355" y="423" type="curve" smooth="yes"/>
      <point x="290" y="423"/>
      <point x="235" y="405"/>
      <point x="190" y="365" type="curve"/>
      <point x="194" y="277" type="line"/>
      <point x="233" y="299"/>
      <point x="275" y="314"/>
      <point x="315" y="314" type="curve" smooth="yes"/>
      <point x="365" y="314"/>
      <point x="397" y="289"/>
      <point x="397" y="242" type="curve" smooth="yes"/>
      <point x="397" y="176"/>
      <point x="352" y="142"/>
      <point x="185" y="127" type="curve" smooth="yes"/>
      <point x="66" y="116" type="line"/>
      <point x="80" y="-10" type="line"/>
      <point x="196" y="0" type="line" smooth="yes"/>
      <point x="451" y="22"/>
      <point x="542" y="103"/>
    </contour>
  </outline>
</glyph>
<glyph name="six" format="2">
  <advance width="614"/>
  <unicode hex="0036"/>
  <outline>
    <contour>
      <point x="206.0" y="227.0" type="curve" smooth="yes"/>
      <point x="206.0" y="316.0"/>
      <point x="254.0" y="425.0"/>
      <point x="362.0" y="525.0" type="curve" smooth="yes"/>
      <point x="500.0" y="653.0" type="line"/>
      <point x="499.0" y="655.0" type="line"/>
      <point x="314.0" y="655.0" type="line"/>
      <point x="237.0" y="577.0" type="line" smooth="yes"/>
      <point x="112.0" y="451.0"/>
      <point x="61.0" y="347.0"/>
      <point x="61.0" y="223.0" type="curve" smooth="yes"/>
      <point x="61.0" y="90.0"/>
      <point x="144.0" y="-15.0"/>
      <point x="300.0" y="-15.0" type="curve" smooth="yes"/>
      <point x="450.0" y="-15.0"/>
      <point x="554.0" y="78.0"/>
      <point x="554.0" y="216.0" type="curve" smooth="yes"/>
      <point x="554.0" y="359.0"/>
      <point x="477.0" y="436.0"/>
      <point x="341.0" y="436.0" type="curve" smooth="yes"/>
      <point x="307.0" y="436.0"/>
      <point x="263.0" y="429.0"/>
      <point x="221.0" y="409.0" type="curve"/>
      <point x="169.0" y="314.0" type="line"/>
      <point x="220.0" y="333.0"/>
      <point x="255.0" y="339.0"/>
      <point x="298.0" y="339.0" type="curve" smooth="yes"/>
      <point x="368.0" y="339.0"/>
      <point x="407.0" y="300.0"/>
      <point x="407.0" y="218.0" type="curve" smooth="yes"/>
      <point x="407.0" y="142.0"/>
      <point x="366.0" y="102.0"/>
      <point x="302.0" y="102.0" type="curve" smooth="yes"/>
      <point x="245.0" y="102.0"/>
      <point x="206.0" y="149.0"/>
    </contour>
  </outline>
</glyph>
<glyph name="eight" format="2">
  <advance width="614"/>
  <unicode hex="0038"/>
  <outline>
    <contour>
      <point x="412" y="334" type="line"/>
      <point x="412" y="339" type="line"/>
      <point x="488" y="364"/>
      <point x="536" y="416"/>
      <point x="536" y="489" type="curve" smooth="yes"/>
      <point x="536" y="602"/>
      <point x="441" y="670"/>
      <point x="309" y="670" type="curve" smooth="yes"/>
      <point x="177" y="670"/>
      <point x="78" y="601"/>
      <point x="78" y="487" type="curve" smooth="yes"/>
      <point x="78" y="415"/>
      <point x="125" y="363"/>
      <point x="201" y="339" type="curve"/>
    </contour>
    <contour>
      <point x="307" y="380" type="curve" smooth="yes"/>
      <point x="255" y="380"/>
      <point x="214" y="410"/>
      <point x="214" y="468" type="curve" smooth="yes"/>
      <point x="214" y="527"/>
      <point x="255" y="560"/>
      <point x="308" y="560" type="curve" smooth="yes"/>
      <point x="363" y="560"/>
      <point x="400" y="529"/>
      <point x="400" y="470" type="curve" smooth="yes"/>
      <point x="400" y="412"/>
      <point x="360" y="380"/>
    </contour>
    <contour>
      <point x="306" y="-15" type="curve" smooth="yes"/>
      <point x="448" y="-15"/>
      <point x="553" y="57"/>
      <point x="553" y="174" type="curve" smooth="yes"/>
      <point x="553" y="251"/>
      <point x="497" y="308"/>
      <point x="412" y="334" type="curve"/>
      <point x="201" y="339" type="line"/>
      <point x="201" y="334" type="line"/>
      <point x="115" y="307"/>
      <point x="61" y="248"/>
      <point x="61" y="172" type="curve" smooth="yes"/>
      <point x="61" y="55"/>
      <point x="167" y="-15"/>
    </contour>
    <contour>
      <point x="307" y="94" type="curve" smooth="yes"/>
      <point x="243" y="94"/>
      <point x="198" y="130"/>
      <point x="198" y="191" type="curve" smooth="yes"/>
      <point x="198" y="251"/>
      <point x="242" y="288"/>
      <point x="307" y="288" type="curve" smooth="yes"/>
      <point x="372" y="288"/>
      <point x="416" y="253"/>
      <point x="416" y="193" type="curve" smooth="yes"/>
      <point x="416" y="131"/>
      <point x="370" y="94"/>
    </contour>
  </outline>
</glyph>
<glyph name="nine" format="2">
  <advance width="614"/>
  <unicode hex="0039"/>
  <outline>
    <contour>
      <point x="408.0" y="428.0" type="curve" smooth="yes"/>
      <point x="408" y="339"/>
      <point x="360" y="230"/>
      <point x="252" y="130" type="curve" smooth="yes"/>
      <point x="114" y="2" type="line"/>
      <point x="115" y="0" type="line"/>
      <point x="300" y="0" type="line"/>
      <point x="377" y="78" type="line" smooth="yes"/>
      <point x="502" y="204"/>
      <point x="553.0" y="308.0"/>
      <point x="553.0" y="432.0" type="curve" smooth="yes"/>
      <point x="553.0" y="565.0"/>
      <point x="470.0" y="670.0"/>
      <point x="314" y="670" type="curve" smooth="yes"/>
      <point x="164" y="670"/>
      <point x="60" y="577"/>
      <point x="60" y="439" type="curve" smooth="yes"/>
      <point x="60" y="296"/>
      <point x="137" y="219"/>
      <point x="273" y="219" type="curve" smooth="yes"/>
      <point x="307" y="219"/>
      <point x="351" y="226"/>
      <point x="393" y="246" type="curve"/>
      <point x="445" y="341" type="line"/>
      <point x="394" y="322"/>
      <point x="359" y="316"/>
      <point x="316" y="316" type="curve" smooth="yes"/>
      <point x="246" y="316"/>
      <point x="207" y="355"/>
      <point x="207" y="437" type="curve" smooth="yes"/>
      <point x="207" y="513"/>
      <point x="248" y="553"/>
      <point x="312" y="553" type="curve" smooth="yes"/>
      <point x="369" y="553"/>
      <point x="408" y="506"/>
    </contour>
  </outline>
</glyph>
<glyph name="colon" format="2">
  <advance width="614"/>
  <unicode hex="003A"/>
  <outline>
    <contour>
      <point x="306" y="-15" type="curve" smooth="yes"/>
      <point x="385" y="-15"/>
      <point x="430" y="19"/>
      <point x="430" y="85" type="curve" smooth="yes"/>
      <point x="430" y="153"/>
      <point x="391" y="185"/>
      <point x="307" y="185" type="curve" smooth="yes"/>
      <point x="226" y="185"/>
      <point x="184" y="146"/>
      <point x="184" y="85" type="curve" smooth="yes"/>
      <point x="184" y="18"/>
      <point x="227" y="-15"/>
    </contour>
    <contour>
      <point x="306" y="292" type="curve" smooth="yes"/>
      <point x="385" y="292"/>
      <point x="430" y="325"/>
      <point x="430" y="392" type="curve" smooth="yes"/>
      <point x="430" y="460"/>
      <point x="391" y="491"/>
      <point x="307" y="491" type="curve" smooth="yes"/>
      <point x="226" y="491"/>
      <point x="184" y="453"/>
      <point x="184" y="391" type="curve" smooth="yes"/>
      <point x="184" y="324"/>
      <point x="227" y="292"/>
    </contour>
  </outline>
</glyph>
<glyph name="semicolon" format="2">
  <advance width="614"/>
  <unicode hex="003B"/>
  <outline>
    <contour>
      <point x="322" y="292" type="curve" smooth="yes"/>
      <point x="401" y="292"/>
      <point x="446" y="325"/>
      <point x="446" y="392" type="curve" smooth="yes"/>
      <point x="446" y="460"/>
      <point x="408" y="491"/>
      <point x="324" y="491" type="curve" smooth="yes"/>
      <point x="242" y="491"/>
      <point x="201" y="453"/>
      <point x="201" y="391" type="curve" smooth="yes"/>
      <point x="201" y="324"/>
      <point x="243" y="292"/>
    </contour>
    <contour>
      <point x="73" y="-171" type="line"/>
      <point x="203" y="-171" type="line"/>
      <point x="333" y="-77"/>
      <point x="399" y="10"/>
      <point x="431" y="160" type="curve"/>
      <point x="215" y="160" type="line"/>
      <point x="200" y="25"/>
      <point x="171" y="-36"/>
      <point x="73" y="-169" type="curve"/>
    </contour>
  </outline>
</glyph>
<glyph name="less" format="2">
  <advance width="614"/>
  <unicode hex="003C"/>
  <outline>
    <contour>
      <point x="58" y="266" type="line"/>
      <point x="544" y="454" type="line"/>
      <point x="544" y="589" type="line"/>
      <point x="58" y="387" type="line"/>
    </contour>
    <contour>
      <point x="58" y="377" type="line"/>
      <point x="58" y="256" type="line"/>
      <point x="544" y="52" type="line"/>
      <point x="544" y="187" type="line"/>
    </contour>
  </outline>
</glyph>
<glyph name="greater" format="2">
  <advance width="614"/>
  <unicode hex="003E"/>
  <outline>
    <contour>
      <point x="556" y="266" type="line"/>
      <point x="556" y="387" type="line"/>
      <point x="70" y="589" type="line"/>
      <point x="70" y="454" type="line"/>
    </contour>
    <contour>
      <point x="556" y="256" type="line"/>
      <point x="556" y="377" type="line"/>
      <point x="70" y="187" type="line"/>
      <point x="70" y="52" type="line"/>
    </contour>
  </outline>
</glyph>
<glyph name="question" format="2">
  <advance width="614"/>
  <unicode hex="003F"/>
  <outline>
    <contour>
      <point x="313" y="277" type="line"/>
      <point x="326" y="336"/>
      <point x="329" y="344"/>
      <point x="365" y="361" type="curve" smooth="yes"/>
      <point x="429" y="391" type="line" smooth="yes"/>
      <point x="511" y="430"/>
      <point x="554.0" y="465"/>
      <point x="554" y="546" type="curve" smooth="yes"/>
      <point x="554.0" y="651"/>
      <point x="497.0" y="725.0"/>
      <point x="329" y="725" type="curve" smooth="yes"/>
      <point x="250" y="725"/>
      <point x="187" y="719"/>
      <point x="61" y="692" type="curve"/>
      <point x="83" y="567" type="line"/>
      <point x="195" y="596"/>
      <point x="265" y="605"/>
      <point x="315" y="605" type="curve" smooth="yes"/>
      <point x="380.0" y="605.0"/>
      <point x="406.0" y="582"/>
      <point x="406" y="546" type="curve" smooth="yes"/>
      <point x="406.0" y="519"/>
      <point x="394" y="509"/>
      <point x="327" y="478" type="curve" smooth="yes"/>
      <point x="260" y="447" type="line" smooth="yes"/>
      <point x="209" y="423"/>
      <point x="195" y="405"/>
      <point x="195" y="378" type="curve" smooth="yes"/>
      <point x="195" y="357"/>
      <point x="199" y="336"/>
      <point x="215" y="277" type="curve"/>
    </contour>
    <contour>
      <point x="257" y="-15" type="curve" smooth="yes"/>
      <point x="344.0" y="-15.0"/>
      <point x="379.0" y="13"/>
      <point x="379" y="73" type="curve" smooth="yes"/>
      <point x="379.0" y="132"/>
      <point x="352.0" y="161.0"/>
      <point x="259" y="161" type="curve" smooth="yes"/>
      <point x="166.0" y="161.0"/>
      <point x="137.0" y="128"/>
      <point x="137" y="73" type="curve" smooth="yes"/>
      <point x="137.0" y="14"/>
      <point x="167.0" y="-15.0"/>
    </contour>
  </outline>
</glyph>
<glyph name="at" format="2">
  <advance width="614"/>
  <unicode hex="0040"/>
  <outline>
    <contour>
      <point x="299" y="322" type="curve" smooth="yes"/>
      <point x="299" y="401"/>
      <point x="328" y="429"/>
      <point x="399.0" y="429.0" type="curve" smooth="yes"/>
      <point x="520.0" y="429.0" type="line"/>
      <point x="520.0" y="515.0" type="line"/>
      <point x="401.0" y="515.0" type="line" smooth="yes"/>
      <point x="270.0" y="515.0"/>
      <point x="204.0" y="461.0"/>
      <point x="204" y="323" type="curve" smooth="yes"/>
      <point x="204" y="188.0"/>
      <point x="258.0" y="129.0"/>
      <point x="374.0" y="129.0" type="curve" smooth="yes"/>
      <point x="494" y="129"/>
      <point x="560" y="179"/>
      <point x="560" y="358" type="curve" smooth="yes"/>
      <point x="560.0" y="661.0"/>
      <point x="484.0" y="725.0"/>
      <point x="334" y="725" type="curve" smooth="yes"/>
      <point x="165.0" y="725.0"/>
      <point x="60.0" y="627.0"/>
      <point x="60" y="315" type="curve" smooth="yes"/>
      <point x="60.0" y="24.0"/>
      <point x="152" y="-79.0"/>
      <point x="341" y="-79" type="curve" smooth="yes"/>
      <point x="390" y="-79"/>
      <point x="432" y="-73"/>
      <point x="492" y="-60" type="curve"/>
      <point x="481" y="-8" type="line"/>
      <point x="424" y="-21"/>
      <point x="381" y="-24"/>
      <point x="346" y="-24" type="curve" smooth="yes"/>
      <point x="195.0" y="-24"/>
      <point x="120" y="59.0"/>
      <point x="120" y="320" type="curve" smooth="yes"/>
      <point x="120" y="595"/>
      <point x="199" y="670"/>
      <point x="328" y="670" type="curve" smooth="yes"/>
      <point x="454.0" y="670.0"/>
      <point x="500" y="632.0"/>
      <point x="500" y="356" type="curve" smooth="yes"/>
      <point x="500.0" y="242.0"/>
      <point x="467.0" y="215.0"/>
      <point x="378.0" y="215.0" type="curve" smooth="yes"/>
      <point x="327.0" y="215.0"/>
      <point x="299.0" y="243.0"/>
    </contour>
  </outline>
</glyph>
<glyph name="A" format="2">
  <advance width="614"/>
  <unicode hex="0041"/>
  <anchor x="298" y="691" name="aboveUC"/>
  <anchor x="298" y="651" name="aboveUCx"/>
  <anchor x="487" y="-10" name="belowogonek"/>
  <anchor x="298" y="-35" name="below"/>
  <anchor x="298" y="0" name="belowx"/>
  <outline>
    <contour>
      <point x="176" y="126" type="line"/>
      <point x="421" y="126" type="line"/>
      <point x="391" y="239" type="line"/>
      <point x="204" y="239" type="line"/>
    </contour>
    <contour>
      <point x="171" y="0" type="line"/>
      <point x="225" y="189" type="line"/>
      <point x="223" y="189" type="line"/>
      <point x="317" y="553" type="line"/>
      <point x="327" y="655" type="line"/>
      <point x="216" y="655" type="line"/>
      <point x="28" y="0" type="line"/>
    </contour>
    <contour>
      <point x="586" y="0" type="line"/>
      <point x="396" y="655" type="line"/>
      <point x="293" y="655" type="line"/>
      <point x="290" y="551" type="line"/>
      <point x="384" y="185" type="line"/>
      <point x="382" y="184" type="line"/>
      <point x="435" y="0" type="line"/>
    </contour>
  </outline>
</glyph>
<glyph name="C" format="2">
  <advance width="614"/>
  <unicode hex="0043"/>
  <anchor x="364" y="696" name="aboveUC"/>
  <anchor x="364" y="661" name="aboveUCx"/>
  <anchor x="354" y="-40" name="below"/>
  <anchor x="343" y="-15" name="belowcedilla"/>
  <outline>
    <contour>
      <point x="335" y="-15.0" type="curve" smooth="yes"/>
      <point x="407" y="-15"/>
      <point x="492" y="9"/>
      <point x="581" y="69" type="curve"/>
      <point x="517" y="169" type="line"/>
      <point x="445" y="122"/>
      <point x="394" y="105"/>
      <point x="355" y="105" type="curve" smooth="yes"/>
      <point x="272" y="105"/>
      <point x="197" y="165"/>
      <point x="197" y="328" type="curve" smooth="yes"/>
      <point x="197" y="477.0"/>
      <point x="275.0" y="550.0"/>
      <point x="362" y="550.0" type="curve" smooth="yes"/>
      <point x="402" y="550"/>
      <point x="438" y="540"/>
      <point x="510" y="489" type="curve"/>
      <point x="573" y="590" type="line"/>
      <point x="492" y="648"/>
      <point x="431" y="670"/>
      <point x="359" y="670.0" type="curve" smooth="yes"/>
      <point x="174.0" y="670.0"/>
      <point x="50" y="524.0"/>
      <point x="50" y="326" type="curve" smooth="yes"/>
      <point x="50" y="102"/>
      <point x="161" y="-15"/>
    </contour>
  </outline>
</glyph>
<glyph name="D" format="2">
  <advance width="614"/>
  <unicode hex="0044"/>
  <anchor x="282" y="691" name="aboveUC"/>
  <anchor x="283" y="-35" name="below"/>
  <outline>
    <contour>
      <point x="75" y="655" type="line"/>
      <point x="75" y="0" type="line"/>
      <point x="141" y="0" type="line"/>
      <point x="219" y="32" type="line"/>
      <point x="219" y="603" type="line"/>
      <point x="162" y="655" type="line"/>
    </contour>
    <contour>
      <point x="199" y="655" type="curve" smooth="yes"/>
      <point x="128" y="655" type="line"/>
      <point x="141" y="541" type="line"/>
      <point x="247" y="533" type="line" smooth="yes"/>
      <point x="353" y="526"/>
      <point x="421" y="470"/>
      <point x="421" y="331" type="curve" smooth="yes"/>
      <point x="421" y="189"/>
      <point x="360" y="132"/>
      <point x="230" y="122" type="curve" smooth="yes"/>
      <point x="141" y="114" type="line"/>
      <point x="128" y="0" type="line"/>
      <point x="179" y="0" type="line" smooth="yes"/>
      <point x="457" y="0"/>
      <point x="568" y="139"/>
      <point x="568" y="333" type="curve" smooth="yes"/>
      <point x="568" y="533"/>
      <point x="449" y="655"/>
    </contour>
  </outline>
</glyph>
<glyph name="E" format="2">
  <advance width="614"/>
  <unicode hex="0045"/>
  <anchor x="314" y="691" name="aboveUC"/>
  <anchor x="467" y="-10" name="belowogonek"/>
  <anchor x="314" y="-35" name="below"/>
  <outline>
    <contour>
      <point x="87" y="655" type="line"/>
      <point x="87" y="0" type="line"/>
      <point x="232" y="0" type="line"/>
      <point x="232" y="655" type="line"/>
    </contour>
    <contour>
      <point x="98" y="535" type="line"/>
      <point x="541" y="535" type="line"/>
      <point x="541" y="655" type="line"/>
      <point x="98" y="655" type="line"/>
    </contour>
    <contour>
      <point x="98" y="0" type="line"/>
      <point x="542" y="0" type="line"/>
      <point x="542" y="120" type="line"/>
      <point x="98" y="120" type="line"/>
    </contour>
    <contour>
      <point x="98" y="270" type="line"/>
      <point x="509" y="270" type="line"/>
      <point x="509" y="390" type="line"/>
      <point x="98" y="390" type="line"/>
    </contour>
  </outline>
</glyph>
<glyph name="F" format="2">
  <advance width="614"/>
  <unicode hex="0046"/>
  <outline>
    <contour>
      <point x="95" y="655" type="line"/>
      <point x="95" y="0" type="line"/>
      <point x="240" y="0" type="line"/>
      <point x="240" y="655" type="line"/>
    </contour>
    <contour>
      <point x="107" y="535" type="line"/>
      <point x="540" y="535" type="line"/>
      <point x="540" y="655" type="line"/>
      <point x="107" y="655" type="line"/>
    </contour>
    <contour>
      <point x="107" y="236" type="line"/>
      <point x="512" y="236" type="line"/>
      <point x="512" y="356" type="line"/>
      <point x="107" y="356" type="line"/>
    </contour>
  </outline>
</glyph>
<glyph name="G" format="2">
  <advance width="614"/>
  <unicode hex="0047"/>
  <anchor x="331" y="691" name="aboveUC"/>
  <anchor x="331" y="656" name="aboveUCx"/>
  <anchor x="338" y="-40" name="below"/>
  <outline>
    <contour>
      <point x="497" y="536" type="curve"/>
      <point x="509" y="655" type="line"/>
      <point x="464" y="662"/>
      <point x="439" y="665.0"/>
      <point x="401.0" y="665.0" type="curve" smooth="yes"/>
      <point x="170.0" y="665.0"/>
      <point x="49" y="533.0"/>
      <point x="49" y="323" type="curve" smooth="yes"/>
      <point x="49" y="91"/>
      <point x="161" y="-15"/>
      <point x="360" y="-15" type="curve" smooth="yes"/>
      <point x="426" y="-15"/>
      <point x="494" y="-4"/>
      <point x="559" y="13" type="curve"/>
      <point x="559" y="374" type="line"/>
      <point x="309" y="374" type="line"/>
      <point x="309" y="263" type="line"/>
      <point x="493" y="263" type="line"/>
      <point x="423" y="329" type="line"/>
      <point x="423" y="53" type="line"/>
      <point x="468" y="122" type="line"/>
      <point x="429" y="110"/>
      <point x="404" y="105"/>
      <point x="377" y="105" type="curve" smooth="yes"/>
      <point x="249" y="105"/>
      <point x="197" y="166"/>
      <point x="197" y="328" type="curve" smooth="yes"/>
      <point x="197" y="476.0"/>
      <point x="271.0" y="543.0"/>
      <point x="413.0" y="543.0" type="curve" smooth="yes"/>
      <point x="440" y="543.0"/>
      <point x="462" y="541"/>
    </contour>
  </outline>
</glyph>
<glyph name="H" format="2">
  <advance width="614"/>
  <unicode hex="0048"/>
  <anchor x="307" y="691" name="aboveUC"/>
  <anchor x="307" y="-35" name="below"/>
  <anchor x="145" y="-10" name="belowcedilla"/>
  <anchor x="307" y="0" name="belowx"/>
  <anchor x="307" y="656" name="aboveUCx"/>
  <outline>
    <contour>
      <point x="75" y="655" type="line"/>
      <point x="75" y="0" type="line"/>
      <point x="219" y="0" type="line"/>
      <point x="219" y="655" type="line"/>
    </contour>
    <contour>
      <point x="395" y="655" type="line"/>
      <point x="395" y="0" type="line"/>
      <point x="539" y="0" type="line"/>
      <point x="539" y="655" type="line"/>
    </contour>
    <contour>
      <point x="131" y="270" type="line"/>
      <point x="482" y="270" type="line"/>
      <point x="482" y="390" type="line"/>
      <point x="131" y="390" type="line"/>
    </contour>
  </outline>
</glyph>
<glyph name="I" format="2">
  <advance width="614"/>
  <unicode hex="0049"/>
  <anchor x="307" y="-35" name="below"/>
  <anchor x="307" y="-10" name="belowogonek"/>
  <anchor x="307" y="691" name="aboveUC"/>
  <anchor x="307" y="661" name="aboveUCx"/>
  <outline>
    <contour>
      <point x="236" y="655" type="line"/>
      <point x="236" y="0" type="line"/>
      <point x="380" y="0" type="line"/>
      <point x="380" y="655" type="line"/>
    </contour>
    <contour>
      <point x="113" y="575" type="line"/>
      <point x="309" y="535" type="line"/>
      <point x="501" y="575" type="line"/>
      <point x="501" y="655" type="line"/>
      <point x="113" y="655" type="line"/>
    </contour>
    <contour>
      <point x="113" y="80" type="line"/>
      <point x="113" y="0" type="line"/>
      <point x="501" y="0" type="line"/>
      <point x="501" y="80" type="line"/>
      <point x="309" y="120" type="line"/>
    </contour>
  </outline>
</glyph>
<glyph name="J" format="2">
  <advance width="614"/>
  <unicode hex="004A"/>
  <anchor x="470" y="691" name="aboveUC"/>
  <anchor x="470" y="651" name="aboveUCx"/>
  <outline>
    <contour>
      <point x="329" y="-15" type="curve" smooth="yes"/>
      <point x="467" y="-15"/>
      <point x="543.0" y="70.0"/>
      <point x="543" y="195" type="curve" smooth="yes"/>
      <point x="543" y="655" type="line"/>
      <point x="398" y="655" type="line"/>
      <point x="398" y="208" type="line" smooth="yes"/>
      <point x="398.0" y="147.0"/>
      <point x="371" y="118"/>
      <point x="319" y="118" type="curve" smooth="yes"/>
      <point x="276" y="118"/>
      <point x="225" y="146"/>
      <point x="118" y="234" type="curve"/>
      <point x="30" y="128" type="line"/>
      <point x="162" y="13"/>
      <point x="237" y="-15"/>
    </contour>
  </outline>
</glyph>
<glyph name="L" format="2">
  <advance width="614"/>
  <unicode hex="004C"/>
  <anchor x="164" y="691" name="aboveUC"/>
  <anchor x="358" y="655" name="topright"/>
  <anchor x="320" y="-35" name="below"/>
  <outline>
    <contour>
      <point x="87" y="655" type="line"/>
      <point x="87" y="0" type="line"/>
      <point x="232" y="0" type="line"/>
      <point x="232" y="655" type="line"/>
    </contour>
    <contour>
      <point x="131" y="0" type="line"/>
      <point x="553" y="0" type="line"/>
      <point x="553" y="119" type="line"/>
      <point x="131" y="119" type="line"/>
    </contour>
  </outline>
</glyph>
<glyph name="M" format="2">
  <advance width="614"/>
  <unicode hex="004D"/>
  <anchor x="312" y="691" name="aboveUC"/>
  <anchor x="311" y="661" name="aboveUCx"/>
  <anchor x="311" y="-35" name="below"/>
  <anchor x="311" y="0" name="belowx"/>
  <outline>
    <contour>
      <point x="532" y="655" type="line"/>
      <point x="409" y="655" type="line"/>
      <point x="429" y="0" type="line"/>
      <point x="562" y="0" type="line"/>
    </contour>
    <contour>
      <point x="203" y="655" type="line"/>
      <point x="82" y="655" type="line"/>
      <point x="52" y="0" type="line"/>
      <point x="183" y="0" type="line"/>
    </contour>
    <contour>
      <point x="480" y="655" type="line"/>
      <point x="397" y="655" type="line"/>
      <point x="303" y="374" type="line"/>
      <point x="314" y="374" type="line"/>
      <point x="221" y="655" type="line"/>
      <point x="129" y="655" type="line"/>
      <point x="296" y="165" type="line"/>
      <point x="316" y="165" type="line"/>
    </contour>
  </outline>
</glyph>
<glyph name="N" format="2">
  <advance width="614"/>
  <unicode hex="004E"/>
  <anchor x="311" y="691" name="aboveUC"/>
  <anchor x="311" y="656" name="aboveUCx"/>
  <anchor x="310" y="-35" name="below"/>
  <anchor x="310" y="0" name="belowx"/>
  <outline>
    <contour>
      <point x="119" y="571" type="line"/>
      <point x="402" y="0" type="line"/>
      <point x="497" y="0" type="line"/>
      <point x="497" y="82" type="line"/>
      <point x="213" y="655" type="line"/>
      <point x="119" y="655" type="line"/>
    </contour>
    <contour>
      <point x="540" y="0" type="line"/>
      <point x="540" y="655" type="line"/>
      <point x="408" y="655" type="line"/>
      <point x="417" y="0" type="line"/>
    </contour>
    <contour>
      <point x="206" y="0" type="line"/>
      <point x="197" y="655" type="line"/>
      <point x="74" y="655" type="line"/>
      <point x="74" y="0" type="line"/>
    </contour>
  </outline>
</glyph>
<glyph name="P" format="2">
  <advance width="614"/>
  <unicode hex="0050"/>
  <anchor x="323" y="691" name="aboveUC"/>
  <outline>
    <contour>
      <point x="181" y="655" type="line"/>
      <point x="181" y="535" type="line"/>
      <point x="319" y="535" type="line" smooth="yes"/>
      <point x="393" y="535"/>
      <point x="429" y="499"/>
      <point x="429" y="434" type="curve" smooth="yes"/>
      <point x="429" y="369"/>
      <point x="391" y="330"/>
      <point x="314" y="330" type="curve" smooth="yes"/>
      <point x="181" y="330" type="line"/>
      <point x="181" y="213" type="line"/>
      <point x="304" y="213" type="line" smooth="yes"/>
      <point x="475.0" y="213.0"/>
      <point x="576.0" y="287.0"/>
      <point x="576" y="436" type="curve" smooth="yes"/>
      <point x="576.0" y="570.0"/>
      <point x="484.0" y="655.0"/>
      <point x="309" y="655" type="curve" smooth="yes"/>
    </contour>
    <contour>
      <point x="78" y="655" type="line"/>
      <point x="78" y="0" type="line"/>
      <point x="223" y="0" type="line"/>
      <point x="223" y="655" type="line"/>
    </contour>
  </outline>
</glyph>
<glyph name="R" format="2">
  <advance width="614"/>
  <unicode hex="0052"/>
  <anchor x="304" y="691" name="aboveUC"/>
  <anchor x="311" y="-35" name="below"/>
  <anchor x="311" y="0" name="belowx"/>
  <outline>
    <contour>
      <point x="117" y="655" type="line"/>
      <point x="117" y="541" type="line"/>
      <point x="305" y="541" type="line" smooth="yes"/>
      <point x="378" y="541"/>
      <point x="409" y="512"/>
      <point x="409" y="451" type="curve" smooth="yes"/>
      <point x="409" y="399"/>
      <point x="385" y="361"/>
      <point x="246" y="342" type="curve" smooth="yes"/>
      <point x="117" y="324" type="line"/>
      <point x="117" y="243" type="line"/>
      <point x="360" y="243" type="line"/>
      <point x="360" y="273" type="line"/>
      <point x="501" y="298"/>
      <point x="554" y="366"/>
      <point x="554" y="464" type="curve" smooth="yes"/>
      <point x="554" y="584"/>
      <point x="484" y="655"/>
      <point x="328" y="655" type="curve" smooth="yes"/>
    </contour>
    <contour>
      <point x="78" y="655" type="line"/>
      <point x="78" y="0" type="line"/>
      <point x="222" y="0" type="line"/>
      <point x="222" y="655" type="line"/>
    </contour>
    <contour>
      <point x="601" y="4" type="line"/>
      <point x="465" y="177" type="line" smooth="yes"/>
      <point x="430" y="222"/>
      <point x="400" y="245"/>
      <point x="360" y="266" type="curve"/>
      <point x="117" y="266" type="line"/>
      <point x="117" y="243" type="line"/>
      <point x="248" y="243"/>
      <point x="268" y="236"/>
      <point x="320" y="155" type="curve" smooth="yes"/>
      <point x="421" y="0" type="line"/>
      <point x="601" y="0" type="line"/>
    </contour>
  </outline>
</glyph>
<glyph name="S" format="2">
  <advance width="614"/>
  <unicode hex="0053"/>
  <anchor x="321" y="696" name="aboveUC"/>
  <anchor x="321" y="661" name="aboveUCx"/>
  <anchor x="294" y="-40" name="below"/>
  <anchor x="299" y="-15" name="belowcedilla"/>
  <outline>
    <contour>
      <point x="302" y="106" type="curve" smooth="yes"/>
      <point x="247" y="106"/>
      <point x="178" y="122"/>
      <point x="84" y="151" type="curve"/>
      <point x="58" y="30" type="line"/>
      <point x="148" y="1"/>
      <point x="224" y="-14"/>
      <point x="299" y="-14" type="curve" smooth="yes"/>
      <point x="468" y="-14"/>
      <point x="551" y="73"/>
      <point x="551" y="187" type="curve" smooth="yes"/>
      <point x="551" y="294"/>
      <point x="506" y="344"/>
      <point x="389" y="379" type="curve" smooth="yes"/>
      <point x="323" y="399" type="line" smooth="yes"/>
      <point x="237" y="425"/>
      <point x="223" y="448"/>
      <point x="223" y="487" type="curve" smooth="yes"/>
      <point x="223.0" y="523.0"/>
      <point x="248.0" y="548.0"/>
      <point x="319" y="548" type="curve" smooth="yes"/>
      <point x="366" y="548"/>
      <point x="428" y="537"/>
      <point x="509" y="519" type="curve"/>
      <point x="525" y="641" type="line"/>
      <point x="455" y="656"/>
      <point x="397" y="667"/>
      <point x="323" y="667" type="curve" smooth="yes"/>
      <point x="164.0" y="667.0"/>
      <point x="79.0" y="579.0"/>
      <point x="79" y="476" type="curve" smooth="yes"/>
      <point x="79" y="375"/>
      <point x="126" y="318"/>
      <point x="240" y="282" type="curve" smooth="yes"/>
      <point x="302" y="262" type="line" smooth="yes"/>
      <point x="393" y="233"/>
      <point x="406" y="216"/>
      <point x="406" y="176" type="curve" smooth="yes"/>
      <point x="406" y="132"/>
      <point x="380" y="106"/>
    </contour>
  </outline>
</glyph>
<glyph name="T" format="2">
  <advance width="614"/>
  <unicode hex="0054"/>
  <anchor x="307" y="691" name="aboveUC"/>
  <anchor x="307" y="-35" name="below"/>
  <anchor x="304" y="-9" name="belowcedilla"/>
  <outline>
    <contour>
      <point x="235" y="568" type="line"/>
      <point x="235" y="0" type="line"/>
      <point x="379" y="0" type="line"/>
      <point x="379" y="568" type="line"/>
    </contour>
    <contour>
      <point x="39" y="535" type="line"/>
      <point x="575" y="535" type="line"/>
      <point x="575" y="655" type="line"/>
      <point x="39" y="655" type="line"/>
    </contour>
  </outline>
</glyph>
<glyph name="U" format="2">
  <advance width="614"/>
  <unicode hex="0055"/>
  <anchor x="307" y="691" name="aboveUC"/>
  <anchor x="307" y="656" name="aboveUCx"/>
  <anchor x="307" y="-40" name="below"/>
  <anchor x="310" y="-15" name="belowogonek"/>
  <outline>
    <contour>
      <point x="403" y="226" type="line" smooth="yes"/>
      <point x="403" y="148"/>
      <point x="369" y="118"/>
      <point x="307" y="118" type="curve" smooth="yes"/>
      <point x="244" y="118"/>
      <point x="212" y="151"/>
      <point x="212" y="226" type="curve" smooth="yes"/>
      <point x="212" y="655" type="line"/>
      <point x="67" y="655" type="line"/>
      <point x="67" y="228" type="line" smooth="yes"/>
      <point x="67" y="62"/>
      <point x="142" y="-15"/>
      <point x="303" y="-15" type="curve" smooth="yes"/>
      <point x="467" y="-15"/>
      <point x="547" y="59"/>
      <point x="547" y="228" type="curve" smooth="yes"/>
      <point x="547" y="655" type="line"/>
      <point x="403" y="655" type="line"/>
    </contour>
  </outline>
</glyph>
<glyph name="V" format="2">
  <advance width="614"/>
  <unicode hex="0056"/>
  <anchor x="310" y="-35" name="below"/>
  <outline>
    <contour>
      <point x="444" y="655" type="line"/>
      <point x="293" y="103" type="line"/>
      <point x="282" y="0" type="line"/>
      <point x="397" y="0" type="line"/>
      <point x="586" y="655" type="line"/>
    </contour>
    <contour>
      <point x="28" y="655" type="line"/>
      <point x="219" y="0" type="line"/>
      <point x="326" y="0" type="line"/>
      <point x="328" y="104" type="line"/>
      <point x="179" y="655" type="line"/>
    </contour>
  </outline>
</glyph>
<glyph name="W" format="2">
  <advance width="614"/>
  <unicode hex="0057"/>
  <anchor x="307" y="691" name="aboveUC"/>
  <anchor x="307" y="651" name="aboveUCx"/>
  <outline>
    <contour>
      <point x="498" y="0" type="line"/>
      <point x="578" y="655" type="line"/>
      <point x="443" y="655" type="line"/>
      <point x="391" y="104" type="line"/>
      <point x="416" y="0" type="line"/>
    </contour>
    <contour>
      <point x="197" y="0" type="line"/>
      <point x="224" y="100" type="line"/>
      <point x="171" y="655" type="line"/>
      <point x="36" y="655" type="line"/>
      <point x="115" y="0" type="line"/>
    </contour>
    <contour>
      <point x="456" y="0" type="line"/>
      <point x="442" y="104" type="line"/>
      <point x="320" y="531" type="line"/>
      <point x="296" y="531" type="line"/>
      <point x="174" y="100" type="line"/>
      <point x="158" y="0" type="line"/>
      <point x="233" y="0" type="line"/>
      <point x="325" y="387" type="line"/>
      <point x="284" y="387" type="line"/>
      <point x="376" y="0" type="line"/>
    </contour>
  </outline>
</glyph>
<glyph name="X" format="2">
  <advance width="614"/>
  <unicode hex="0058"/>
  <anchor x="308" y="691" name="aboveUC"/>
  <anchor x="308" y="661" name="aboveUCx"/>
  <anchor x="308" y="-35" name="below"/>
  <anchor x="308" y="-5" name="belowx"/>
  <outline>
    <contour>
      <point x="22" y="0" type="line"/>
      <point x="177" y="0" type="line"/>
      <point x="353" y="314" type="line"/>
      <point x="372" y="314" type="line"/>
      <point x="576" y="655" type="line"/>
      <point x="420" y="655" type="line"/>
      <point x="260" y="359" type="line"/>
      <point x="241" y="359" type="line"/>
    </contour>
    <contour>
      <point x="592" y="0" type="line"/>
      <point x="374" y="359" type="line"/>
      <point x="355" y="359" type="line"/>
      <point x="197" y="655" type="line"/>
      <point x="35" y="655" type="line"/>
      <point x="238" y="314" type="line"/>
      <point x="257" y="314" type="line"/>
      <point x="429" y="0" type="line"/>
    </contour>
  </outline>
</glyph>
<glyph name="Y" format="2">
  <advance width="614"/>
  <unicode hex="0059"/>
  <anchor x="310" y="691" name="aboveUC"/>
  <anchor x="310" y="656" name="aboveUCx"/>
  <anchor x="310" y="-35" name="below"/>
  <outline>
    <contour>
      <point x="366" y="311" type="line"/>
      <point x="177" y="655" type="line"/>
      <point x="15" y="655" type="line"/>
      <point x="257" y="238" type="line"/>
    </contour>
    <contour>
      <point x="235" y="316" type="line"/>
      <point x="235" y="0" type="line"/>
      <point x="379" y="0" type="line"/>
      <point x="379" y="316" type="line"/>
    </contour>
    <contour>
      <point x="252" y="311" type="line"/>
      <point x="357" y="239" type="line"/>
      <point x="599" y="655" type="line"/>
      <point x="442" y="655" type="line"/>
    </contour>
  </outline>
</glyph>
<glyph name="Z" format="2">
  <advance width="614"/>
  <unicode hex="005A"/>
  <anchor x="317" y="691" name="aboveUC"/>
  <anchor x="317" y="-35" name="below"/>
  <anchor x="317" y="-10" name="belowcedilla"/>
  <outline>
    <contour>
      <point x="53" y="0" type="line"/>
      <point x="562" y="0" type="line"/>
      <point x="562" y="126" type="line"/>
      <point x="132" y="126" type="line"/>
      <point x="53" y="85" type="line"/>
    </contour>
    <contour>
      <point x="53" y="78" type="line"/>
      <point x="239" y="78" type="line"/>
      <point x="239" y="156" type="line"/>
      <point x="218" y="102" type="line"/>
      <point x="552" y="552" type="line"/>
      <point x="552" y="576" type="line"/>
      <point x="359" y="576" type="line"/>
      <point x="359" y="498" type="line"/>
      <point x="380" y="552" type="line"/>
      <point x="53" y="103" type="line"/>
    </contour>
    <contour>
      <point x="63" y="528" type="line"/>
      <point x="467" y="528" type="line"/>
      <point x="552" y="565" type="line"/>
      <point x="552" y="655" type="line"/>
      <point x="63" y="655" type="line"/>
    </contour>
  </outline>
</glyph>
<glyph name="bracketright" format="2">
  <advance width="614"/>
  <unicode hex="005D"/>
  <outline>
    <contour>
      <point x="315" y="-148" type="line"/>
      <point x="460" y="-148" type="line"/>
      <point x="460" y="797" type="line"/>
      <point x="315" y="797" type="line"/>
    </contour>
    <contour>
      <point x="340" y="-28" type="line"/>
      <point x="69" y="-28" type="line"/>
      <point x="69" y="-148" type="line"/>
      <point x="340" y="-148" type="line"/>
    </contour>
    <contour>
      <point x="340" y="797" type="line"/>
      <point x="69" y="797" type="line"/>
      <point x="69" y="678" type="line"/>
      <point x="340" y="678" type="line"/>
    </contour>
  </outline>
</glyph>
<glyph name="asciicircum" format="2">
  <advance width="614"/>
  <unicode hex="005E"/>
  <outline>
    <contour>
      <point x="263" y="655" type="line"/>
      <point x="278" y="632" type="line"/>
      <point x="438" y="271" type="line"/>
      <point x="582" y="271" type="line"/>
      <point x="398" y="655" type="line"/>
    </contour>
    <contour>
      <point x="351" y="655" type="line"/>
      <point x="216" y="655" type="line"/>
      <point x="32" y="271" type="line"/>
      <point x="173" y="271" type="line"/>
      <point x="333" y="632" type="line"/>
    </contour>
  </outline>
</glyph>
<glyph name="a" format="2">
  <advance width="614"/>
  <unicode hex="0061"/>
  <anchor x="292" y="-35" name="below"/>
  <anchor x="462" y="-10" name="belowogonek"/>
  <anchor x="296" y="507" name="aboveLC"/>
  <anchor x="296" y="472" name="aboveLCx"/>
  <outline>
    <contour>
      <point x="235" y="94" type="curve" smooth="yes"/>
      <point x="201" y="94"/>
      <point x="184" y="113"/>
      <point x="184" y="141" type="curve" smooth="yes"/>
      <point x="184" y="174"/>
      <point x="198" y="192"/>
      <point x="255" y="200" type="curve" smooth="yes"/>
      <point x="396" y="219" type="line"/>
      <point x="396" y="302" type="line"/>
      <point x="217" y="285" type="line" smooth="yes"/>
      <point x="83" y="271"/>
      <point x="44" y="224"/>
      <point x="44" y="131" type="curve" smooth="yes"/>
      <point x="44" y="38"/>
      <point x="104" y="-11"/>
      <point x="191" y="-11" type="curve" smooth="yes"/>
      <point x="265" y="-11"/>
      <point x="329" y="12"/>
      <point x="378" y="51" type="curve"/>
      <point x="390" y="51" type="line"/>
      <point x="390" y="159" type="line"/>
      <point x="317" y="106"/>
      <point x="270" y="94"/>
    </contour>
    <contour>
      <point x="519" y="149" type="curve" smooth="yes"/>
      <point x="519" y="327" type="line" smooth="yes"/>
      <point x="519" y="439"/>
      <point x="460" y="490"/>
      <point x="292" y="490" type="curve" smooth="yes"/>
      <point x="255" y="490"/>
      <point x="189" y="487"/>
      <point x="94" y="475" type="curve"/>
      <point x="107" y="361" type="line"/>
      <point x="192" y="372"/>
      <point x="253" y="377"/>
      <point x="285" y="377" type="curve" smooth="yes"/>
      <point x="367" y="377"/>
      <point x="382" y="361"/>
      <point x="382" y="324" type="curve" smooth="yes"/>
      <point x="382" y="90" type="line"/>
      <point x="390" y="51" type="line"/>
      <point x="406" y="19"/>
      <point x="439" y="3"/>
      <point x="501" y="-1" type="curve" smooth="yes"/>
      <point x="582" y="-6" type="line"/>
      <point x="594" y="101" type="line"/>
      <point x="549" y="105" type="line" smooth="yes"/>
      <point x="524" y="107"/>
      <point x="519" y="116"/>
    </contour>
  </outline>
</glyph>
<glyph name="b" format="2">
  <advance width="614"/>
  <unicode hex="0062"/>
  <anchor x="319" y="-35" name="below"/>
  <outline>
    <contour>
      <point x="220" y="710" type="line"/>
      <point x="75" y="710" type="line"/>
      <point x="75" y="0" type="line"/>
      <point x="91" y="0" type="line"/>
      <point x="220" y="42" type="line"/>
    </contour>
    <contour>
      <point x="185" y="151" type="curve"/>
      <point x="122" y="44" type="line"/>
      <point x="175" y="9"/>
      <point x="236" y="-8"/>
      <point x="298" y="-8" type="curve" smooth="yes"/>
      <point x="475" y="-8"/>
      <point x="570" y="106"/>
      <point x="570" y="252" type="curve" smooth="yes"/>
      <point x="570" y="406"/>
      <point x="479" y="490"/>
      <point x="365" y="490" type="curve" smooth="yes"/>
      <point x="301" y="490"/>
      <point x="247" y="466"/>
      <point x="198" y="409" type="curve"/>
      <point x="203" y="326" type="line"/>
      <point x="243" y="359"/>
      <point x="274" y="371"/>
      <point x="307" y="371" type="curve" smooth="yes"/>
      <point x="376" y="371"/>
      <point x="420" y="323"/>
      <point x="420" y="241" type="curve" smooth="yes"/>
      <point x="420" y="171"/>
      <point x="374" y="112"/>
      <point x="287" y="112" type="curve" smooth="yes"/>
      <point x="256" y="112"/>
      <point x="227" y="121"/>
    </contour>
  </outline>
</glyph>
<glyph name="c" format="2">
  <advance width="614"/>
  <unicode hex="0063"/>
  <anchor x="300" y="-15" name="belowcedilla"/>
  <anchor x="313" y="472" name="aboveLCx"/>
  <anchor x="310" y="-35" name="below"/>
  <anchor x="313" y="507" name="aboveLC"/>
  <outline>
    <contour>
      <point x="337" y="368" type="curve" smooth="yes"/>
      <point x="377" y="368"/>
      <point x="414" y="363"/>
      <point x="490" y="312" type="curve"/>
      <point x="557" y="415" type="line"/>
      <point x="459" y="479"/>
      <point x="397" y="490"/>
      <point x="330" y="490" type="curve" smooth="yes"/>
      <point x="172" y="490"/>
      <point x="55" y="376"/>
      <point x="55" y="238" type="curve" smooth="yes"/>
      <point x="55" y="85"/>
      <point x="158" y="-14"/>
      <point x="315" y="-14" type="curve" smooth="yes"/>
      <point x="397" y="-14"/>
      <point x="464" y="3"/>
      <point x="562" y="63" type="curve"/>
      <point x="497" y="161" type="line"/>
      <point x="417" y="117"/>
      <point x="376" y="108"/>
      <point x="329" y="108" type="curve" smooth="yes"/>
      <point x="261" y="108"/>
      <point x="207" y="155"/>
      <point x="207" y="239" type="curve" smooth="yes"/>
      <point x="207" y="315"/>
      <point x="260" y="368"/>
    </contour>
  </outline>
</glyph>
<glyph name="d" format="2">
  <advance width="614"/>
  <unicode hex="0064"/>
  <anchor x="335" y="-35" name="below"/>
  <anchor x="662" y="789" name="topright"/>
  <outline>
    <contour>
      <point x="413" y="0" type="line"/>
      <point x="539" y="0" type="line"/>
      <point x="539" y="710" type="line"/>
      <point x="394" y="710" type="line"/>
      <point x="394" y="91" type="line"/>
      <point x="399" y="91" type="line"/>
    </contour>
    <contour>
      <point x="249" y="-11" type="curve" smooth="yes"/>
      <point x="313" y="-11"/>
      <point x="367" y="12"/>
      <point x="416" y="70" type="curve"/>
      <point x="411" y="152" type="line"/>
      <point x="371" y="120"/>
      <point x="340" y="108"/>
      <point x="307" y="108" type="curve" smooth="yes"/>
      <point x="238" y="108"/>
      <point x="194" y="155"/>
      <point x="194" y="238" type="curve" smooth="yes"/>
      <point x="194" y="315"/>
      <point x="242" y="366"/>
      <point x="320" y="366" type="curve" smooth="yes"/>
      <point x="354" y="366"/>
      <point x="384" y="358"/>
      <point x="430" y="321" type="curve"/>
      <point x="471" y="393" type="line"/>
      <point x="413" y="464"/>
      <point x="364" y="482"/>
      <point x="290" y="482" type="curve" smooth="yes"/>
      <point x="146" y="482"/>
      <point x="44" y="377"/>
      <point x="44" y="227" type="curve" smooth="yes"/>
      <point x="44" y="73"/>
      <point x="135" y="-11"/>
    </contour>
  </outline>
</glyph>
<glyph name="e" format="2">
  <advance width="614"/>
  <unicode hex="0065"/>
  <anchor x="319" y="-40" name="below"/>
  <anchor x="410" y="-10" name="belowogonek"/>
  <anchor x="319" y="470" name="aboveLCx"/>
  <anchor x="319" y="507" name="aboveLC"/>
  <outline>
    <contour>
      <point x="383" y="100" type="line" smooth="yes"/>
      <point x="233" y="106"/>
      <point x="195" y="136.0"/>
      <point x="195" y="245" type="curve" smooth="yes"/>
      <point x="195" y="335"/>
      <point x="242" y="384"/>
      <point x="316" y="384" type="curve" smooth="yes"/>
      <point x="380" y="384"/>
      <point x="419" y="342"/>
      <point x="419" y="278" type="curve"/>
      <point x="494" y="289" type="line"/>
      <point x="153" y="289" type="line"/>
      <point x="153" y="192" type="line"/>
      <point x="551" y="192" type="line"/>
      <point x="554" y="207"/>
      <point x="557" y="229"/>
      <point x="557" y="254" type="curve" smooth="yes"/>
      <point x="557" y="394"/>
      <point x="462" y="492"/>
      <point x="315" y="492" type="curve" smooth="yes"/>
      <point x="155" y="492"/>
      <point x="57" y="375"/>
      <point x="57" y="235" type="curve" smooth="yes"/>
      <point x="57" y="78.0"/>
      <point x="133" y="-8"/>
      <point x="335" y="-11" type="curve" smooth="yes"/>
      <point x="456" y="-13" type="line"/>
      <point x="461" y="97" type="line"/>
    </contour>
  </outline>
</glyph>
<glyph name="f" format="2">
  <advance width="614"/>
  <unicode hex="0066"/>
  <outline>
    <contour>
      <point x="68" y="338" type="line"/>
      <point x="524" y="338" type="line"/>
      <point x="524" y="460" type="line"/>
      <point x="68" y="460" type="line"/>
    </contour>
    <contour>
      <point x="216" y="496" type="curve" smooth="yes"/>
      <point x="216" y="409" type="line"/>
      <point x="216" y="409" type="line"/>
      <point x="216" y="0" type="line"/>
      <point x="360" y="0" type="line"/>
      <point x="360" y="409" type="line"/>
      <point x="355" y="409" type="line"/>
      <point x="355" y="510" type="line" smooth="yes"/>
      <point x="355" y="565"/>
      <point x="372" y="584"/>
      <point x="434" y="589" type="curve" smooth="yes"/>
      <point x="567" y="598" type="line"/>
      <point x="557" y="720" type="line"/>
      <point x="421" y="711" type="line" smooth="yes"/>
      <point x="262" y="700"/>
      <point x="216" y="658"/>
    </contour>
  </outline>
</glyph>
<glyph name="g" format="2">
  <advance width="614"/>
  <unicode hex="0067"/>
  <anchor x="314" y="507" name="aboveLC"/>
  <anchor x="314" y="472" name="aboveLCx"/>
  <outline>
    <contour>
      <point x="396" y="10" type="line" smooth="yes"/>
      <point x="396" y="-66"/>
      <point x="366" y="-103"/>
      <point x="283" y="-108" type="curve" smooth="yes"/>
      <point x="129" y="-117" type="line"/>
      <point x="134" y="-239" type="line"/>
      <point x="298" y="-231" type="line" smooth="yes"/>
      <point x="490" y="-221"/>
      <point x="540" y="-150"/>
      <point x="540" y="13" type="curve" smooth="yes"/>
      <point x="540" y="483" type="line"/>
      <point x="529" y="483" type="line"/>
      <point x="396" y="451" type="line"/>
    </contour>
    <contour>
      <point x="44" y="241" type="curve" smooth="yes"/>
      <point x="44" y="94"/>
      <point x="138" y="13"/>
      <point x="244" y="13" type="curve" smooth="yes"/>
      <point x="314" y="13"/>
      <point x="368" y="34"/>
      <point x="418" y="94" type="curve"/>
      <point x="413" y="176" type="line"/>
      <point x="373" y="144"/>
      <point x="341" y="132"/>
      <point x="307" y="132" type="curve" smooth="yes"/>
      <point x="239" y="132"/>
      <point x="194" y="175"/>
      <point x="194" y="252" type="curve" smooth="yes"/>
      <point x="194" y="315"/>
      <point x="241" y="370"/>
      <point x="328" y="370" type="curve" smooth="yes"/>
      <point x="359" y="370"/>
      <point x="389" y="361"/>
      <point x="431" y="331" type="curve"/>
      <point x="494" y="438" type="line"/>
      <point x="440" y="473"/>
      <point x="379" y="490"/>
      <point x="317" y="490" type="curve" smooth="yes"/>
      <point x="140" y="490"/>
      <point x="44" y="380"/>
    </contour>
  </outline>
</glyph>
<glyph name="h" format="2">
  <advance width="614"/>
  <unicode hex="0068"/>
  <anchor x="318" y="-35" name="below"/>
  <anchor x="318" y="0" name="belowx"/>
  <anchor x="148" y="-10" name="belowcedilla"/>
  <anchor x="149" y="740" name="aboveLC"/>
  <anchor x="149" y="679" name="aboveLCx"/>
  <outline>
    <contour>
      <point x="223" y="710" type="line"/>
      <point x="78" y="710" type="line"/>
      <point x="78" y="0" type="line"/>
      <point x="223" y="0" type="line"/>
    </contour>
    <contour>
      <point x="207" y="266" type="line"/>
      <point x="273" y="323"/>
      <point x="317" y="351"/>
      <point x="349" y="351" type="curve" smooth="yes"/>
      <point x="383" y="351"/>
      <point x="396" y="334"/>
      <point x="396" y="300" type="curve" smooth="yes"/>
      <point x="396" y="0" type="line"/>
      <point x="541" y="0" type="line"/>
      <point x="541" y="327" type="line" smooth="yes"/>
      <point x="541" y="434"/>
      <point x="499" y="488"/>
      <point x="404" y="488" type="curve" smooth="yes"/>
      <point x="339" y="488"/>
      <point x="280" y="457"/>
      <point x="187" y="374" type="curve"/>
    </contour>
  </outline>
</glyph>
<glyph name="i" format="2">
  <advance width="614"/>
  <unicode hex="0069"/>
  <anchor x="322" y="-35" name="below"/>
  <anchor x="322" y="-10" name="belowogonek"/>
  <outline>
    <contour>
      <point x="249" y="477" type="line"/>
      <point x="249" y="0" type="line"/>
      <point x="394" y="0" type="line"/>
      <point x="394" y="477" type="line"/>
    </contour>
    <contour>
      <point x="113" y="477" type="line"/>
      <point x="113" y="355" type="line"/>
      <point x="326" y="355" type="line"/>
      <point x="326" y="477" type="line"/>
    </contour>
    <contour>
      <point x="93" y="122" type="line"/>
      <point x="93" y="0" type="line"/>
      <point x="552" y="0" type="line"/>
      <point x="552" y="122" type="line"/>
    </contour>
    <contour>
      <point x="319" y="578" type="curve" smooth="yes"/>
      <point x="383" y="578"/>
      <point x="424" y="609"/>
      <point x="424" y="664" type="curve" smooth="yes"/>
      <point x="424" y="721"/>
      <point x="387" y="751"/>
      <point x="320" y="751" type="curve" smooth="yes"/>
      <point x="255" y="751"/>
      <point x="216" y="715"/>
      <point x="216" y="664" type="curve" smooth="yes"/>
      <point x="216" y="608"/>
      <point x="254" y="578"/>
    </contour>
  </outline>
</glyph>
<glyph name="k" format="2">
  <advance width="614"/>
  <unicode hex="006B"/>
  <anchor x="314" y="-35" name="below"/>
  <anchor x="314" y="0" name="belowx"/>
  <outline>
    <contour>
      <point x="226" y="710" type="line"/>
      <point x="82" y="710" type="line"/>
      <point x="82" y="0" type="line"/>
      <point x="226" y="0" type="line"/>
    </contour>
    <contour>
      <point x="218" y="252" type="line"/>
      <point x="341" y="212" type="line"/>
      <point x="586" y="475" type="line"/>
      <point x="586" y="477" type="line"/>
      <point x="408" y="477" type="line"/>
    </contour>
    <contour>
      <point x="198" y="252" type="line"/>
      <point x="403" y="0" type="line"/>
      <point x="589" y="0" type="line"/>
      <point x="589" y="2" type="line"/>
      <point x="337" y="284" type="line"/>
      <point x="218" y="252" type="line"/>
    </contour>
  </outline>
</glyph>
<glyph name="l" format="2">
  <advance width="614"/>
  <unicode hex="006C"/>
  <anchor x="319" y="-35" name="below"/>
  <anchor x="286" y="752" name="aboveLC"/>
  <anchor x="286" y="715" name="aboveLCx"/>
  <anchor x="487" y="789" name="topright"/>
  <outline>
    <contour>
      <point x="56" y="710" type="line"/>
      <point x="56" y="588" type="line"/>
      <point x="282" y="588" type="line"/>
      <point x="282" y="710" type="line"/>
    </contour>
    <contour>
      <point x="215" y="204" type="line" smooth="yes"/>
      <point x="215" y="53"/>
      <point x="264" y="7"/>
      <point x="415" y="0" type="curve" smooth="yes"/>
      <point x="546" y="-6" type="line"/>
      <point x="551" y="118" type="line"/>
      <point x="442" y="124" type="line" smooth="yes"/>
      <point x="380" y="127"/>
      <point x="359" y="150"/>
      <point x="359" y="214" type="curve" smooth="yes"/>
      <point x="359" y="710" type="line"/>
      <point x="215" y="710" type="line"/>
    </contour>
  </outline>
</glyph>
<glyph name="m" format="2">
  <advance width="614"/>
  <unicode hex="006D"/>
  <anchor x="307" y="502" name="aboveLC"/>
  <anchor x="310" y="-35" name="below"/>
  <outline>
    <contour>
      <point x="140" y="477" type="line"/>
      <point x="41" y="477" type="line"/>
      <point x="41" y="0" type="line"/>
      <point x="164" y="0" type="line"/>
      <point x="164" y="300" type="line"/>
      <point x="188" y="320"/>
      <point x="204" y="325"/>
      <point x="219" y="325" type="curve" smooth="yes"/>
      <point x="242" y="325"/>
      <point x="253" y="313"/>
      <point x="253" y="288" type="curve" smooth="yes"/>
      <point x="253" y="0" type="line"/>
      <point x="367" y="0" type="line"/>
      <point x="367" y="302" type="line"/>
      <point x="390" y="320"/>
      <point x="406" y="325"/>
      <point x="419" y="325" type="curve" smooth="yes"/>
      <point x="442" y="325"/>
      <point x="454" y="314"/>
      <point x="454" y="286" type="curve" smooth="yes"/>
      <point x="454" y="0" type="line"/>
      <point x="577" y="0" type="line"/>
      <point x="577" y="373" type="line" smooth="yes"/>
      <point x="577" y="450"/>
      <point x="555" y="481"/>
      <point x="500" y="481" type="curve" smooth="yes"/>
      <point x="457" y="481"/>
      <point x="437" y="469"/>
      <point x="389" y="385" type="curve"/>
      <point x="364" y="385" type="line"/>
      <point x="364" y="385" type="line"/>
      <point x="364" y="455"/>
      <point x="340" y="481"/>
      <point x="293" y="481" type="curve" smooth="yes"/>
      <point x="249" y="481"/>
      <point x="221" y="469"/>
      <point x="173" y="385" type="curve"/>
      <point x="152" y="385" type="line"/>
    </contour>
  </outline>
</glyph>
<glyph name="n" format="2">
  <advance width="614"/>
  <unicode hex="006E"/>
  <anchor x="309" y="502" name="aboveLC"/>
  <anchor x="311" y="-35" name="below"/>
  <anchor x="311" y="0" name="belowx"/>
  <outline>
    <contour>
      <point x="204" y="477" type="line"/>
      <point x="78" y="477" type="line"/>
      <point x="78" y="0" type="line"/>
      <point x="223" y="0" type="line"/>
      <point x="223" y="333" type="line"/>
      <point x="218" y="333" type="line"/>
    </contour>
    <contour>
      <point x="207" y="266" type="line"/>
      <point x="273" y="323"/>
      <point x="317" y="351"/>
      <point x="349" y="351" type="curve" smooth="yes"/>
      <point x="383" y="351"/>
      <point x="396" y="334"/>
      <point x="396" y="300" type="curve" smooth="yes"/>
      <point x="396" y="0" type="line"/>
      <point x="541" y="0" type="line"/>
      <point x="541" y="327" type="line" smooth="yes"/>
      <point x="541" y="434"/>
      <point x="499" y="488"/>
      <point x="404" y="488" type="curve" smooth="yes"/>
      <point x="339" y="488"/>
      <point x="280" y="457"/>
      <point x="187" y="374" type="curve"/>
    </contour>
  </outline>
</glyph>
<glyph name="p" format="2">
  <advance width="614"/>
  <unicode hex="0070"/>
  <anchor x="319" y="502" name="aboveLC"/>
  <outline>
    <contour>
      <point x="75" y="-230" type="line"/>
      <point x="220" y="-230" type="line"/>
      <point x="220" y="386" type="line"/>
      <point x="215" y="387" type="line"/>
      <point x="201" y="477" type="line"/>
      <point x="75" y="477" type="line"/>
    </contour>
    <contour>
      <point x="370" y="488" type="curve" smooth="yes"/>
      <point x="301" y="488"/>
      <point x="250" y="461"/>
      <point x="198" y="399" type="curve"/>
      <point x="203" y="325" type="line"/>
      <point x="243" y="357"/>
      <point x="273" y="369"/>
      <point x="307" y="369" type="curve" smooth="yes"/>
      <point x="376" y="369"/>
      <point x="420" y="321"/>
      <point x="420" y="239" type="curve" smooth="yes"/>
      <point x="420" y="168"/>
      <point x="374" y="112"/>
      <point x="290" y="112" type="curve" smooth="yes"/>
      <point x="260" y="112"/>
      <point x="230" y="121"/>
      <point x="184" y="158" type="curve"/>
      <point x="175" y="86" type="line"/>
      <point x="235" y="12"/>
      <point x="284" y="-5"/>
      <point x="344" y="-5" type="curve" smooth="yes"/>
      <point x="468" y="-5"/>
      <point x="570" y="97"/>
      <point x="570" y="250" type="curve" smooth="yes"/>
      <point x="570" y="403"/>
      <point x="477" y="488"/>
    </contour>
  </outline>
</glyph>
<glyph name="q" format="2">
  <advance width="614"/>
  <unicode hex="0071"/>
  <outline>
    <contour>
      <point x="394" y="-230" type="line"/>
      <point x="539" y="-230" type="line"/>
      <point x="539" y="477" type="line"/>
      <point x="523" y="477" type="line"/>
      <point x="394" y="435" type="line"/>
    </contour>
    <contour>
      <point x="44" y="225" type="curve" smooth="yes"/>
      <point x="44" y="71"/>
      <point x="135" y="-13"/>
      <point x="249" y="-13" type="curve" smooth="yes"/>
      <point x="313" y="-13"/>
      <point x="367" y="10"/>
      <point x="416" y="68" type="curve"/>
      <point x="411" y="150" type="line"/>
      <point x="371" y="118"/>
      <point x="340" y="106"/>
      <point x="307" y="106" type="curve" smooth="yes"/>
      <point x="238" y="106"/>
      <point x="194" y="154"/>
      <point x="194" y="236" type="curve" smooth="yes"/>
      <point x="194" y="306"/>
      <point x="240" y="365"/>
      <point x="327" y="365" type="curve" smooth="yes"/>
      <point x="358" y="365"/>
      <point x="387" y="356"/>
      <point x="429" y="326" type="curve"/>
      <point x="492" y="433" type="line"/>
      <point x="439" y="468"/>
      <point x="378" y="485"/>
      <point x="316" y="485" type="curve" smooth="yes"/>
      <point x="139" y="485"/>
      <point x="44" y="371"/>
    </contour>
  </outline>
</glyph>
<glyph name="r" format="2">
  <advance width="614"/>
  <unicode hex="0072"/>
  <anchor x="312" y="502" name="aboveLC"/>
  <anchor x="248" y="-35" name="below"/>
  <outline>
    <contour>
      <point x="285" y="477" type="line"/>
      <point x="158" y="477" type="line"/>
      <point x="158" y="0" type="line"/>
      <point x="302" y="0" type="line"/>
      <point x="302" y="339" type="line"/>
      <point x="293" y="339" type="line"/>
    </contour>
    <contour>
      <point x="269" y="203" type="line"/>
      <point x="379.0" y="311"/>
      <point x="394" y="320"/>
      <point x="484" y="328" type="curve" smooth="yes"/>
      <point x="570" y="336" type="line"/>
      <point x="558" y="482" type="line"/>
      <point x="472" y="475" type="line" smooth="yes"/>
      <point x="419" y="471"/>
      <point x="380" y="458"/>
      <point x="290" y="342" type="curve"/>
    </contour>
    <contour>
      <point x="76" y="477" type="line"/>
      <point x="76" y="355" type="line"/>
      <point x="239" y="355" type="line"/>
      <point x="239" y="477" type="line"/>
    </contour>
    <contour>
      <point x="56" y="122" type="line"/>
      <point x="56" y="0" type="line"/>
      <point x="428" y="0" type="line"/>
      <point x="428" y="122" type="line"/>
    </contour>
  </outline>
</glyph>
<glyph name="s" format="2">
  <advance width="614"/>
  <unicode hex="0073"/>
  <anchor x="312" y="507" name="aboveLC"/>
  <anchor x="301" y="-40" name="below"/>
  <anchor x="295" y="-15" name="belowcedilla"/>
  <anchor x="312" y="472" name="aboveLCx"/>
  <outline>
    <contour>
      <point x="540" y="143" type="curve" smooth="yes"/>
      <point x="540" y="218"/>
      <point x="513" y="264"/>
      <point x="387" y="289" type="curve" smooth="yes"/>
      <point x="284" y="309" type="line" smooth="yes"/>
      <point x="243" y="318"/>
      <point x="231" y="324"/>
      <point x="231" y="346" type="curve" smooth="yes"/>
      <point x="231" y="367"/>
      <point x="249" y="378"/>
      <point x="319" y="378" type="curve" smooth="yes"/>
      <point x="356" y="378"/>
      <point x="419" y="372"/>
      <point x="499" y="359" type="curve"/>
      <point x="511" y="475" type="line"/>
      <point x="439" y="486"/>
      <point x="368" y="491"/>
      <point x="324" y="491" type="curve" smooth="yes"/>
      <point x="152" y="491"/>
      <point x="83" y="430"/>
      <point x="83" y="338" type="curve" smooth="yes"/>
      <point x="83" y="267"/>
      <point x="109" y="222"/>
      <point x="229" y="199" type="curve" smooth="yes"/>
      <point x="335" y="179" type="line" smooth="yes"/>
      <point x="381" y="169"/>
      <point x="393" y="159"/>
      <point x="393" y="137" type="curve" smooth="yes"/>
      <point x="393" y="115"/>
      <point x="372" y="99"/>
      <point x="297" y="99" type="curve" smooth="yes"/>
      <point x="258" y="99"/>
      <point x="182" y="105"/>
      <point x="90" y="120" type="curve"/>
      <point x="77" y="4" type="line"/>
      <point x="149" y="-7"/>
      <point x="207" y="-14"/>
      <point x="292" y="-14" type="curve" smooth="yes"/>
      <point x="456" y="-14"/>
      <point x="540" y="57"/>
    </contour>
  </outline>
</glyph>
<glyph name="u" format="2">
  <advance width="614"/>
  <unicode hex="0075"/>
  <anchor x="319" y="502" name="aboveLC"/>
  <anchor x="317" y="-35" name="below"/>
  <anchor x="472" y="-10" name="belowogonek"/>
  <anchor x="319" y="467" name="aboveLCx"/>
  <outline>
    <contour>
      <point x="536" y="0" type="line"/>
      <point x="536" y="477" type="line"/>
      <point x="391" y="477" type="line"/>
      <point x="391" y="144" type="line"/>
      <point x="396" y="144" type="line"/>
      <point x="409" y="0" type="line"/>
    </contour>
    <contour>
      <point x="407" y="211" type="line"/>
      <point x="341" y="154"/>
      <point x="297" y="126"/>
      <point x="265" y="126" type="curve" smooth="yes"/>
      <point x="231" y="126"/>
      <point x="218" y="143"/>
      <point x="218" y="177" type="curve" smooth="yes"/>
      <point x="218" y="477" type="line"/>
      <point x="73" y="477" type="line"/>
      <point x="73" y="150" type="line" smooth="yes"/>
      <point x="73" y="43"/>
      <point x="115" y="-11"/>
      <point x="210" y="-11" type="curve" smooth="yes"/>
      <point x="275" y="-11"/>
      <point x="334" y="20"/>
      <point x="427" y="103" type="curve"/>
    </contour>
  </outline>
</glyph>
<glyph name="v" format="2">
  <advance width="614"/>
  <unicode hex="0076"/>
  <anchor x="305" y="-35" name="below"/>
  <outline>
    <contour>
      <point x="428" y="477" type="line"/>
      <point x="276" y="28" type="line"/>
      <point x="267" y="0" type="line"/>
      <point x="398" y="0" type="line"/>
      <point x="580" y="477" type="line"/>
    </contour>
    <contour>
      <point x="34" y="477" type="line"/>
      <point x="217" y="0" type="line"/>
      <point x="353" y="0" type="line"/>
      <point x="344" y="28" type="line"/>
      <point x="192" y="477" type="line"/>
    </contour>
  </outline>
</glyph>
<glyph name="w" format="2">
  <advance width="614"/>
  <unicode hex="0077"/>
  <anchor x="305" y="502" name="aboveLC"/>
  <anchor x="305" y="467" name="aboveLCx"/>
  <outline>
    <contour>
      <point x="502" y="0" type="line"/>
      <point x="586" y="477" type="line"/>
      <point x="447" y="477" type="line"/>
      <point x="387" y="57" type="line"/>
      <point x="407" y="0" type="line"/>
    </contour>
    <contour>
      <point x="204" y="0" type="line"/>
      <point x="226" y="57" type="line"/>
      <point x="168" y="477" type="line"/>
      <point x="29" y="477" type="line"/>
      <point x="111" y="0" type="line"/>
    </contour>
    <contour>
      <point x="466" y="0" type="line"/>
      <point x="449" y="57" type="line"/>
      <point x="314" y="424" type="line"/>
      <point x="300" y="424" type="line"/>
      <point x="166" y="57" type="line"/>
      <point x="149" y="0" type="line"/>
      <point x="238" y="0" type="line"/>
      <point x="321" y="247" type="line"/>
      <point x="287" y="247" type="line"/>
      <point x="370" y="0" type="line"/>
    </contour>
  </outline>
</glyph>
<glyph name="x" format="2">
  <advance width="614"/>
  <unicode hex="0078"/>
  <anchor x="309" y="502" name="aboveLC"/>
  <anchor x="305" y="-35" name="below"/>
  <anchor x="305" y="-5" name="belowx"/>
  <anchor x="309" y="472" name="aboveLCx"/>
  <outline>
    <contour>
      <point x="35" y="0" type="line"/>
      <point x="203" y="0" type="line"/>
      <point x="347" y="228" type="line"/>
      <point x="383" y="228" type="line"/>
      <point x="565" y="477" type="line"/>
      <point x="397" y="477" type="line"/>
      <point x="261" y="261" type="line"/>
      <point x="230" y="261" type="line"/>
    </contour>
    <contour>
      <point x="580" y="0" type="line"/>
      <point x="383" y="261" type="line"/>
      <point x="356" y="261" type="line"/>
      <point x="220" y="477" type="line"/>
      <point x="46" y="477" type="line"/>
      <point x="228" y="228" type="line"/>
      <point x="262" y="228" type="line"/>
      <point x="407" y="0" type="line"/>
    </contour>
  </outline>
</glyph>
<glyph name="y" format="2">
  <advance width="614"/>
  <unicode hex="0079"/>
  <anchor x="311" y="502" name="aboveLC"/>
  <anchor x="509" y="-35" name="below"/>
  <anchor x="311" y="472" name="aboveLCx"/>
  <outline>
    <contour>
      <point x="34" y="477" type="line"/>
      <point x="255" y="-72" type="line"/>
      <point x="323" y="-72" type="line"/>
      <point x="357" y="27" type="line"/>
      <point x="193" y="477" type="line"/>
    </contour>
    <contour>
      <point x="357" y="-91" type="curve" smooth="yes"/>
      <point x="581" y="477" type="line"/>
      <point x="428" y="477" type="line"/>
      <point x="268" y="26" type="line"/>
      <point x="255" y="26" type="line"/>
      <point x="222" y="-56" type="line" smooth="yes"/>
      <point x="206" y="-96"/>
      <point x="191" y="-106"/>
      <point x="123" y="-108" type="curve" smooth="yes"/>
      <point x="32" y="-113" type="line"/>
      <point x="35" y="-236" type="line"/>
      <point x="172" y="-230" type="line" smooth="yes"/>
      <point x="276" y="-225"/>
      <point x="314" y="-200"/>
    </contour>
  </outline>
</glyph>
<glyph name="z" format="2">
  <advance width="614"/>
  <unicode hex="007A"/>
  <anchor x="299" y="502" name="aboveLC"/>
  <anchor x="299" y="-35" name="below"/>
  <anchor x="299" y="-10" name="belowcedilla"/>
  <outline>
    <contour>
      <point x="77" y="0" type="line"/>
      <point x="539" y="0" type="line"/>
      <point x="539" y="113" type="line"/>
      <point x="173" y="113" type="line"/>
      <point x="77" y="85" type="line"/>
    </contour>
    <contour>
      <point x="77" y="74" type="line"/>
      <point x="272" y="74" type="line"/>
      <point x="272" y="143" type="line"/>
      <point x="248" y="91" type="line"/>
      <point x="523" y="377" type="line"/>
      <point x="523" y="410" type="line"/>
      <point x="329" y="410" type="line"/>
      <point x="329" y="334" type="line"/>
      <point x="353" y="386" type="line"/>
      <point x="77" y="99" type="line"/>
    </contour>
    <contour>
      <point x="88" y="364" type="line"/>
      <point x="420" y="364" type="line"/>
      <point x="523" y="387" type="line"/>
      <point x="523" y="477" type="line"/>
      <point x="88" y="477" type="line"/>
    </contour>
  </outline>
</glyph>
<glyph name="braceleft" format="2">
  <advance width="614"/>
  <unicode hex="007B"/>
  <outline>
    <contour>
      <point x="173" y="665" type="curve" smooth="yes"/>
      <point x="173" y="634"/>
      <point x="186" y="604"/>
      <point x="226" y="563" type="curve" smooth="yes"/>
      <point x="274" y="514" type="line" smooth="yes"/>
      <point x="295" y="492"/>
      <point x="298" y="485"/>
      <point x="298" y="477" type="curve" smooth="yes"/>
      <point x="298" y="457"/>
      <point x="288" y="444"/>
      <point x="62" y="391" type="curve"/>
      <point x="62" y="322" type="line"/>
      <point x="72" y="322" type="line"/>
      <point x="443" y="380"/>
      <point x="465" y="419"/>
      <point x="465" y="465" type="curve" smooth="yes"/>
      <point x="465" y="487"/>
      <point x="456" y="506"/>
      <point x="411" y="552" type="curve" smooth="yes"/>
      <point x="363" y="601" type="line" smooth="yes"/>
      <point x="343" y="622"/>
      <point x="339" y="630"/>
      <point x="339" y="636" type="curve" smooth="yes"/>
      <point x="339" y="648"/>
      <point x="346" y="654"/>
      <point x="369" y="658" type="curve" smooth="yes"/>
      <point x="586" y="689" type="line"/>
      <point x="568" y="810" type="line"/>
      <point x="317" y="772" type="line" smooth="yes"/>
      <point x="203" y="754"/>
      <point x="173" y="719"/>
    </contour>
    <contour>
      <point x="62" y="271" type="line"/>
      <point x="183" y="271" type="line"/>
      <point x="183" y="391" type="line"/>
      <point x="62" y="391" type="line"/>
    </contour>
    <contour>
      <point x="173" y="-3" type="curve" smooth="yes"/>
      <point x="173" y="-57"/>
      <point x="203" y="-92"/>
      <point x="317" y="-110" type="curve" smooth="yes"/>
      <point x="568" y="-148" type="line"/>
      <point x="586" y="-27" type="line"/>
      <point x="369" y="4" type="line" smooth="yes"/>
      <point x="346" y="8"/>
      <point x="339" y="14"/>
      <point x="339" y="26" type="curve" smooth="yes"/>
      <point x="339" y="32"/>
      <point x="343" y="41"/>
      <point x="363" y="61" type="curve" smooth="yes"/>
      <point x="411" y="110" type="line" smooth="yes"/>
      <point x="456" y="156"/>
      <point x="465" y="175"/>
      <point x="465" y="197" type="curve" smooth="yes"/>
      <point x="465" y="243"/>
      <point x="442" y="282"/>
      <point x="72" y="340" type="curve"/>
      <point x="62" y="340" type="line"/>
      <point x="62" y="271" type="line"/>
      <point x="288" y="217"/>
      <point x="298" y="205"/>
      <point x="298" y="185" type="curve" smooth="yes"/>
      <point x="298" y="178"/>
      <point x="295" y="170"/>
      <point x="274" y="148" type="curve" smooth="yes"/>
      <point x="226" y="99" type="line" smooth="yes"/>
      <point x="186" y="58"/>
      <point x="173" y="28"/>
    </contour>
  </outline>
</glyph>
<glyph name="braceright" format="2">
  <advance width="614"/>
  <unicode hex="007D"/>
  <outline>
    <contour>
      <point x="441" y="-3" type="curve" smooth="yes"/>
      <point x="441" y="28"/>
      <point x="428" y="58"/>
      <point x="388" y="99" type="curve" smooth="yes"/>
      <point x="340" y="148" type="line" smooth="yes"/>
      <point x="319" y="170"/>
      <point x="316" y="178"/>
      <point x="316" y="185" type="curve" smooth="yes"/>
      <point x="316" y="205"/>
      <point x="326" y="217"/>
      <point x="552" y="271" type="curve"/>
      <point x="552" y="340" type="line"/>
      <point x="542" y="340" type="line"/>
      <point x="172" y="282"/>
      <point x="149" y="243"/>
      <point x="149" y="197" type="curve" smooth="yes"/>
      <point x="149" y="175"/>
      <point x="158" y="156"/>
      <point x="203" y="110" type="curve" smooth="yes"/>
      <point x="251" y="61" type="line" smooth="yes"/>
      <point x="271" y="41"/>
      <point x="275" y="32"/>
      <point x="275" y="26" type="curve" smooth="yes"/>
      <point x="275" y="14"/>
      <point x="268" y="8"/>
      <point x="245" y="4" type="curve" smooth="yes"/>
      <point x="28" y="-27" type="line"/>
      <point x="46" y="-148" type="line"/>
      <point x="297" y="-110" type="line" smooth="yes"/>
      <point x="411" y="-92"/>
      <point x="441" y="-57"/>
    </contour>
    <contour>
      <point x="552" y="391" type="line"/>
      <point x="431" y="391" type="line"/>
      <point x="431" y="271" type="line"/>
      <point x="552" y="271" type="line"/>
    </contour>
    <contour>
      <point x="441" y="665" type="curve" smooth="yes"/>
      <point x="441" y="719"/>
      <point x="411" y="754"/>
      <point x="297" y="772" type="curve" smooth="yes"/>
      <point x="46" y="810" type="line"/>
      <point x="28" y="689" type="line"/>
      <point x="245" y="658" type="line" smooth="yes"/>
      <point x="268" y="654"/>
      <point x="275" y="648"/>
      <point x="275" y="636" type="curve" smooth="yes"/>
      <point x="275" y="630"/>
      <point x="271" y="621"/>
      <point x="251" y="601" type="curve" smooth="yes"/>
      <point x="203" y="552" type="line" smooth="yes"/>
      <point x="158" y="506"/>
      <point x="149" y="487"/>
      <point x="149" y="465" type="curve" smooth="yes"/>
      <point x="149" y="419"/>
      <point x="172" y="380"/>
      <point x="542" y="322" type="curve"/>
      <point x="552" y="322" type="line"/>
      <point x="552" y="391" type="line"/>
      <point x="326" y="445"/>
      <point x="316" y="457"/>
      <point x="316" y="477" type="curve" smooth="yes"/>
      <point x="316" y="484"/>
      <point x="319" y="492"/>
      <point x="340" y="514" type="curve" smooth="yes"/>
      <point x="388" y="563" type="line" smooth="yes"/>
      <point x="428" y="604"/>
      <point x="441" y="634"/>
    </contour>
  </outline>
</glyph>
<glyph name="exclamdown" format="2">
  <advance width="614"/>
  <unicode hex="00A1"/>
  <outline>
    <contour>
      <point x="357" y="433" type="line"/>
      <point x="259" y="433" type="line"/>
      <point x="175" y="0" type="line"/>
      <point x="440" y="0" type="line"/>
    </contour>
    <contour>
      <point x="316" y="725" type="curve" smooth="yes"/>
      <point x="229" y="725"/>
      <point x="194" y="697"/>
      <point x="194" y="637" type="curve" smooth="yes"/>
      <point x="194" y="578"/>
      <point x="221" y="549"/>
      <point x="314" y="549" type="curve" smooth="yes"/>
      <point x="407" y="549"/>
      <point x="436" y="582"/>
      <point x="436" y="637" type="curve" smooth="yes"/>
      <point x="436" y="696"/>
      <point x="406" y="725"/>
    </contour>
  </outline>
</glyph>
<glyph name="cent" format="2">
  <advance width="614"/>
  <unicode hex="00A2"/>
  <outline>
    <contour>
      <point x="385" y="471" type="line"/>
      <point x="385" y="632" type="line"/>
      <point x="294" y="632" type="line"/>
      <point x="294" y="471" type="line"/>
    </contour>
    <contour>
      <point x="294" y="-142" type="line"/>
      <point x="385" y="-142" type="line"/>
      <point x="385" y="22" type="line"/>
      <point x="294" y="22" type="line"/>
    </contour>
    <contour>
      <point x="335" y="368" type="curve" smooth="yes"/>
      <point x="375" y="368"/>
      <point x="412" y="363"/>
      <point x="488" y="312" type="curve"/>
      <point x="555" y="415" type="line"/>
      <point x="457" y="479"/>
      <point x="395" y="490"/>
      <point x="328" y="490" type="curve" smooth="yes"/>
      <point x="170.0" y="490.0"/>
      <point x="53.0" y="379.61904761904765"/>
      <point x="53" y="246" type="curve" smooth="yes"/>
      <point x="53.0" y="96.5702479338843"/>
      <point x="156.0" y="0.0"/>
      <point x="313" y="0" type="curve" smooth="yes"/>
      <point x="395" y="0"/>
      <point x="462" y="17"/>
      <point x="560" y="77" type="curve"/>
      <point x="495" y="175" type="line"/>
      <point x="415" y="131"/>
      <point x="374" y="122"/>
      <point x="327" y="122" type="curve" smooth="yes"/>
      <point x="259.0" y="122.0"/>
      <point x="205.0" y="166.4214876033058"/>
      <point x="205" y="247" type="curve" smooth="yes"/>
      <point x="205.0" y="318.2868217054264"/>
      <point x="258.0" y="368.0"/>
    </contour>
  </outline>
</glyph>
<glyph name="sterling" format="2">
  <advance width="614"/>
  <unicode hex="00A3"/>
  <outline>
    <contour>
      <point x="57.0" y="0.0" type="line"/>
      <point x="563.0" y="0.0" type="line"/>
      <point x="563.0" y="120" type="line"/>
      <point x="117.0" y="120" type="line"/>
      <point x="57.0" y="98" type="line"/>
    </contour>
    <contour>
      <point x="72.0" y="250" type="line"/>
      <point x="270.0" y="250" type="line"/>
      <point x="270.0" y="261" type="line"/>
      <point x="502.0" y="261" type="line"/>
      <point x="502.0" y="339" type="line"/>
      <point x="269.0" y="339" type="line"/>
      <point x="269.0" y="326" type="line"/>
      <point x="72.0" y="326" type="line"/>
    </contour>
    <contour>
      <point x="349.0" y="296" type="curve" smooth="yes"/>
      <point x="349" y="329"/>
      <point x="339" y="361"/>
      <point x="284" y="408" type="curve" smooth="yes"/>
      <point x="238" y="448"/>
      <point x="234" y="462"/>
      <point x="234.0" y="486" type="curve" smooth="yes"/>
      <point x="234.0" y="521"/>
      <point x="267" y="550"/>
      <point x="320" y="550.0" type="curve" smooth="yes"/>
      <point x="369" y="550.0"/>
      <point x="400" y="534"/>
      <point x="508" y="466" type="curve"/>
      <point x="575" y="575" type="line"/>
      <point x="454" y="646"/>
      <point x="392" y="670.0"/>
      <point x="306.0" y="670.0" type="curve" smooth="yes"/>
      <point x="164" y="670"/>
      <point x="87.0" y="581"/>
      <point x="87" y="494" type="curve" smooth="yes"/>
      <point x="87" y="443"/>
      <point x="105" y="415"/>
      <point x="164" y="365" type="curve" smooth="yes"/>
      <point x="226" y="314"/>
      <point x="232" y="302"/>
      <point x="232.0" y="286" type="curve" smooth="yes"/>
      <point x="232" y="267"/>
      <point x="225" y="255"/>
      <point x="57.0" y="112" type="curve"/>
      <point x="57.0" y="90" type="line"/>
      <point x="193.0" y="90" type="line"/>
      <point x="344" y="216"/>
      <point x="349" y="250"/>
    </contour>
  </outline>
</glyph>
<glyph name="yen" format="2">
  <advance width="614"/>
  <unicode hex="00A5"/>
  <outline>
    <contour>
      <point x="15.0" y="655.0" type="line"/>
      <point x="277.0" y="268" type="line"/>
      <point x="366.0" y="347" type="line"/>
      <point x="177.0" y="655.0" type="line"/>
    </contour>
    <contour>
      <point x="76" y="283" type="line"/>
      <point x="307" y="283" type="line"/>
      <point x="307" y="359" type="line"/>
      <point x="76" y="359" type="line"/>
    </contour>
    <contour>
      <point x="76" y="124" type="line"/>
      <point x="538" y="124" type="line"/>
      <point x="538" y="200" type="line"/>
      <point x="76" y="200" type="line"/>
    </contour>
    <contour>
      <point x="337.0" y="269" type="line"/>
      <point x="599.0" y="655.0" type="line"/>
      <point x="442.0" y="655.0" type="line"/>
      <point x="252.0" y="347" type="line"/>
    </contour>
    <contour>
      <point x="312" y="283" type="line"/>
      <point x="538" y="283" type="line"/>
      <point x="538" y="359" type="line"/>
      <point x="312" y="359" type="line"/>
    </contour>
    <contour>
      <point x="240.0" y="353" type="line"/>
      <point x="240" y="0" type="line"/>
      <point x="374" y="0" type="line"/>
      <point x="374.0" y="353" type="line"/>
    </contour>
  </outline>
</glyph>
<glyph name="section" format="2">
  <advance width="614"/>
  <unicode hex="00A7"/>
  <outline>
    <contour>
      <point x="569.0" y="246.0" type="curve" smooth="yes"/>
      <point x="569.0" y="306.0"/>
      <point x="539" y="362"/>
      <point x="416.0" y="412.0" type="curve" smooth="yes"/>
      <point x="293.0" y="462.0" type="line" smooth="yes"/>
      <point x="248" y="480"/>
      <point x="241.0" y="491"/>
      <point x="241.0" y="509" type="curve" smooth="yes"/>
      <point x="241.0" y="531.0"/>
      <point x="257.0" y="548.0"/>
      <point x="326.0" y="548.0" type="curve" smooth="yes"/>
      <point x="376" y="548.0"/>
      <point x="442" y="538"/>
      <point x="527.0" y="519.0" type="curve"/>
      <point x="543.0" y="641.0" type="line"/>
      <point x="469" y="657"/>
      <point x="408" y="667.0"/>
      <point x="330.0" y="667.0" type="curve" smooth="yes"/>
      <point x="165.0" y="667.0"/>
      <point x="97.0" y="595.0"/>
      <point x="97.0" y="501.0" type="curve" smooth="yes"/>
      <point x="97.0" y="410.0"/>
      <point x="147" y="368"/>
      <point x="226.0" y="335.0" type="curve" smooth="yes"/>
      <point x="355.0" y="282.0" type="line" smooth="yes"/>
      <point x="414" y="258"/>
      <point x="424.0" y="238.0"/>
      <point x="424.0" y="213.0" type="curve" smooth="yes"/>
      <point x="424.0" y="190"/>
      <point x="422" y="161"/>
      <point x="333.0" y="105.0" type="curve"/>
      <point x="417.0" y="58.0" type="line"/>
      <point x="542" y="123"/>
      <point x="569.0" y="176"/>
    </contour>
    <contour>
      <point x="46.0" y="181.0" type="curve" smooth="yes"/>
      <point x="46.0" y="121.0"/>
      <point x="76.0" y="65.0"/>
      <point x="199.0" y="15.0" type="curve" smooth="yes"/>
      <point x="322.0" y="-35.0" type="line" smooth="yes"/>
      <point x="367.0" y="-53.0"/>
      <point x="374.0" y="-64.0"/>
      <point x="374.0" y="-82.0" type="curve" smooth="yes"/>
      <point x="374.0" y="-104.0"/>
      <point x="358.0" y="-121.0"/>
      <point x="289.0" y="-121.0" type="curve" smooth="yes"/>
      <point x="239.0" y="-121.0"/>
      <point x="173.0" y="-111.0"/>
      <point x="88.0" y="-92.0" type="curve"/>
      <point x="72.0" y="-214.0" type="line"/>
      <point x="146.0" y="-230.0"/>
      <point x="207.0" y="-240.0"/>
      <point x="285.0" y="-240.0" type="curve" smooth="yes"/>
      <point x="450.0" y="-240.0"/>
      <point x="518.0" y="-168.0"/>
      <point x="518.0" y="-74.0" type="curve" smooth="yes"/>
      <point x="518.0" y="17.0"/>
      <point x="468.0" y="59.0"/>
      <point x="389.0" y="92.0" type="curve" smooth="yes"/>
      <point x="260.0" y="145.0" type="line" smooth="yes"/>
      <point x="201.0" y="169.0"/>
      <point x="191.0" y="189.0"/>
      <point x="191.0" y="214.0" type="curve" smooth="yes"/>
      <point x="191.0" y="237.0"/>
      <point x="193.0" y="266.0"/>
      <point x="282.0" y="322.0" type="curve"/>
      <point x="198.0" y="369.0" type="line"/>
      <point x="73.0" y="304.0"/>
      <point x="46.0" y="251.0"/>
    </contour>
  </outline>
</glyph>
<glyph name="copyright" format="2">
  <advance width="614"/>
  <unicode hex="00A9"/>
  <outline>
    <contour>
      <point x="107" y="328" type="curve" smooth="yes"/>
      <point x="107" y="605"/>
      <point x="183" y="680"/>
      <point x="307" y="680" type="curve" smooth="yes"/>
      <point x="432" y="680"/>
      <point x="507" y="605"/>
      <point x="507" y="328" type="curve" smooth="yes"/>
      <point x="507" y="51"/>
      <point x="432" y="-25"/>
      <point x="307" y="-25" type="curve" smooth="yes"/>
      <point x="183" y="-25"/>
      <point x="107" y="51"/>
    </contour>
    <contour>
      <point x="557" y="328" type="curve" smooth="yes"/>
      <point x="557" y="630"/>
      <point x="462" y="725"/>
      <point x="307" y="725" type="curve" smooth="yes"/>
      <point x="153" y="725"/>
      <point x="57" y="630"/>
      <point x="57" y="328" type="curve" smooth="yes"/>
      <point x="57" y="26"/>
      <point x="153" y="-70"/>
      <point x="307" y="-70" type="curve" smooth="yes"/>
      <point x="462" y="-70"/>
      <point x="557" y="26"/>
    </contour>
    <contour>
      <point x="311" y="97" type="curve" smooth="yes"/>
      <point x="353" y="97.0"/>
      <point x="398" y="106"/>
      <point x="445" y="189" type="curve"/>
      <point x="388" y="228" type="line"/>
      <point x="360" y="180"/>
      <point x="338" y="177.0"/>
      <point x="317" y="177" type="curve" smooth="yes"/>
      <point x="283.0" y="177.0"/>
      <point x="259.0" y="225"/>
      <point x="259" y="328" type="curve" smooth="yes"/>
      <point x="259.0" y="422"/>
      <point x="285.0" y="478.0"/>
      <point x="320" y="478" type="curve" smooth="yes"/>
      <point x="343" y="478.0"/>
      <point x="355" y="471"/>
      <point x="386" y="408" type="curve"/>
      <point x="448" y="448" type="line"/>
      <point x="404" y="541"/>
      <point x="371" y="558"/>
      <point x="320" y="558" type="curve" smooth="yes"/>
      <point x="237" y="558"/>
      <point x="176.0" y="467.0"/>
      <point x="176" y="326" type="curve" smooth="yes"/>
      <point x="176.0" y="184.0"/>
      <point x="224" y="97.0"/>
    </contour>
  </outline>
</glyph>
<glyph name="ordfeminine" format="2">
  <advance width="614"/>
  <unicode hex="00AA"/>
  <outline>
    <contour>
      <point x="119" y="241" type="line"/>
      <point x="119" y="161" type="line"/>
      <point x="504" y="161" type="line"/>
      <point x="504" y="241" type="line"/>
    </contour>
    <contour>
      <point x="245" y="407" type="curve" smooth="yes"/>
      <point x="219" y="407"/>
      <point x="206" y="419"/>
      <point x="206" y="436" type="curve" smooth="yes"/>
      <point x="206" y="460"/>
      <point x="216" y="473"/>
      <point x="260" y="478" type="curve" smooth="yes"/>
      <point x="373" y="492" type="line"/>
      <point x="373" y="557" type="line"/>
      <point x="232" y="545" type="line" smooth="yes"/>
      <point x="128" y="536"/>
      <point x="98" y="499"/>
      <point x="98" y="429" type="curve" smooth="yes"/>
      <point x="98" y="361"/>
      <point x="145" y="325"/>
      <point x="213" y="325" type="curve" smooth="yes"/>
      <point x="271" y="325"/>
      <point x="322" y="340"/>
      <point x="360" y="370" type="curve"/>
      <point x="369" y="370" type="line"/>
      <point x="369" y="455" type="line"/>
      <point x="311" y="414"/>
      <point x="273" y="407"/>
    </contour>
    <contour>
      <point x="468" y="442" type="curve" smooth="yes"/>
      <point x="468" y="573" type="line" smooth="yes"/>
      <point x="468" y="655"/>
      <point x="421" y="692"/>
      <point x="287" y="692" type="curve" smooth="yes"/>
      <point x="259" y="692"/>
      <point x="208" y="690"/>
      <point x="135" y="681" type="curve"/>
      <point x="144" y="593" type="line"/>
      <point x="210" y="601"/>
      <point x="257" y="604"/>
      <point x="282" y="604" type="curve" smooth="yes"/>
      <point x="350" y="604"/>
      <point x="363" y="594"/>
      <point x="363" y="571" type="curve" smooth="yes"/>
      <point x="363" y="399" type="line"/>
      <point x="369" y="370" type="line"/>
      <point x="381" y="347"/>
      <point x="407" y="334"/>
      <point x="455" y="332" type="curve" smooth="yes"/>
      <point x="515" y="329" type="line"/>
      <point x="523" y="407" type="line"/>
      <point x="490" y="410" type="line" smooth="yes"/>
      <point x="472" y="412"/>
      <point x="468" y="418"/>
    </contour>
  </outline>
</glyph>
<glyph name="guillemetleft" format="2">
  <advance width="614"/>
  <unicode hex="00AB"/>
  <outline>
    <contour>
      <point x="131.0" y="194" type="line"/>
      <point x="279.0" y="366" type="line"/>
      <point x="279.0" y="492" type="line"/>
      <point x="50.0" y="297" type="line"/>
      <point x="50.0" y="192" type="line"/>
    </contour>
    <contour>
      <point x="131.0" y="290" type="line"/>
      <point x="50.0" y="286" type="line"/>
      <point x="50.0" y="181" type="line"/>
      <point x="279.0" y="-15" type="line"/>
      <point x="279.0" y="114" type="line"/>
    </contour>
    <contour>
      <point x="406.0" y="194" type="line"/>
      <point x="554.0" y="366" type="line"/>
      <point x="554.0" y="492" type="line"/>
      <point x="324.0" y="297" type="line"/>
      <point x="324.0" y="192" type="line"/>
    </contour>
    <contour>
      <point x="406.0" y="290" type="line"/>
      <point x="324.0" y="286" type="line"/>
      <point x="324.0" y="181" type="line"/>
      <point x="554.0" y="-15" type="line"/>
      <point x="554.0" y="114" type="line"/>
    </contour>
  </outline>
</glyph>
<glyph name="registered" format="2">
  <advance width="614"/>
  <unicode hex="00AE"/>
  <outline>
    <contour>
      <point x="68" y="465" type="curve" smooth="yes"/>
      <point x="68" y="310"/>
      <point x="160" y="208"/>
      <point x="307" y="208" type="curve" smooth="yes"/>
      <point x="452" y="208"/>
      <point x="546" y="311"/>
      <point x="546" y="467" type="curve" smooth="yes"/>
      <point x="546" y="626"/>
      <point x="453" y="725"/>
      <point x="307" y="725" type="curve" smooth="yes"/>
      <point x="161" y="725"/>
      <point x="68" y="624"/>
    </contour>
    <contour>
      <point x="307" y="243" type="curve" smooth="yes"/>
      <point x="186" y="243"/>
      <point x="108" y="329"/>
      <point x="108" y="467" type="curve" smooth="yes"/>
      <point x="108" y="605"/>
      <point x="184" y="689"/>
      <point x="307" y="689" type="curve" smooth="yes"/>
      <point x="431" y="689"/>
      <point x="507" y="604"/>
      <point x="507" y="465" type="curve" smooth="yes"/>
      <point x="507" y="328"/>
      <point x="431" y="243"/>
    </contour>
    <contour>
      <point x="233" y="604" type="line"/>
      <point x="233" y="555" type="line"/>
      <point x="308" y="555" type="line" smooth="yes"/>
      <point x="334" y="555"/>
      <point x="345" y="544"/>
      <point x="345" y="523" type="curve" smooth="yes"/>
      <point x="345" y="504"/>
      <point x="337" y="490"/>
      <point x="284" y="483" type="curve" smooth="yes"/>
      <point x="233" y="476" type="line"/>
      <point x="233" y="440" type="line"/>
      <point x="330" y="440" type="line"/>
      <point x="330" y="452" type="line"/>
      <point x="386" y="462"/>
      <point x="407" y="489"/>
      <point x="407" y="528" type="curve" smooth="yes"/>
      <point x="407" y="576"/>
      <point x="379" y="604"/>
      <point x="317" y="604" type="curve" smooth="yes"/>
    </contour>
    <contour>
      <point x="217" y="604" type="line"/>
      <point x="217" y="343" type="line"/>
      <point x="279" y="343" type="line"/>
      <point x="279" y="604" type="line"/>
    </contour>
    <contour>
      <point x="426" y="345" type="line"/>
      <point x="372" y="414" type="line" smooth="yes"/>
      <point x="358" y="432"/>
      <point x="346" y="441"/>
      <point x="330" y="450" type="curve"/>
      <point x="233" y="450" type="line"/>
      <point x="233" y="440" type="line"/>
      <point x="282" y="440"/>
      <point x="290" y="437"/>
      <point x="310" y="405" type="curve" smooth="yes"/>
      <point x="350" y="343" type="line"/>
      <point x="426" y="343" type="line"/>
    </contour>
  </outline>
</glyph>
<glyph name="degree" format="2">
  <advance width="614"/>
  <unicode hex="00B0"/>
  <outline>
    <contour>
      <point x="93" y="487.0" type="curve" smooth="yes"/>
      <point x="93" y="364"/>
      <point x="182" y="284"/>
      <point x="307" y="284.0" type="curve" smooth="yes"/>
      <point x="432" y="284"/>
      <point x="521" y="366"/>
      <point x="521" y="488.0" type="curve" smooth="yes"/>
      <point x="521" y="611"/>
      <point x="433" y="692"/>
      <point x="308" y="692.0" type="curve" smooth="yes"/>
      <point x="183" y="692"/>
      <point x="93" y="610"/>
    </contour>
    <contour>
      <point x="307" y="591.0" type="curve" smooth="yes"/>
      <point x="363" y="591"/>
      <point x="407" y="549"/>
      <point x="407" y="487.0" type="curve" smooth="yes"/>
      <point x="407" y="426"/>
      <point x="365" y="385"/>
      <point x="308" y="385.0" type="curve" smooth="yes"/>
      <point x="249" y="385"/>
      <point x="208" y="427"/>
      <point x="208" y="488.0" type="curve" smooth="yes"/>
      <point x="208" y="549"/>
      <point x="248" y="591"/>
    </contour>
  </outline>
</glyph>
<glyph name="paragraph" format="2">
  <advance width="614"/>
  <unicode hex="00B6"/>
  <outline>
    <contour>
      <point x="384" y="655" type="line"/>
      <point x="384" y="0.0" type="line"/>
      <point x="518" y="0.0" type="line"/>
      <point x="518" y="655" type="line"/>
    </contour>
    <contour>
      <point x="294" y="239" type="line"/>
      <point x="294" y="606" type="line"/>
      <point x="331" y="655" type="line"/>
      <point x="315" y="655" type="line" smooth="yes"/>
      <point x="146" y="655"/>
      <point x="66" y="584"/>
      <point x="66" y="447" type="curve" smooth="yes"/>
      <point x="66" y="322"/>
      <point x="148" y="239"/>
      <point x="290" y="239" type="curve" smooth="yes"/>
    </contour>
    <contour>
      <point x="285" y="552" type="line"/>
      <point x="506" y="552" type="line"/>
      <point x="506" y="655" type="line"/>
      <point x="330" y="655" type="line"/>
      <point x="285" y="642" type="line"/>
    </contour>
  </outline>
</glyph>
<glyph name="ordmasculine" format="2">
  <advance width="614"/>
  <unicode hex="00BA"/>
  <outline>
    <contour>
      <point x="120" y="241" type="line"/>
      <point x="120" y="161" type="line"/>
      <point x="505" y="161" type="line"/>
      <point x="505" y="241" type="line"/>
    </contour>
    <contour>
      <point x="304" y="325" type="curve" smooth="yes"/>
      <point x="420" y="325"/>
      <point x="501" y="403"/>
      <point x="501" y="509" type="curve" smooth="yes"/>
      <point x="501" y="617"/>
      <point x="421" y="692"/>
      <point x="307" y="692" type="curve" smooth="yes"/>
      <point x="190" y="692"/>
      <point x="109" y="614"/>
      <point x="109" y="508" type="curve" smooth="yes"/>
      <point x="109" y="399"/>
      <point x="189" y="325"/>
    </contour>
    <contour>
      <point x="305" y="417" type="curve" smooth="yes"/>
      <point x="252" y="417"/>
      <point x="223" y="447"/>
      <point x="223" y="509" type="curve" smooth="yes"/>
      <point x="223" y="573"/>
      <point x="255" y="600"/>
      <point x="305" y="600" type="curve" smooth="yes"/>
      <point x="358" y="600"/>
      <point x="388" y="570"/>
      <point x="388" y="508" type="curve" smooth="yes"/>
      <point x="388" y="444"/>
      <point x="356" y="417"/>
    </contour>
  </outline>
</glyph>
<glyph name="guillemetright" format="2">
  <advance width="614"/>
  <unicode hex="00BB"/>
  <outline>
    <contour>
      <point x="483.0" y="283.0" type="line"/>
      <point x="335.0" y="111.0" type="line"/>
      <point x="335.0" y="-15.0" type="line"/>
      <point x="564.0" y="180.0" type="line"/>
      <point x="564.0" y="285.0" type="line"/>
    </contour>
    <contour>
      <point x="483.0" y="187.0" type="line"/>
      <point x="564.0" y="191.0" type="line"/>
      <point x="564.0" y="296.0" type="line"/>
      <point x="335.0" y="492.0" type="line"/>
      <point x="335.0" y="363.0" type="line"/>
    </contour>
    <contour>
      <point x="208.0" y="283.0" type="line"/>
      <point x="60.0" y="111.0" type="line"/>
      <point x="60.0" y="-15.0" type="line"/>
      <point x="290.0" y="180.0" type="line"/>
      <point x="290.0" y="285.0" type="line"/>
    </contour>
    <contour>
      <point x="208.0" y="187.0" type="line"/>
      <point x="290.0" y="191.0" type="line"/>
      <point x="290.0" y="296.0" type="line"/>
      <point x="60.0" y="492.0" type="line"/>
      <point x="60.0" y="363.0" type="line"/>
    </contour>
  </outline>
</glyph>
<glyph name="questiondown" format="2">
  <advance width="614"/>
  <unicode hex="00BF"/>
  <outline>
    <contour>
      <point x="306" y="433" type="line"/>
      <point x="293" y="374"/>
      <point x="290" y="366"/>
      <point x="254" y="349" type="curve" smooth="yes"/>
      <point x="190" y="319" type="line" smooth="yes"/>
      <point x="108" y="280"/>
      <point x="65.0" y="245.0"/>
      <point x="65" y="164" type="curve" smooth="yes"/>
      <point x="65.0" y="59.0"/>
      <point x="122.0" y="-15.0"/>
      <point x="290" y="-15" type="curve" smooth="yes"/>
      <point x="369" y="-15"/>
      <point x="432" y="-9"/>
      <point x="558" y="18" type="curve"/>
      <point x="536" y="143" type="line"/>
      <point x="424" y="114"/>
      <point x="354" y="105"/>
      <point x="304" y="105" type="curve" smooth="yes"/>
      <point x="239.0" y="105.0"/>
      <point x="213.0" y="128.0"/>
      <point x="213" y="164" type="curve" smooth="yes"/>
      <point x="213.0" y="191.0"/>
      <point x="225" y="201"/>
      <point x="292" y="232" type="curve" smooth="yes"/>
      <point x="359" y="263" type="line" smooth="yes"/>
      <point x="410" y="287"/>
      <point x="424" y="305"/>
      <point x="424" y="332" type="curve" smooth="yes"/>
      <point x="424" y="353"/>
      <point x="420" y="374"/>
      <point x="404" y="433" type="curve"/>
    </contour>
    <contour>
      <point x="362" y="725" type="curve" smooth="yes"/>
      <point x="275.0" y="725.0"/>
      <point x="240.0" y="697.0"/>
      <point x="240" y="637" type="curve" smooth="yes"/>
      <point x="240.0" y="578.0"/>
      <point x="267.0" y="549.0"/>
      <point x="360" y="549" type="curve" smooth="yes"/>
      <point x="453.0" y="549.0"/>
      <point x="482.0" y="582.0"/>
      <point x="482" y="637" type="curve" smooth="yes"/>
      <point x="482.0" y="696.0"/>
      <point x="452.0" y="725.0"/>
    </contour>
  </outline>
</glyph>
<glyph name="Aring" format="2">
  <advance width="614"/>
  <unicode hex="00C5"/>
  <outline>
    <contour>
      <point x="176" y="126" type="line"/>
      <point x="421" y="126" type="line"/>
      <point x="391" y="239" type="line"/>
      <point x="204" y="239" type="line"/>
    </contour>
    <contour>
      <point x="171" y="0" type="line"/>
      <point x="225" y="189" type="line"/>
      <point x="223" y="189" type="line"/>
      <point x="317" y="553" type="line"/>
      <point x="323" y="587" type="line"/>
      <point x="207" y="623" type="line"/>
      <point x="28" y="0" type="line"/>
    </contour>
    <contour>
      <point x="586" y="0" type="line"/>
      <point x="405" y="625" type="line"/>
      <point x="289" y="587" type="line"/>
      <point x="290" y="551" type="line"/>
      <point x="384" y="185" type="line"/>
      <point x="382" y="184" type="line"/>
      <point x="435" y="0" type="line"/>
    </contour>
    <contour>
      <point x="305" y="545" type="curve" smooth="yes"/>
      <point x="411" y="545"/>
      <point x="477" y="599"/>
      <point x="477" y="681" type="curve" smooth="yes"/>
      <point x="477" y="763"/>
      <point x="412" y="817"/>
      <point x="307" y="817" type="curve" smooth="yes"/>
      <point x="201" y="817"/>
      <point x="135" y="763"/>
      <point x="135" y="680" type="curve" smooth="yes"/>
      <point x="135" y="599"/>
      <point x="200" y="545"/>
    </contour>
    <contour>
      <point x="306" y="622" type="curve" smooth="yes"/>
      <point x="259" y="622"/>
      <point x="233" y="641"/>
      <point x="233" y="679" type="curve" smooth="yes"/>
      <point x="233" y="720"/>
      <point x="256" y="740"/>
      <point x="306" y="740" type="curve" smooth="yes"/>
      <point x="353" y="740"/>
      <point x="379" y="721"/>
      <point x="379" y="682" type="curve" smooth="yes"/>
      <point x="379" y="642"/>
      <point x="356" y="622"/>
    </contour>
  </outline>
</glyph>
<glyph name="AE" format="2">
  <advance width="614"/>
  <unicode hex="00C6"/>
  <outline>
    <contour>
      <point x="123" y="0.0" type="line"/>
      <point x="292" y="626" type="line"/>
      <point x="303" y="655" type="line"/>
      <point x="190" y="655" type="line"/>
      <point x="-1" y="0.0" type="line"/>
    </contour>
    <contour>
      <point x="114" y="142" type="line"/>
      <point x="303" y="142" type="line"/>
      <point x="303" y="245" type="line"/>
      <point x="130" y="245" type="line"/>
    </contour>
    <contour>
      <point x="261" y="543" type="line"/>
      <point x="300" y="543" type="line"/>
      <point x="300" y="655" type="line"/>
      <point x="261" y="655" type="line"/>
    </contour>
    <contour>
      <point x="289" y="655" type="line"/>
      <point x="289" y="0.0" type="line"/>
      <point x="424" y="0.0" type="line"/>
      <point x="424" y="655" type="line"/>
    </contour>
    <contour>
      <point x="295" y="543" type="line"/>
      <point x="574" y="543" type="line"/>
      <point x="574" y="655" type="line"/>
      <point x="295" y="655" type="line"/>
    </contour>
    <contour>
      <point x="295" y="0.0" type="line"/>
      <point x="574" y="0.0" type="line"/>
      <point x="574" y="112" type="line"/>
      <point x="295" y="112" type="line"/>
    </contour>
    <contour>
      <point x="295" y="276" type="line"/>
      <point x="560" y="276" type="line"/>
      <point x="560" y="384" type="line"/>
      <point x="295" y="384" type="line"/>
    </contour>
  </outline>
</glyph>
<glyph name="Ccedilla" format="2">
  <advance width="614"/>
  <unicode hex="00C7"/>
  <outline>
    <contour>
      <point x="335.0" y="-15.0" type="curve" smooth="yes"/>
      <point x="407" y="-15"/>
      <point x="492" y="9"/>
      <point x="581" y="69" type="curve"/>
      <point x="517" y="169" type="line"/>
      <point x="445" y="122"/>
      <point x="394" y="105"/>
      <point x="355" y="105" type="curve" smooth="yes"/>
      <point x="272" y="105"/>
      <point x="197" y="165"/>
      <point x="197" y="328" type="curve" smooth="yes"/>
      <point x="197.0" y="477.0"/>
      <point x="275.0" y="550.0"/>
      <point x="362.0" y="550.0" type="curve" smooth="yes"/>
      <point x="402" y="550"/>
      <point x="438" y="540"/>
      <point x="510" y="489" type="curve"/>
      <point x="573" y="590" type="line"/>
      <point x="492" y="648"/>
      <point x="431" y="670"/>
      <point x="359.0" y="670.0" type="curve" smooth="yes"/>
      <point x="174.0" y="670.0"/>
      <point x="50.0" y="524.0"/>
      <point x="50" y="326" type="curve" smooth="yes"/>
      <point x="50" y="102"/>
      <point x="161" y="-15"/>
    </contour>
    <contour>
      <point x="317" y="16" type="line"/>
      <point x="276" y="-107" type="line"/>
      <point x="282" y="-117" type="line"/>
      <point x="383" y="-122"/>
      <point x="409" y="-132"/>
      <point x="409.0" y="-152.0" type="curve" smooth="yes"/>
      <point x="409" y="-178"/>
      <point x="379" y="-188"/>
      <point x="227" y="-201" type="curve"/>
      <point x="246" y="-270" type="line"/>
      <point x="468" y="-251"/>
      <point x="500" y="-217"/>
      <point x="500.0" y="-150.0" type="curve" smooth="yes"/>
      <point x="500" y="-104"/>
      <point x="468" y="-72"/>
      <point x="338" y="-60" type="curve"/>
      <point x="341" y="-106" type="line"/>
      <point x="379" y="16" type="line"/>
    </contour>
  </outline>
</glyph>
<glyph name="Eth" format="2">
  <advance width="614"/>
  <unicode hex="00D0"/>
  <outline>
    <contour>
      <point x="21" y="292" type="line"/>
      <point x="325" y="292" type="line"/>
      <point x="325" y="368" type="line"/>
      <point x="21" y="368" type="line"/>
    </contour>
    <contour>
      <point x="98" y="655" type="line"/>
      <point x="98" y="0" type="line"/>
      <point x="164" y="0" type="line"/>
      <point x="237" y="32" type="line"/>
      <point x="237" y="603" type="line"/>
      <point x="185" y="655" type="line"/>
    </contour>
    <contour>
      <point x="199" y="655" type="curve" smooth="yes"/>
      <point x="128" y="655" type="line"/>
      <point x="141" y="546" type="line"/>
      <point x="247" y="538" type="line" smooth="yes"/>
      <point x="353" y="530"/>
      <point x="426" y="470"/>
      <point x="426" y="331" type="curve" smooth="yes"/>
      <point x="426" y="189"/>
      <point x="360" y="129"/>
      <point x="230" y="117" type="curve" smooth="yes"/>
      <point x="141" y="109" type="line"/>
      <point x="128" y="0" type="line"/>
      <point x="179" y="0" type="line" smooth="yes"/>
      <point x="457" y="0"/>
      <point x="568" y="139"/>
      <point x="568" y="333" type="curve" smooth="yes"/>
      <point x="568" y="533"/>
      <point x="449" y="655"/>
    </contour>
  </outline>
</glyph>
<glyph name="multiply" format="2">
  <advance width="614"/>
  <unicode hex="00D7"/>
  <outline>
    <contour>
      <point x="46" y="502" type="line"/>
      <point x="267" y="292" type="line"/>
      <point x="478" y="73" type="line"/>
      <point x="568" y="161" type="line"/>
      <point x="347" y="372" type="line"/>
      <point x="136" y="591" type="line"/>
    </contour>
    <contour>
      <point x="134" y="72" type="line"/>
      <point x="347" y="292" type="line"/>
      <point x="568" y="505" type="line"/>
      <point x="480" y="591" type="line"/>
      <point x="267" y="372" type="line"/>
      <point x="46" y="159" type="line"/>
    </contour>
  </outline>
</glyph>
<glyph name="Oslash" format="2">
  <advance width="614"/>
  <unicode hex="00D8"/>
  <outline>
    <contour>
      <point x="564" y="328" type="curve" smooth="yes"/>
      <point x="564.0" y="555.0"/>
      <point x="447.0" y="670.0"/>
      <point x="309" y="670" type="curve" smooth="yes"/>
      <point x="149" y="670"/>
      <point x="50" y="561"/>
      <point x="50" y="326" type="curve" smooth="yes"/>
      <point x="50" y="102.0"/>
      <point x="159.0" y="-15"/>
      <point x="305" y="-15" type="curve" smooth="yes"/>
      <point x="465" y="-15"/>
      <point x="564" y="93"/>
    </contour>
    <contour>
      <point x="197" y="328" type="curve" smooth="yes"/>
      <point x="197" y="502"/>
      <point x="238" y="550"/>
      <point x="307" y="550" type="curve" smooth="yes"/>
      <point x="381.0" y="550.0"/>
      <point x="417.0" y="507.0"/>
      <point x="417" y="326" type="curve" smooth="yes"/>
      <point x="417" y="152"/>
      <point x="376" y="105"/>
      <point x="307" y="105" type="curve" smooth="yes"/>
      <point x="232.0" y="105.0"/>
      <point x="197" y="145.0"/>
    </contour>
    <contour>
      <point x="416" y="607" type="line"/>
      <point x="382" y="542" type="line"/>
      <point x="430" y="489" type="line"/>
      <point x="452" y="530" type="line"/>
      <point x="464" y="530" type="line"/>
      <point x="581" y="726" type="line"/>
      <point x="471" y="726" type="line"/>
      <point x="411" y="607" type="line"/>
    </contour>
    <contour>
      <point x="179" y="163" type="line"/>
      <point x="159" y="125" type="line"/>
      <point x="147" y="125" type="line"/>
      <point x="33" y="-71" type="line"/>
      <point x="141" y="-71" type="line"/>
      <point x="203" y="48" type="line"/>
      <point x="198" y="48" type="line"/>
      <point x="225" y="99" type="line"/>
    </contour>
  </outline>
</glyph>
<glyph name="Thorn" format="2">
  <advance width="614"/>
  <unicode hex="00DE"/>
  <outline>
    <contour>
      <point x="181" y="528" type="line"/>
      <point x="181" y="408" type="line"/>
      <point x="339" y="408" type="line" smooth="yes"/>
      <point x="400" y="408"/>
      <point x="429" y="379"/>
      <point x="429" y="327" type="curve" smooth="yes"/>
      <point x="429" y="274"/>
      <point x="398" y="243"/>
      <point x="334" y="243" type="curve" smooth="yes"/>
      <point x="181" y="243" type="line"/>
      <point x="181" y="126" type="line"/>
      <point x="324" y="126" type="line" smooth="yes"/>
      <point x="476" y="126"/>
      <point x="576" y="202"/>
      <point x="576" y="329" type="curve" smooth="yes"/>
      <point x="576" y="449"/>
      <point x="488" y="528"/>
      <point x="329" y="528" type="curve" smooth="yes"/>
    </contour>
    <contour>
      <point x="78" y="655" type="line"/>
      <point x="78" y="0" type="line"/>
      <point x="223" y="0" type="line"/>
      <point x="223" y="655" type="line"/>
    </contour>
  </outline>
</glyph>
<glyph name="germandbls" format="2">
  <advance width="614"/>
  <unicode hex="00DF"/>
  <outline>
    <contour>
      <point x="536" y="562" type="curve" smooth="yes"/>
      <point x="536" y="656"/>
      <point x="465" y="725"/>
      <point x="323" y="725" type="curve" smooth="yes"/>
      <point x="161" y="725"/>
      <point x="78" y="620"/>
      <point x="78" y="491" type="curve" smooth="yes"/>
      <point x="78" y="0" type="line"/>
      <point x="223" y="0" type="line"/>
      <point x="223" y="491" type="line" smooth="yes"/>
      <point x="223" y="563"/>
      <point x="254" y="605"/>
      <point x="322" y="605" type="curve" smooth="yes"/>
      <point x="367.51724137931035" y="605.0"/>
      <point x="388.0" y="580.0"/>
      <point x="388" y="550" type="curve" smooth="yes"/>
      <point x="388" y="523"/>
      <point x="387" y="494"/>
      <point x="308" y="387" type="curve"/>
      <point x="308" y="329" type="line"/>
      <point x="387" y="301" type="line"/>
      <point x="522" y="465"/>
      <point x="536" y="507"/>
    </contour>
    <contour>
      <point x="415" y="169" type="curve" smooth="yes"/>
      <point x="415" y="142"/>
      <point x="400" y="127"/>
      <point x="368" y="125" type="curve" smooth="yes"/>
      <point x="314" y="122" type="line"/>
      <point x="322" y="-3" type="line"/>
      <point x="380" y="0" type="line" smooth="yes"/>
      <point x="516" y="7"/>
      <point x="565" y="56"/>
      <point x="565" y="153" type="curve" smooth="yes"/>
      <point x="565" y="211"/>
      <point x="549" y="263"/>
      <point x="396" y="402" type="curve"/>
      <point x="308" y="377" type="line"/>
      <point x="308" y="324" type="line"/>
      <point x="403" y="222"/>
      <point x="415" y="195"/>
    </contour>
  </outline>
</glyph>
<glyph name="ae" format="2">
  <advance width="614"/>
  <unicode hex="00E6"/>
  <outline>
    <contour>
      <point x="178" y="94" type="curve" smooth="yes"/>
      <point x="158" y="94"/>
      <point x="147" y="114"/>
      <point x="147" y="141" type="curve" smooth="yes"/>
      <point x="147" y="172"/>
      <point x="158" y="190"/>
      <point x="199" y="203" type="curve" smooth="yes"/>
      <point x="248" y="218" type="line"/>
      <point x="248" y="302" type="line"/>
      <point x="160" y="285" type="line" smooth="yes"/>
      <point x="46" y="263"/>
      <point x="11" y="218"/>
      <point x="11" y="131" type="curve" smooth="yes"/>
      <point x="11" y="39"/>
      <point x="56" y="-11"/>
      <point x="120" y="-11" type="curve" smooth="yes"/>
      <point x="169" y="-11"/>
      <point x="210" y="13"/>
      <point x="254" y="57" type="curve"/>
      <point x="300" y="57" type="line"/>
      <point x="251" y="131" type="line"/>
      <point x="212" y="103"/>
      <point x="195" y="94"/>
    </contour>
    <contour>
      <point x="347" y="149" type="line"/>
      <point x="347" y="327" type="line" smooth="yes"/>
      <point x="347.0" y="435.0"/>
      <point x="299.0" y="490.0"/>
      <point x="195" y="490.0" type="curve" smooth="yes"/>
      <point x="155" y="490"/>
      <point x="105" y="485"/>
      <point x="57" y="477" type="curve"/>
      <point x="69" y="369" type="line"/>
      <point x="120" y="378"/>
      <point x="148" y="381"/>
      <point x="170" y="381" type="curve" smooth="yes"/>
      <point x="220.0" y="381.0"/>
      <point x="234" y="368.0"/>
      <point x="234" y="324" type="curve" smooth="yes"/>
      <point x="234" y="229" type="line"/>
    </contour>
    <contour>
      <point x="234" y="235" type="line"/>
      <point x="234" y="75"/>
      <point x="288" y="-7"/>
      <point x="440" y="-11" type="curve" smooth="yes"/>
      <point x="515" y="-13" type="line"/>
      <point x="520" y="93" type="line"/>
      <point x="474" y="96" type="line" smooth="yes"/>
      <point x="384" y="102"/>
      <point x="360" y="132"/>
      <point x="360" y="245" type="curve" smooth="yes"/>
      <point x="360" y="337"/>
      <point x="388" y="386"/>
      <point x="426" y="386.0" type="curve" smooth="yes"/>
      <point x="458" y="386"/>
      <point x="475" y="343"/>
      <point x="475" y="278" type="curve"/>
      <point x="543" y="289" type="line"/>
      <point x="326" y="289" type="line"/>
      <point x="326" y="192" type="line"/>
      <point x="596" y="192" type="line"/>
      <point x="599" y="207"/>
      <point x="602" y="229"/>
      <point x="602" y="254" type="curve" smooth="yes"/>
      <point x="602" y="393"/>
      <point x="538" y="490"/>
      <point x="437" y="490" type="curve" smooth="yes"/>
      <point x="333" y="490"/>
      <point x="254" y="366"/>
      <point x="254" y="235" type="curve"/>
    </contour>
  </outline>
</glyph>
<glyph name="ccedilla" format="2">
  <advance width="614"/>
  <unicode hex="00E7"/>
  <outline>
    <contour>
      <point x="337" y="368" type="curve" smooth="yes"/>
      <point x="377" y="368"/>
      <point x="414" y="363"/>
      <point x="490" y="312" type="curve"/>
      <point x="557" y="415" type="line"/>
      <point x="459" y="479"/>
      <point x="397" y="490"/>
      <point x="330" y="490" type="curve" smooth="yes"/>
      <point x="172" y="490"/>
      <point x="55" y="376"/>
      <point x="55" y="238" type="curve" smooth="yes"/>
      <point x="55" y="85"/>
      <point x="158" y="-14"/>
      <point x="315" y="-14" type="curve" smooth="yes"/>
      <point x="397" y="-14"/>
      <point x="464" y="3"/>
      <point x="562" y="63" type="curve"/>
      <point x="497" y="161" type="line"/>
      <point x="417" y="117"/>
      <point x="376" y="108"/>
      <point x="329" y="108" type="curve" smooth="yes"/>
      <point x="261" y="108"/>
      <point x="207" y="155"/>
      <point x="207" y="239" type="curve" smooth="yes"/>
      <point x="207" y="315"/>
      <point x="260" y="368"/>
    </contour>
    <contour>
      <point x="274" y="16" type="line"/>
      <point x="233" y="-107" type="line"/>
      <point x="239" y="-117" type="line"/>
      <point x="340" y="-122"/>
      <point x="366" y="-132"/>
      <point x="366.0" y="-152.0" type="curve" smooth="yes"/>
      <point x="366" y="-178"/>
      <point x="336" y="-188"/>
      <point x="184" y="-201" type="curve"/>
      <point x="203" y="-270" type="line"/>
      <point x="425" y="-251"/>
      <point x="457" y="-217"/>
      <point x="457.0" y="-150.0" type="curve" smooth="yes"/>
      <point x="457" y="-104"/>
      <point x="425" y="-72"/>
      <point x="295" y="-60" type="curve"/>
      <point x="298" y="-106" type="line"/>
      <point x="336" y="16" type="line"/>
    </contour>
  </outline>
</glyph>
<glyph name="eth" format="2">
  <advance width="614"/>
  <unicode hex="00F0"/>
  <outline>
    <contour>
      <point x="362" y="767" type="line"/>
      <point x="253" y="632" type="line"/>
      <point x="265" y="624" type="line"/>
      <point x="158" y="503" type="line"/>
      <point x="216" y="457" type="line"/>
      <point x="327" y="594" type="line"/>
      <point x="315" y="602" type="line"/>
      <point x="424" y="720" type="line"/>
    </contour>
    <contour>
      <point x="422" y="317" type="line"/>
      <point x="422" y="162"/>
      <point x="365" y="105"/>
      <point x="296" y="105" type="curve" smooth="yes"/>
      <point x="239" y="105"/>
      <point x="197" y="144"/>
      <point x="197" y="211" type="curve" smooth="yes"/>
      <point x="197" y="267"/>
      <point x="233" y="316"/>
      <point x="312" y="316" type="curve" smooth="yes"/>
      <point x="351" y="316"/>
      <point x="386" y="311"/>
      <point x="457" y="272" type="curve"/>
      <point x="498" y="345" type="line"/>
      <point x="409" y="414"/>
      <point x="344" y="421"/>
      <point x="283" y="421" type="curve" smooth="yes"/>
      <point x="147" y="421"/>
      <point x="47" y="321"/>
      <point x="47" y="210" type="curve" smooth="yes"/>
      <point x="47" y="76"/>
      <point x="149" y="-15"/>
      <point x="287" y="-15" type="curve" smooth="yes"/>
      <point x="459" y="-15"/>
      <point x="567" y="113"/>
      <point x="567" y="317" type="curve" smooth="yes"/>
      <point x="567" y="432"/>
      <point x="525" y="573"/>
      <point x="346" y="665" type="curve"/>
      <point x="344" y="662" type="line"/>
      <point x="294" y="689"/>
      <point x="231" y="712"/>
      <point x="169" y="725" type="curve"/>
      <point x="130" y="605" type="line"/>
      <point x="181" y="593"/>
      <point x="224" y="580"/>
      <point x="267" y="556" type="curve"/>
      <point x="269" y="559" type="line"/>
      <point x="373" y="514"/>
      <point x="421" y="462"/>
      <point x="427" y="317" type="curve"/>
    </contour>
  </outline>
</glyph>
<glyph name="divide" format="2">
  <advance width="614"/>
  <unicode hex="00F7"/>
  <outline>
    <contour>
      <point x="62" y="272" type="line"/>
      <point x="551" y="272" type="line"/>
      <point x="551" y="388" type="line"/>
      <point x="62" y="388" type="line"/>
    </contour>
    <contour>
      <point x="307.0" y="22" type="curve" smooth="yes"/>
      <point x="375" y="22"/>
      <point x="412" y="45"/>
      <point x="412.0" y="99" type="curve" smooth="yes"/>
      <point x="412" y="152"/>
      <point x="380" y="178"/>
      <point x="308.0" y="178" type="curve" smooth="yes"/>
      <point x="239" y="178"/>
      <point x="204" y="148"/>
      <point x="204.0" y="99" type="curve" smooth="yes"/>
      <point x="204" y="45"/>
      <point x="238" y="22"/>
    </contour>
    <contour>
      <point x="307.0" y="484" type="curve" smooth="yes"/>
      <point x="375" y="484"/>
      <point x="412" y="508"/>
      <point x="412.0" y="562" type="curve" smooth="yes"/>
      <point x="412" y="615"/>
      <point x="380" y="641"/>
      <point x="308.0" y="641" type="curve" smooth="yes"/>
      <point x="239" y="641"/>
      <point x="204" y="611"/>
      <point x="204.0" y="562" type="curve" smooth="yes"/>
      <point x="204" y="508"/>
      <point x="238" y="484"/>
    </contour>
  </outline>
</glyph>
<glyph name="oslash" format="2">
  <advance width="614"/>
  <unicode hex="00F8"/>
  <outline>
    <contour>
      <point x="567" y="239" type="curve" smooth="yes"/>
      <point x="567.0" y="374.0"/>
      <point x="441" y="492"/>
      <point x="309" y="492" type="curve" smooth="yes"/>
      <point x="155" y="492"/>
      <point x="47" y="384"/>
      <point x="47" y="238" type="curve" smooth="yes"/>
      <point x="47" y="103.0"/>
      <point x="173" y="-15"/>
      <point x="305" y="-15" type="curve" smooth="yes"/>
      <point x="459" y="-15"/>
      <point x="567" y="93"/>
    </contour>
    <contour>
      <point x="197" y="239" type="curve" smooth="yes"/>
      <point x="197.0" y="332.0"/>
      <point x="241" y="372"/>
      <point x="307" y="372" type="curve" smooth="yes"/>
      <point x="381" y="372"/>
      <point x="417" y="333"/>
      <point x="417" y="238" type="curve" smooth="yes"/>
      <point x="417.0" y="145.0"/>
      <point x="373" y="105"/>
      <point x="307" y="105" type="curve" smooth="yes"/>
      <point x="233" y="105"/>
      <point x="197" y="144"/>
    </contour>
    <contour>
      <point x="384" y="411" type="line"/>
      <point x="364" y="383" type="line"/>
      <point x="424" y="341" type="line"/>
      <point x="455" y="385" type="line"/>
      <point x="471" y="385" type="line"/>
      <point x="593" y="548" type="line"/>
      <point x="461" y="548" type="line"/>
      <point x="378" y="411" type="line"/>
    </contour>
    <contour>
      <point x="179" y="119" type="line"/>
      <point x="146" y="73" type="line"/>
      <point x="131" y="73" type="line"/>
      <point x="21" y="-71" type="line"/>
      <point x="152" y="-71" type="line"/>
      <point x="225" y="49" type="line"/>
      <point x="219" y="49" type="line"/>
      <point x="243" y="84" type="line"/>
    </contour>
  </outline>
</glyph>
<glyph name="Aogonek" format="2">
  <advance width="614"/>
  <unicode hex="0104"/>
  <outline>
    <contour>
      <point x="176" y="126" type="line"/>
      <point x="421" y="126" type="line"/>
      <point x="391" y="239" type="line"/>
      <point x="204" y="239" type="line"/>
    </contour>
    <contour>
      <point x="171" y="0" type="line"/>
      <point x="225" y="189" type="line"/>
      <point x="223" y="189" type="line"/>
      <point x="317" y="553" type="line"/>
      <point x="327" y="655" type="line"/>
      <point x="216" y="655" type="line"/>
      <point x="28" y="0" type="line"/>
    </contour>
    <contour>
      <point x="586" y="0" type="line"/>
      <point x="396" y="655" type="line"/>
      <point x="293" y="655" type="line"/>
      <point x="290" y="551" type="line"/>
      <point x="384" y="185" type="line"/>
      <point x="382" y="184" type="line"/>
      <point x="435" y="0" type="line"/>
    </contour>
    <contour>
      <point x="366" y="-158" type="curve" smooth="yes"/>
      <point x="366" y="-203"/>
      <point x="395" y="-227"/>
      <point x="459" y="-230" type="curve" smooth="yes"/>
      <point x="556" y="-234" type="line"/>
      <point x="566" y="-141" type="line"/>
      <point x="511" y="-137" type="line" smooth="yes"/>
      <point x="478" y="-135"/>
      <point x="470" y="-126"/>
      <point x="470" y="-106" type="curve" smooth="yes"/>
      <point x="470" y="-95"/>
      <point x="472" y="-78"/>
      <point x="532" y="7" type="curve"/>
      <point x="472" y="13" type="line"/>
      <point x="390" y="-80"/>
      <point x="366" y="-125"/>
    </contour>
  </outline>
</glyph>
<glyph name="aogonek" format="2">
  <advance width="614"/>
  <unicode hex="0105"/>
  <outline>
    <contour>
      <point x="235" y="94" type="curve" smooth="yes"/>
      <point x="201" y="94"/>
      <point x="184" y="113"/>
      <point x="184" y="141" type="curve" smooth="yes"/>
      <point x="184" y="174"/>
      <point x="198" y="192"/>
      <point x="255" y="200" type="curve" smooth="yes"/>
      <point x="396" y="219" type="line"/>
      <point x="396" y="302" type="line"/>
      <point x="217" y="285" type="line" smooth="yes"/>
      <point x="83" y="271"/>
      <point x="44" y="224"/>
      <point x="44" y="131" type="curve" smooth="yes"/>
      <point x="44" y="38"/>
      <point x="104" y="-11"/>
      <point x="191" y="-11" type="curve" smooth="yes"/>
      <point x="265" y="-11"/>
      <point x="329" y="12"/>
      <point x="378" y="51" type="curve"/>
      <point x="390" y="51" type="line"/>
      <point x="390" y="159" type="line"/>
      <point x="317" y="106"/>
      <point x="270" y="94"/>
    </contour>
    <contour>
      <point x="519" y="149" type="curve" smooth="yes"/>
      <point x="519" y="327" type="line" smooth="yes"/>
      <point x="519" y="439"/>
      <point x="460" y="490"/>
      <point x="292" y="490" type="curve" smooth="yes"/>
      <point x="255" y="490"/>
      <point x="189" y="487"/>
      <point x="94" y="475" type="curve"/>
      <point x="107" y="361" type="line"/>
      <point x="192" y="372"/>
      <point x="253" y="377"/>
      <point x="285" y="377" type="curve" smooth="yes"/>
      <point x="367" y="377"/>
      <point x="382" y="361"/>
      <point x="382" y="324" type="curve" smooth="yes"/>
      <point x="382" y="90" type="line"/>
      <point x="390" y="51" type="line"/>
      <point x="406" y="19"/>
      <point x="439" y="3"/>
      <point x="501" y="-1" type="curve" smooth="yes"/>
      <point x="582" y="-6" type="line"/>
      <point x="594" y="101" type="line"/>
      <point x="549" y="105" type="line" smooth="yes"/>
      <point x="524" y="107"/>
      <point x="519" y="116"/>
    </contour>
    <contour>
      <point x="341" y="-158" type="curve" smooth="yes"/>
      <point x="341" y="-203"/>
      <point x="370" y="-227"/>
      <point x="434" y="-230" type="curve" smooth="yes"/>
      <point x="531" y="-234" type="line"/>
      <point x="541" y="-141" type="line"/>
      <point x="486" y="-137" type="line" smooth="yes"/>
      <point x="453" y="-135"/>
      <point x="445" y="-126"/>
      <point x="445" y="-106" type="curve" smooth="yes"/>
      <point x="445" y="-95"/>
      <point x="447" y="-78"/>
      <point x="507" y="7" type="curve"/>
      <point x="447" y="13" type="line"/>
      <point x="365" y="-80"/>
      <point x="341" y="-125"/>
    </contour>
  </outline>
</glyph>
<glyph name="dcroat" format="2">
  <advance width="614"/>
  <unicode hex="0111"/>
  <anchor x="331" y="-30" name="below"/>
  <outline>
    <contour>
      <point x="252" y="516" type="line"/>
      <point x="602" y="516" type="line"/>
      <point x="602" y="592" type="line"/>
      <point x="252" y="592" type="line"/>
    </contour>
    <contour>
      <point x="399" y="0" type="line"/>
      <point x="525" y="0" type="line"/>
      <point x="525" y="710" type="line"/>
      <point x="380" y="710" type="line"/>
      <point x="380" y="91" type="line"/>
      <point x="385" y="91" type="line"/>
    </contour>
    <contour>
      <point x="242" y="-11" type="curve" smooth="yes"/>
      <point x="303" y="-11"/>
      <point x="354" y="13"/>
      <point x="402" y="70" type="curve"/>
      <point x="397" y="152" type="line"/>
      <point x="356" y="120"/>
      <point x="327" y="108"/>
      <point x="294" y="108" type="curve" smooth="yes"/>
      <point x="233" y="108"/>
      <point x="194" y="146"/>
      <point x="194" y="213" type="curve" smooth="yes"/>
      <point x="194" y="277"/>
      <point x="235" y="320"/>
      <point x="302" y="320" type="curve" smooth="yes"/>
      <point x="337" y="320"/>
      <point x="366" y="309"/>
      <point x="416" y="275" type="curve"/>
      <point x="457" y="343" type="line"/>
      <point x="391" y="407"/>
      <point x="348" y="427"/>
      <point x="279" y="427" type="curve" smooth="yes"/>
      <point x="143" y="427"/>
      <point x="44" y="334"/>
      <point x="44" y="202" type="curve" smooth="yes"/>
      <point x="44" y="64"/>
      <point x="131" y="-11"/>
    </contour>
  </outline>
</glyph>
<glyph name="Eogonek" format="2">
  <advance width="614"/>
  <unicode hex="0118"/>
  <outline>
    <contour>
      <point x="87" y="655" type="line"/>
      <point x="87" y="0" type="line"/>
      <point x="232" y="0" type="line"/>
      <point x="232" y="655" type="line"/>
    </contour>
    <contour>
      <point x="98" y="535" type="line"/>
      <point x="541" y="535" type="line"/>
      <point x="541" y="655" type="line"/>
      <point x="98" y="655" type="line"/>
    </contour>
    <contour>
      <point x="98" y="0" type="line"/>
      <point x="542" y="0" type="line"/>
      <point x="542" y="120" type="line"/>
      <point x="98" y="120" type="line"/>
    </contour>
    <contour>
      <point x="98" y="270" type="line"/>
      <point x="509" y="270" type="line"/>
      <point x="509" y="390" type="line"/>
      <point x="98" y="390" type="line"/>
    </contour>
    <contour>
      <point x="346" y="-158" type="curve" smooth="yes"/>
      <point x="346" y="-203"/>
      <point x="375" y="-227"/>
      <point x="439" y="-230" type="curve" smooth="yes"/>
      <point x="536" y="-234" type="line"/>
      <point x="546" y="-141" type="line"/>
      <point x="491" y="-137" type="line" smooth="yes"/>
      <point x="458" y="-135"/>
      <point x="450" y="-126"/>
      <point x="450" y="-106" type="curve" smooth="yes"/>
      <point x="450" y="-95"/>
      <point x="452" y="-78"/>
      <point x="512" y="7" type="curve"/>
      <point x="452" y="13" type="line"/>
      <point x="370" y="-80"/>
      <point x="346" y="-125"/>
    </contour>
  </outline>
</glyph>
<glyph name="eogonek" format="2">
  <advance width="614"/>
  <unicode hex="0119"/>
  <anchor x="312" y="478" name="aboveLCx"/>
  <anchor x="312" y="510" name="aboveLC"/>
  <outline>
    <contour>
      <point x="303" y="-158" type="curve" smooth="yes"/>
      <point x="303" y="-203"/>
      <point x="332" y="-227"/>
      <point x="396" y="-230" type="curve" smooth="yes"/>
      <point x="493" y="-234" type="line"/>
      <point x="503" y="-141" type="line"/>
      <point x="448" y="-137" type="line" smooth="yes"/>
      <point x="415" y="-135"/>
      <point x="407" y="-126"/>
      <point x="407" y="-106" type="curve" smooth="yes"/>
      <point x="407" y="-96"/>
      <point x="409" y="-82"/>
      <point x="456" y="-13" type="curve"/>
      <point x="444" y="7" type="line"/>
      <point x="404" y="7" type="line"/>
      <point x="322" y="-86"/>
      <point x="303" y="-125"/>
    </contour>
    <contour>
      <point x="383" y="100" type="line" smooth="yes"/>
      <point x="233" y="106"/>
      <point x="195.0" y="136.0"/>
      <point x="195" y="245" type="curve" smooth="yes"/>
      <point x="195" y="335"/>
      <point x="242" y="384"/>
      <point x="316" y="384" type="curve" smooth="yes"/>
      <point x="380" y="384"/>
      <point x="419" y="342"/>
      <point x="419" y="278" type="curve"/>
      <point x="494" y="289" type="line"/>
      <point x="153" y="289" type="line"/>
      <point x="153" y="192" type="line"/>
      <point x="551" y="192" type="line"/>
      <point x="554" y="207"/>
      <point x="557" y="229"/>
      <point x="557" y="254" type="curve" smooth="yes"/>
      <point x="557" y="394"/>
      <point x="462" y="492"/>
      <point x="315" y="492" type="curve" smooth="yes"/>
      <point x="155" y="492"/>
      <point x="57" y="375"/>
      <point x="57" y="235" type="curve" smooth="yes"/>
      <point x="57.0" y="78.0"/>
      <point x="133" y="-8"/>
      <point x="335" y="-11" type="curve" smooth="yes"/>
      <point x="456" y="-13" type="line"/>
      <point x="461" y="97" type="line"/>
    </contour>
  </outline>
</glyph>
<glyph name="Hbar" format="2">
  <advance width="614"/>
  <unicode hex="0126"/>
  <outline>
    <contour>
      <point x="21" y="463" type="line"/>
      <point x="163" y="463" type="line"/>
      <point x="164" y="468" type="line"/>
      <point x="450" y="468" type="line"/>
      <point x="451" y="463" type="line"/>
      <point x="593" y="463" type="line"/>
      <point x="593" y="536" type="line"/>
      <point x="448" y="536" type="line"/>
      <point x="448" y="531" type="line"/>
      <point x="162" y="531" type="line"/>
      <point x="161" y="536" type="line"/>
      <point x="21" y="536" type="line"/>
    </contour>
    <contour>
      <point x="98" y="655" type="line"/>
      <point x="98" y="0" type="line"/>
      <point x="237" y="0" type="line"/>
      <point x="237" y="655" type="line"/>
    </contour>
    <contour>
      <point x="377" y="655" type="line"/>
      <point x="377" y="0" type="line"/>
      <point x="516" y="0" type="line"/>
      <point x="516" y="655" type="line"/>
    </contour>
    <contour>
      <point x="154" y="225" type="line"/>
      <point x="459" y="225" type="line"/>
      <point x="459" y="335" type="line"/>
      <point x="154" y="335" type="line"/>
    </contour>
  </outline>
</glyph>
<glyph name="hbar" format="2">
  <advance width="614"/>
  <unicode hex="0127"/>
  <outline>
    <contour>
      <point x="234" y="710" type="line"/>
      <point x="89" y="710" type="line"/>
      <point x="89" y="0" type="line"/>
      <point x="234" y="0" type="line"/>
    </contour>
    <contour>
      <point x="362" y="516" type="line"/>
      <point x="362" y="592" type="line"/>
      <point x="12" y="592" type="line"/>
      <point x="12" y="516" type="line"/>
    </contour>
    <contour>
      <point x="218" y="206" type="line"/>
      <point x="281" y="261"/>
      <point x="319" y="291"/>
      <point x="349" y="291" type="curve" smooth="yes"/>
      <point x="383" y="291"/>
      <point x="396" y="274"/>
      <point x="396" y="240" type="curve" smooth="yes"/>
      <point x="396" y="0" type="line"/>
      <point x="541" y="0" type="line"/>
      <point x="541" y="267" type="line" smooth="yes"/>
      <point x="541" y="374"/>
      <point x="499" y="428"/>
      <point x="404" y="428" type="curve" smooth="yes"/>
      <point x="342" y="428"/>
      <point x="289" y="395"/>
      <point x="198" y="314" type="curve"/>
    </contour>
  </outline>
</glyph>
<glyph name="Iogonek" format="2">
  <advance width="614"/>
  <unicode hex="012E"/>
  <outline>
    <contour>
      <point x="236" y="655" type="line"/>
      <point x="236" y="0" type="line"/>
      <point x="380" y="0" type="line"/>
      <point x="380" y="655" type="line"/>
    </contour>
    <contour>
      <point x="113" y="575" type="line"/>
      <point x="309" y="535" type="line"/>
      <point x="501" y="575" type="line"/>
      <point x="501" y="655" type="line"/>
      <point x="113" y="655" type="line"/>
    </contour>
    <contour>
      <point x="113" y="80" type="line"/>
      <point x="113" y="0" type="line"/>
      <point x="501" y="0" type="line"/>
      <point x="501" y="80" type="line"/>
      <point x="309" y="120" type="line"/>
    </contour>
    <contour>
      <point x="186" y="-158" type="curve" smooth="yes"/>
      <point x="186" y="-203"/>
      <point x="215" y="-227"/>
      <point x="279" y="-230" type="curve" smooth="yes"/>
      <point x="376" y="-234" type="line"/>
      <point x="386" y="-141" type="line"/>
      <point x="331" y="-137" type="line" smooth="yes"/>
      <point x="298" y="-135"/>
      <point x="290" y="-126"/>
      <point x="290" y="-106" type="curve" smooth="yes"/>
      <point x="290" y="-95"/>
      <point x="292" y="-78"/>
      <point x="352" y="7" type="curve"/>
      <point x="292" y="13" type="line"/>
      <point x="210" y="-80"/>
      <point x="186" y="-125"/>
    </contour>
  </outline>
</glyph>
<glyph name="iogonek" format="2">
  <advance width="614"/>
  <unicode hex="012F"/>
  <outline>
    <contour>
      <point x="249" y="477" type="line"/>
      <point x="249" y="0" type="line"/>
      <point x="394" y="0" type="line"/>
      <point x="394" y="477" type="line"/>
    </contour>
    <contour>
      <point x="113" y="477" type="line"/>
      <point x="113" y="355" type="line"/>
      <point x="326" y="355" type="line"/>
      <point x="326" y="477" type="line"/>
    </contour>
    <contour>
      <point x="93" y="122" type="line"/>
      <point x="93" y="0" type="line"/>
      <point x="552" y="0" type="line"/>
      <point x="552" y="122" type="line"/>
    </contour>
    <contour>
      <point x="319" y="578" type="curve" smooth="yes"/>
      <point x="383" y="578"/>
      <point x="424" y="609"/>
      <point x="424" y="664" type="curve" smooth="yes"/>
      <point x="424" y="721"/>
      <point x="387" y="751"/>
      <point x="320" y="751" type="curve" smooth="yes"/>
      <point x="255" y="751"/>
      <point x="216" y="715"/>
      <point x="216" y="664" type="curve" smooth="yes"/>
      <point x="216" y="608"/>
      <point x="254" y="578"/>
    </contour>
    <contour>
      <point x="201" y="-158" type="curve" smooth="yes"/>
      <point x="201" y="-203"/>
      <point x="230" y="-227"/>
      <point x="294" y="-230" type="curve" smooth="yes"/>
      <point x="391" y="-234" type="line"/>
      <point x="401" y="-141" type="line"/>
      <point x="346" y="-137" type="line" smooth="yes"/>
      <point x="313" y="-135"/>
      <point x="305" y="-126"/>
      <point x="305" y="-106" type="curve" smooth="yes"/>
      <point x="305" y="-95"/>
      <point x="307" y="-78"/>
      <point x="367" y="7" type="curve"/>
      <point x="307" y="13" type="line"/>
      <point x="225" y="-80"/>
      <point x="201" y="-125"/>
    </contour>
  </outline>
</glyph>
<glyph name="dotlessi" format="2">
  <advance width="614"/>
  <unicode hex="0131"/>
  <anchor x="322" y="-35" name="below"/>
  <anchor x="321" y="502" name="aboveLC"/>
  <anchor x="322" y="-9" name="belowogonek"/>
  <outline>
    <contour>
      <point x="249" y="477" type="line"/>
      <point x="249" y="0" type="line"/>
      <point x="394" y="0" type="line"/>
      <point x="394" y="477" type="line"/>
    </contour>
    <contour>
      <point x="113" y="477" type="line"/>
      <point x="113" y="355" type="line"/>
      <point x="322" y="355" type="line"/>
      <point x="322" y="477" type="line"/>
    </contour>
    <contour>
      <point x="93" y="122" type="line"/>
      <point x="93" y="0" type="line"/>
      <point x="552" y="0" type="line"/>
      <point x="552" y="122" type="line"/>
    </contour>
  </outline>
</glyph>
<glyph name="Lslash" format="2">
  <advance width="614"/>
  <unicode hex="0141"/>
  <outline>
    <contour>
      <point x="31.0" y="186.0" type="line"/>
      <point x="190.0" y="298.0" type="line"/>
      <point x="190.0" y="286.0" type="line"/>
      <point x="431.0" y="457.0" type="line"/>
      <point x="431.0" y="550.0" type="line"/>
      <point x="187.0" y="377.0" type="line"/>
      <point x="187.0" y="389.0" type="line"/>
      <point x="31.0" y="279.0" type="line"/>
    </contour>
    <contour>
      <point x="108" y="655" type="line"/>
      <point x="108" y="0" type="line"/>
      <point x="253" y="0" type="line"/>
      <point x="253" y="655" type="line"/>
    </contour>
    <contour>
      <point x="152" y="0" type="line"/>
      <point x="553" y="0" type="line"/>
      <point x="553" y="119" type="line"/>
      <point x="152" y="119" type="line"/>
    </contour>
  </outline>
</glyph>
<glyph name="lslash" format="2">
  <advance width="614"/>
  <unicode hex="0142"/>
  <outline>
    <contour>
      <point x="282" y="300" type="line"/>
      <point x="529" y="459" type="line"/>
      <point x="529" y="562" type="line"/>
      <point x="282" y="403" type="line"/>
    </contour>
    <contour>
      <point x="78" y="189" type="line"/>
      <point x="282" y="320" type="line"/>
      <point x="282" y="423" type="line"/>
      <point x="78" y="292" type="line"/>
    </contour>
    <contour>
      <point x="56" y="710" type="line"/>
      <point x="56" y="588" type="line"/>
      <point x="282" y="588" type="line"/>
      <point x="282" y="710" type="line"/>
    </contour>
    <contour>
      <point x="215" y="204" type="line" smooth="yes"/>
      <point x="215" y="53"/>
      <point x="264" y="7"/>
      <point x="415" y="0" type="curve" smooth="yes"/>
      <point x="546" y="-6" type="line"/>
      <point x="551" y="118" type="line"/>
      <point x="442" y="124" type="line" smooth="yes"/>
      <point x="380" y="127"/>
      <point x="359" y="150"/>
      <point x="359" y="214" type="curve" smooth="yes"/>
      <point x="359" y="710" type="line"/>
      <point x="215" y="710" type="line"/>
    </contour>
  </outline>
</glyph>
<glyph name="Eng" format="2">
  <advance width="614"/>
  <unicode hex="014A"/>
  <outline>
    <contour>
      <point x="119" y="571" type="line"/>
      <point x="425" y="-46" type="line"/>
      <point x="497" y="0" type="line"/>
      <point x="497" y="82" type="line"/>
      <point x="213" y="655" type="line"/>
      <point x="119" y="655" type="line"/>
    </contour>
    <contour>
      <point x="206" y="0" type="line"/>
      <point x="197" y="655" type="line"/>
      <point x="74" y="655" type="line"/>
      <point x="74" y="0" type="line"/>
    </contour>
    <contour>
      <point x="416" y="-7" type="line" smooth="yes"/>
      <point x="416.0" y="-86"/>
      <point x="372" y="-114"/>
      <point x="301" y="-119" type="curve" smooth="yes"/>
      <point x="193" y="-127" type="line"/>
      <point x="198" y="-236" type="line"/>
      <point x="312" y="-230" type="line" smooth="yes"/>
      <point x="479" y="-221"/>
      <point x="540" y="-167"/>
      <point x="540" y="6" type="curve" smooth="yes"/>
      <point x="540" y="655" type="line"/>
      <point x="408" y="655" type="line"/>
      <point x="416" y="-4" type="line"/>
    </contour>
  </outline>
</glyph>
<glyph name="eng" format="2">
  <advance width="614"/>
  <unicode hex="014B"/>
  <outline>
    <contour>
      <point x="541" y="-14" type="curve" smooth="yes"/>
      <point x="541" y="327" type="line" smooth="yes"/>
      <point x="541" y="434"/>
      <point x="499" y="488"/>
      <point x="404" y="488" type="curve" smooth="yes"/>
      <point x="339" y="488"/>
      <point x="280" y="457"/>
      <point x="187" y="374" type="curve"/>
      <point x="207" y="266" type="line"/>
      <point x="273" y="323"/>
      <point x="317" y="351"/>
      <point x="349" y="351" type="curve" smooth="yes"/>
      <point x="383" y="351"/>
      <point x="396" y="334"/>
      <point x="396" y="300" type="curve" smooth="yes"/>
      <point x="396" y="-27" type="line" smooth="yes"/>
      <point x="396" y="-80"/>
      <point x="378" y="-100"/>
      <point x="322" y="-104" type="curve" smooth="yes"/>
      <point x="214" y="-112" type="line"/>
      <point x="219" y="-236" type="line"/>
      <point x="333" y="-230" type="line" smooth="yes"/>
      <point x="487" y="-222"/>
      <point x="541" y="-177"/>
    </contour>
    <contour>
      <point x="204" y="477" type="line"/>
      <point x="78" y="477" type="line"/>
      <point x="78" y="0" type="line"/>
      <point x="223" y="0" type="line"/>
      <point x="223" y="333" type="line"/>
      <point x="218" y="333" type="line"/>
    </contour>
  </outline>
</glyph>
<glyph name="OE" format="2">
  <advance width="614"/>
  <unicode hex="0152"/>
  <outline>
    <contour>
      <point x="424" y="0" type="line"/>
      <point x="424" y="655" type="line"/>
      <point x="343" y="655" type="line"/>
      <point x="289" y="603" type="line"/>
      <point x="289" y="57" type="line"/>
      <point x="332" y="0" type="line"/>
    </contour>
    <contour>
      <point x="306" y="0" type="curve" smooth="yes"/>
      <point x="377" y="0" type="line"/>
      <point x="364" y="104" type="line"/>
      <point x="258" y="112" type="line" smooth="yes"/>
      <point x="200" y="116"/>
      <point x="164" y="178"/>
      <point x="164" y="324" type="curve" smooth="yes"/>
      <point x="164" y="472"/>
      <point x="199" y="536"/>
      <point x="275" y="543" type="curve" smooth="yes"/>
      <point x="364" y="551" type="line"/>
      <point x="377" y="655" type="line"/>
      <point x="326" y="655" type="line" smooth="yes"/>
      <point x="112" y="655"/>
      <point x="27" y="516"/>
      <point x="27" y="322" type="curve" smooth="yes"/>
      <point x="27" y="122"/>
      <point x="117" y="0"/>
    </contour>
    <contour>
      <point x="361" y="543" type="line"/>
      <point x="574" y="543" type="line"/>
      <point x="574" y="655" type="line"/>
      <point x="361" y="655" type="line"/>
    </contour>
    <contour>
      <point x="361" y="0.0" type="line"/>
      <point x="574" y="0.0" type="line"/>
      <point x="574" y="112" type="line"/>
      <point x="361" y="112" type="line"/>
    </contour>
    <contour>
      <point x="295" y="276" type="line"/>
      <point x="560" y="276" type="line"/>
      <point x="560" y="384" type="line"/>
      <point x="295" y="384" type="line"/>
    </contour>
  </outline>
</glyph>
<glyph name="oe" format="2">
  <advance width="614"/>
  <unicode hex="0153"/>
  <outline>
    <contour>
      <point x="193" y="-13" type="curve" smooth="yes"/>
      <point x="281" y="-13"/>
      <point x="344" y="93"/>
      <point x="344" y="239" type="curve" smooth="yes"/>
      <point x="344" y="388"/>
      <point x="282" y="490"/>
      <point x="197" y="490" type="curve" smooth="yes"/>
      <point x="90" y="490"/>
      <point x="14" y="383"/>
      <point x="14" y="238" type="curve" smooth="yes"/>
      <point x="14" y="88"/>
      <point x="88" y="-13"/>
    </contour>
    <contour>
      <point x="204" y="98" type="curve" smooth="yes"/>
      <point x="173" y="98"/>
      <point x="157" y="144"/>
      <point x="157" y="239" type="curve" smooth="yes"/>
      <point x="157" y="337"/>
      <point x="176" y="379"/>
      <point x="204" y="379" type="curve" smooth="yes"/>
      <point x="230" y="379"/>
      <point x="244" y="332"/>
      <point x="244" y="238" type="curve" smooth="yes"/>
      <point x="244" y="140"/>
      <point x="229" y="98"/>
    </contour>
    <contour>
      <point x="264" y="235" type="curve" smooth="yes"/>
      <point x="264.0" y="75.0"/>
      <point x="310" y="-8"/>
      <point x="440" y="-11" type="curve" smooth="yes"/>
      <point x="515" y="-13" type="line"/>
      <point x="520" y="93" type="line"/>
      <point x="474" y="96" type="line" smooth="yes"/>
      <point x="384" y="102"/>
      <point x="360" y="132"/>
      <point x="360" y="245" type="curve" smooth="yes"/>
      <point x="360" y="337"/>
      <point x="388" y="386"/>
      <point x="426" y="386.0" type="curve" smooth="yes"/>
      <point x="458" y="386"/>
      <point x="475" y="343"/>
      <point x="475" y="278" type="curve"/>
      <point x="543" y="289" type="line"/>
      <point x="326" y="289" type="line"/>
      <point x="326" y="192" type="line"/>
      <point x="596" y="192" type="line"/>
      <point x="599" y="207"/>
      <point x="602" y="229"/>
      <point x="602" y="254" type="curve" smooth="yes"/>
      <point x="602" y="393"/>
      <point x="538" y="490"/>
      <point x="437" y="490" type="curve" smooth="yes"/>
      <point x="339" y="490"/>
      <point x="264" y="366"/>
    </contour>
  </outline>
</glyph>
<glyph name="Scedilla" format="2">
  <advance width="614"/>
  <unicode hex="015E"/>
  <outline>
    <contour>
      <point x="302" y="106" type="curve" smooth="yes"/>
      <point x="247" y="106"/>
      <point x="178" y="122"/>
      <point x="84" y="151" type="curve"/>
      <point x="58" y="30" type="line"/>
      <point x="148" y="1"/>
      <point x="224" y="-14"/>
      <point x="299" y="-14" type="curve" smooth="yes"/>
      <point x="468" y="-14"/>
      <point x="551" y="73"/>
      <point x="551" y="187" type="curve" smooth="yes"/>
      <point x="551" y="294"/>
      <point x="506" y="344"/>
      <point x="389" y="379" type="curve" smooth="yes"/>
      <point x="323" y="399" type="line" smooth="yes"/>
      <point x="237" y="425"/>
      <point x="223" y="448"/>
      <point x="223" y="487" type="curve" smooth="yes"/>
      <point x="223.0" y="523.0"/>
      <point x="248.0" y="548.0"/>
      <point x="319" y="548" type="curve" smooth="yes"/>
      <point x="366" y="548"/>
      <point x="428" y="537"/>
      <point x="509" y="519" type="curve"/>
      <point x="525" y="641" type="line"/>
      <point x="455" y="656"/>
      <point x="397" y="667"/>
      <point x="323" y="667" type="curve" smooth="yes"/>
      <point x="164.0" y="667.0"/>
      <point x="79.0" y="579.0"/>
      <point x="79" y="476" type="curve" smooth="yes"/>
      <point x="79" y="375"/>
      <point x="126" y="318"/>
      <point x="240" y="282" type="curve" smooth="yes"/>
      <point x="302" y="262" type="line" smooth="yes"/>
      <point x="393" y="233"/>
      <point x="406" y="216"/>
      <point x="406" y="176" type="curve" smooth="yes"/>
      <point x="406" y="132"/>
      <point x="380" y="106"/>
    </contour>
    <contour>
      <point x="273" y="16" type="line"/>
      <point x="232" y="-107" type="line"/>
      <point x="238" y="-117" type="line"/>
      <point x="339" y="-122"/>
      <point x="365" y="-132"/>
      <point x="365.0" y="-152.0" type="curve" smooth="yes"/>
      <point x="365" y="-178"/>
      <point x="335" y="-188"/>
      <point x="183" y="-201" type="curve"/>
      <point x="202" y="-270" type="line"/>
      <point x="424" y="-251"/>
      <point x="456" y="-217"/>
      <point x="456.0" y="-150.0" type="curve" smooth="yes"/>
      <point x="456" y="-104"/>
      <point x="424" y="-72"/>
      <point x="294" y="-60" type="curve"/>
      <point x="297" y="-106" type="line"/>
      <point x="335" y="16" type="line"/>
    </contour>
  </outline>
</glyph>
<glyph name="scedilla" format="2">
  <advance width="614"/>
  <unicode hex="015F"/>
  <outline>
    <contour>
      <point x="540" y="143" type="curve" smooth="yes"/>
      <point x="540" y="218"/>
      <point x="513" y="264"/>
      <point x="387" y="289" type="curve" smooth="yes"/>
      <point x="284" y="309" type="line" smooth="yes"/>
      <point x="243" y="318"/>
      <point x="231" y="324"/>
      <point x="231" y="346" type="curve" smooth="yes"/>
      <point x="231" y="367"/>
      <point x="249" y="378"/>
      <point x="319" y="378" type="curve" smooth="yes"/>
      <point x="356" y="378"/>
      <point x="419" y="372"/>
      <point x="499" y="359" type="curve"/>
      <point x="511" y="475" type="line"/>
      <point x="439" y="486"/>
      <point x="368" y="491"/>
      <point x="324" y="491" type="curve" smooth="yes"/>
      <point x="152" y="491"/>
      <point x="83" y="430"/>
      <point x="83" y="338" type="curve" smooth="yes"/>
      <point x="83" y="267"/>
      <point x="109" y="222"/>
      <point x="229" y="199" type="curve" smooth="yes"/>
      <point x="335" y="179" type="line" smooth="yes"/>
      <point x="381" y="169"/>
      <point x="393" y="159"/>
      <point x="393" y="137" type="curve" smooth="yes"/>
      <point x="393" y="115"/>
      <point x="372" y="99"/>
      <point x="297" y="99" type="curve" smooth="yes"/>
      <point x="258" y="99"/>
      <point x="182" y="105"/>
      <point x="90" y="120" type="curve"/>
      <point x="77" y="4" type="line"/>
      <point x="149" y="-7"/>
      <point x="207" y="-14"/>
      <point x="292" y="-14" type="curve" smooth="yes"/>
      <point x="456" y="-14"/>
      <point x="540" y="57"/>
    </contour>
    <contour>
      <point x="269" y="16" type="line"/>
      <point x="228" y="-107" type="line"/>
      <point x="234" y="-117" type="line"/>
      <point x="335" y="-122"/>
      <point x="361" y="-132"/>
      <point x="361.0" y="-152.0" type="curve" smooth="yes"/>
      <point x="361" y="-178"/>
      <point x="331" y="-188"/>
      <point x="179" y="-201" type="curve"/>
      <point x="198" y="-270" type="line"/>
      <point x="420" y="-251"/>
      <point x="452" y="-217"/>
      <point x="452.0" y="-150.0" type="curve" smooth="yes"/>
      <point x="452" y="-104"/>
      <point x="420" y="-72"/>
      <point x="290" y="-60" type="curve"/>
      <point x="293" y="-106" type="line"/>
      <point x="331" y="16" type="line"/>
    </contour>
  </outline>
</glyph>
<glyph name="Tcedilla" format="2">
  <advance width="614"/>
  <unicode hex="0162"/>
  <outline>
    <contour>
      <point x="235" y="568" type="line"/>
      <point x="235" y="0" type="line"/>
      <point x="379" y="0" type="line"/>
      <point x="379" y="568" type="line"/>
    </contour>
    <contour>
      <point x="39" y="535" type="line"/>
      <point x="575" y="535" type="line"/>
      <point x="575" y="655" type="line"/>
      <point x="39" y="655" type="line"/>
    </contour>
    <contour>
      <point x="278" y="22" type="line"/>
      <point x="237" y="-101" type="line"/>
      <point x="243" y="-111" type="line"/>
      <point x="344" y="-116"/>
      <point x="370" y="-126"/>
      <point x="370.0" y="-146.0" type="curve" smooth="yes"/>
      <point x="370" y="-172"/>
      <point x="340" y="-182"/>
      <point x="188" y="-195" type="curve"/>
      <point x="207" y="-264" type="line"/>
      <point x="429" y="-245"/>
      <point x="461" y="-211"/>
      <point x="461.0" y="-144.0" type="curve" smooth="yes"/>
      <point x="461" y="-98"/>
      <point x="429" y="-66"/>
      <point x="299" y="-54" type="curve"/>
      <point x="302" y="-100" type="line"/>
      <point x="340" y="22" type="line"/>
    </contour>
  </outline>
</glyph>
<glyph name="tcedilla" format="2">
  <advance width="614"/>
  <unicode hex="0163"/>
  <outline>
    <contour>
      <point x="197" y="198" type="line" smooth="yes"/>
      <point x="197" y="49"/>
      <point x="230" y="7"/>
      <point x="385" y="0" type="curve" smooth="yes"/>
      <point x="538" y="-6" type="line"/>
      <point x="549" y="118" type="line"/>
      <point x="420" y="126" type="line" smooth="yes"/>
      <point x="357" y="130"/>
      <point x="341" y="148"/>
      <point x="341" y="213" type="curve" smooth="yes"/>
      <point x="341" y="355" type="line"/>
      <point x="525" y="355" type="line"/>
      <point x="525" y="477" type="line"/>
      <point x="338" y="477" type="line"/>
      <point x="338" y="640" type="line"/>
      <point x="199" y="640" type="line"/>
      <point x="199" y="477" type="line"/>
      <point x="50" y="477" type="line"/>
      <point x="50" y="355" type="line"/>
      <point x="197" y="355" type="line"/>
    </contour>
    <contour>
      <point x="293" y="21" type="line"/>
      <point x="252" y="-102" type="line"/>
      <point x="258" y="-112" type="line"/>
      <point x="359" y="-117"/>
      <point x="385" y="-127"/>
      <point x="385.0" y="-147.0" type="curve" smooth="yes"/>
      <point x="385" y="-173"/>
      <point x="355" y="-183"/>
      <point x="203" y="-196" type="curve"/>
      <point x="222" y="-265" type="line"/>
      <point x="444" y="-246"/>
      <point x="476" y="-212"/>
      <point x="476.0" y="-145.0" type="curve" smooth="yes"/>
      <point x="476" y="-99"/>
      <point x="444" y="-67"/>
      <point x="314" y="-55" type="curve"/>
      <point x="317" y="-101" type="line"/>
      <point x="355" y="21" type="line"/>
    </contour>
  </outline>
</glyph>
<glyph name="Uogonek" format="2">
  <advance width="614"/>
  <unicode hex="0172"/>
  <outline>
    <contour>
      <point x="403" y="226" type="line" smooth="yes"/>
      <point x="403" y="148"/>
      <point x="369" y="118"/>
      <point x="307" y="118" type="curve" smooth="yes"/>
      <point x="244" y="118"/>
      <point x="212" y="151"/>
      <point x="212" y="226" type="curve" smooth="yes"/>
      <point x="212" y="655" type="line"/>
      <point x="67" y="655" type="line"/>
      <point x="67" y="228" type="line" smooth="yes"/>
      <point x="67" y="62"/>
      <point x="142" y="-15"/>
      <point x="303" y="-15" type="curve" smooth="yes"/>
      <point x="467" y="-15"/>
      <point x="547" y="59"/>
      <point x="547" y="228" type="curve" smooth="yes"/>
      <point x="547" y="655" type="line"/>
      <point x="403" y="655" type="line"/>
    </contour>
    <contour>
      <point x="189" y="-163" type="curve" smooth="yes"/>
      <point x="189" y="-208"/>
      <point x="218" y="-232"/>
      <point x="282" y="-235" type="curve" smooth="yes"/>
      <point x="379" y="-239" type="line"/>
      <point x="389" y="-146" type="line"/>
      <point x="334" y="-142" type="line" smooth="yes"/>
      <point x="301" y="-140"/>
      <point x="293" y="-131"/>
      <point x="293" y="-111" type="curve" smooth="yes"/>
      <point x="293" y="-100"/>
      <point x="295" y="-83"/>
      <point x="355" y="2" type="curve"/>
      <point x="295" y="8" type="line"/>
      <point x="213" y="-85"/>
      <point x="189" y="-130"/>
    </contour>
  </outline>
</glyph>
<glyph name="uogonek" format="2">
  <advance width="614"/>
  <unicode hex="0173"/>
  <outline>
    <contour>
      <point x="536" y="0" type="line"/>
      <point x="536" y="477" type="line"/>
      <point x="391" y="477" type="line"/>
      <point x="391" y="144" type="line"/>
      <point x="396" y="144" type="line"/>
      <point x="409" y="0" type="line"/>
    </contour>
    <contour>
      <point x="407" y="211" type="line"/>
      <point x="341" y="154"/>
      <point x="297" y="126"/>
      <point x="265" y="126" type="curve" smooth="yes"/>
      <point x="231" y="126"/>
      <point x="218" y="143"/>
      <point x="218" y="177" type="curve" smooth="yes"/>
      <point x="218" y="477" type="line"/>
      <point x="73" y="477" type="line"/>
      <point x="73" y="150" type="line" smooth="yes"/>
      <point x="73" y="43"/>
      <point x="115" y="-11"/>
      <point x="210" y="-11" type="curve" smooth="yes"/>
      <point x="275" y="-11"/>
      <point x="334" y="20"/>
      <point x="427" y="103" type="curve"/>
    </contour>
    <contour>
      <point x="351" y="-158" type="curve" smooth="yes"/>
      <point x="351" y="-203"/>
      <point x="380" y="-227"/>
      <point x="444" y="-230" type="curve" smooth="yes"/>
      <point x="541" y="-234" type="line"/>
      <point x="551" y="-141" type="line"/>
      <point x="496" y="-137" type="line" smooth="yes"/>
      <point x="463" y="-135"/>
      <point x="455" y="-126"/>
      <point x="455" y="-106" type="curve" smooth="yes"/>
      <point x="455" y="-95"/>
      <point x="457" y="-78"/>
      <point x="517" y="7" type="curve"/>
      <point x="457" y="13" type="line"/>
      <point x="375" y="-80"/>
      <point x="351" y="-125"/>
    </contour>
  </outline>
</glyph>
<glyph name="Schwa" format="2">
  <advance width="614"/>
  <unicode hex="018F"/>
  <outline>
    <contour>
      <point x="564" y="330" type="curve" smooth="yes"/>
      <point x="564" y="535"/>
      <point x="488" y="665"/>
      <point x="253" y="665" type="curve" smooth="yes"/>
      <point x="215" y="665"/>
      <point x="181" y="663"/>
      <point x="134" y="655" type="curve"/>
      <point x="146" y="536" type="line"/>
      <point x="185" y="544"/>
      <point x="216" y="545"/>
      <point x="244" y="545" type="curve" smooth="yes"/>
      <point x="369" y="545"/>
      <point x="419" y="496"/>
      <point x="419" y="328" type="curve" smooth="yes"/>
      <point x="419" y="147"/>
      <point x="379" y="105"/>
      <point x="298" y="105" type="curve" smooth="yes"/>
      <point x="241" y="105"/>
      <point x="195" y="145"/>
      <point x="195" y="303" type="curve"/>
      <point x="122" y="278" type="line"/>
      <point x="469" y="278" type="line"/>
      <point x="469" y="389" type="line"/>
      <point x="56" y="389" type="line"/>
      <point x="52" y="356"/>
      <point x="50.0" y="330"/>
      <point x="50.0" y="311" type="curve" smooth="yes"/>
      <point x="50" y="98"/>
      <point x="125" y="-15"/>
      <point x="299" y="-15" type="curve" smooth="yes"/>
      <point x="479" y="-15"/>
      <point x="564" y="106"/>
    </contour>
  </outline>
</glyph>
<glyph name="Ohorn" format="2">
  <advance width="614"/>
  <unicode hex="01A0"/>
  <anchor x="309" y="696" name="aboveUC"/>
  <anchor x="309" y="661" name="aboveUCx"/>
  <anchor x="310" y="-40" name="below"/>
  <outline>
    <contour>
      <point x="309" y="655" type="line"/>
      <point x="309" y="617" type="line"/>
      <point x="456" y="586" type="line"/>
      <point x="487" y="577"/>
      <point x="508" y="574"/>
      <point x="525" y="574" type="curve" smooth="yes"/>
      <point x="592" y="574"/>
      <point x="631" y="630"/>
      <point x="634" y="768" type="curve"/>
      <point x="506" y="768" type="line"/>
      <point x="502" y="685"/>
      <point x="481" y="655"/>
      <point x="410" y="655" type="curve" smooth="yes"/>
    </contour>
    <contour>
      <point x="309" y="655" type="line"/>
      <point x="149" y="655"/>
      <point x="50" y="548"/>
      <point x="50" y="318" type="curve" smooth="yes"/>
      <point x="50" y="88"/>
      <point x="147" y="-15"/>
      <point x="305" y="-15" type="curve" smooth="yes"/>
      <point x="465" y="-15"/>
      <point x="564" y="91"/>
      <point x="564" y="320" type="curve" smooth="yes"/>
      <point x="564" y="452"/>
      <point x="526" y="523"/>
      <point x="452" y="579" type="curve"/>
      <point x="456" y="586" type="line"/>
    </contour>
    <contour>
      <point x="197" y="320" type="curve" smooth="yes"/>
      <point x="197" y="488"/>
      <point x="238" y="535"/>
      <point x="307" y="535" type="curve" smooth="yes"/>
      <point x="375" y="535"/>
      <point x="417" y="487"/>
      <point x="417" y="318" type="curve" smooth="yes"/>
      <point x="417" y="150"/>
      <point x="376" y="105"/>
      <point x="307" y="105" type="curve" smooth="yes"/>
      <point x="239" y="105"/>
      <point x="197" y="152"/>
    </contour>
  </outline>
</glyph>
<glyph name="ohorn" format="2">
  <advance width="614"/>
  <unicode hex="01A1"/>
  <anchor x="308" y="507" name="aboveLC"/>
  <anchor x="308" y="472" name="aboveLCx"/>
  <anchor x="307" y="-40" name="below"/>
  <outline>
    <contour>
      <point x="309" y="477" type="line"/>
      <point x="155" y="477"/>
      <point x="47" y="375"/>
      <point x="47" y="238" type="curve" smooth="yes"/>
      <point x="47" y="87"/>
      <point x="154" y="-15"/>
      <point x="305" y="-15" type="curve" smooth="yes"/>
      <point x="459" y="-15"/>
      <point x="567" y="88"/>
      <point x="567" y="229" type="curve" smooth="yes"/>
      <point x="567" y="293"/>
      <point x="534" y="346"/>
      <point x="452" y="399" type="curve"/>
    </contour>
    <contour>
      <point x="307" y="105" type="curve" smooth="yes"/>
      <point x="237" y="105"/>
      <point x="197" y="149"/>
      <point x="197" y="239" type="curve" smooth="yes"/>
      <point x="197" y="332"/>
      <point x="241" y="372"/>
      <point x="307" y="372" type="curve" smooth="yes"/>
      <point x="377" y="372"/>
      <point x="417" y="327"/>
      <point x="417" y="238" type="curve" smooth="yes"/>
      <point x="417" y="145"/>
      <point x="374" y="105"/>
    </contour>
    <contour>
      <point x="517" y="399" type="curve" smooth="yes"/>
      <point x="591" y="399"/>
      <point x="633" y="454"/>
      <point x="637" y="589" type="curve"/>
      <point x="505" y="589" type="line"/>
      <point x="501" y="507"/>
      <point x="486" y="477"/>
      <point x="432" y="477" type="curve" smooth="yes"/>
      <point x="309" y="477" type="line"/>
      <point x="309" y="441" type="line"/>
      <point x="452" y="399" type="line"/>
      <point x="454" y="406" type="line"/>
      <point x="477" y="402"/>
      <point x="498" y="399"/>
    </contour>
  </outline>
</glyph>
<glyph name="Uhorn" format="2">
  <advance width="614"/>
  <unicode hex="01AF"/>
  <anchor x="307" y="691" name="aboveUC"/>
  <anchor x="307" y="656" name="aboveUCx"/>
  <anchor x="307" y="-40" name="below"/>
  <outline>
    <contour>
      <point x="545" y="574" type="curve" smooth="yes"/>
      <point x="627" y="574"/>
      <point x="676" y="630"/>
      <point x="679" y="768" type="curve"/>
      <point x="551" y="768" type="line"/>
      <point x="547" y="685"/>
      <point x="526" y="655"/>
      <point x="455" y="655" type="curve" smooth="yes"/>
      <point x="403" y="655" type="line"/>
      <point x="403" y="617" type="line"/>
      <point x="503" y="578"/>
      <point x="528" y="574"/>
    </contour>
    <contour>
      <point x="403" y="226" type="line" smooth="yes"/>
      <point x="403" y="148"/>
      <point x="369" y="118"/>
      <point x="307" y="118" type="curve" smooth="yes"/>
      <point x="244" y="118"/>
      <point x="212" y="151"/>
      <point x="212" y="226" type="curve" smooth="yes"/>
      <point x="212" y="655" type="line"/>
      <point x="67" y="655" type="line"/>
      <point x="67" y="228" type="line" smooth="yes"/>
      <point x="67" y="62"/>
      <point x="142" y="-15"/>
      <point x="303" y="-15" type="curve" smooth="yes"/>
      <point x="467" y="-15"/>
      <point x="547" y="59"/>
      <point x="547" y="228" type="curve" smooth="yes"/>
      <point x="547" y="655" type="line"/>
      <point x="403" y="655" type="line"/>
    </contour>
  </outline>
</glyph>
<glyph name="Oogonek" format="2">
  <advance width="614"/>
  <unicode hex="01EA"/>
  <outline>
    <contour>
      <point x="564" y="328" type="curve" smooth="yes"/>
      <point x="564" y="564"/>
      <point x="467" y="670"/>
      <point x="309" y="670" type="curve" smooth="yes"/>
      <point x="149" y="670"/>
      <point x="50" y="561"/>
      <point x="50" y="326" type="curve" smooth="yes"/>
      <point x="50" y="90"/>
      <point x="147" y="-15"/>
      <point x="305" y="-15" type="curve" smooth="yes"/>
      <point x="465" y="-15"/>
      <point x="564" y="93"/>
    </contour>
    <contour>
      <point x="197" y="328" type="curve" smooth="yes"/>
      <point x="197" y="502"/>
      <point x="238" y="550"/>
      <point x="307" y="550" type="curve" smooth="yes"/>
      <point x="375" y="550"/>
      <point x="417" y="501"/>
      <point x="417" y="326" type="curve" smooth="yes"/>
      <point x="417" y="152"/>
      <point x="376" y="105"/>
      <point x="307" y="105" type="curve" smooth="yes"/>
      <point x="239" y="105"/>
      <point x="197" y="154"/>
    </contour>
    <contour>
      <point x="199" y="-163" type="curve" smooth="yes"/>
      <point x="199" y="-208"/>
      <point x="228" y="-232"/>
      <point x="292" y="-235" type="curve" smooth="yes"/>
      <point x="389" y="-239" type="line"/>
      <point x="399" y="-146" type="line"/>
      <point x="344" y="-142" type="line" smooth="yes"/>
      <point x="311" y="-140"/>
      <point x="303" y="-131"/>
      <point x="303" y="-111" type="curve" smooth="yes"/>
      <point x="303" y="-100"/>
      <point x="305" y="-83"/>
      <point x="365" y="2" type="curve"/>
      <point x="305" y="8" type="line"/>
      <point x="223" y="-85"/>
      <point x="199" y="-130"/>
    </contour>
  </outline>
</glyph>
<glyph name="oogonek" format="2">
  <advance width="614"/>
  <unicode hex="01EB"/>
  <outline>
    <contour>
      <point x="305" y="-15" type="curve" smooth="yes"/>
      <point x="459" y="-15"/>
      <point x="567" y="92"/>
      <point x="567" y="239" type="curve" smooth="yes"/>
      <point x="567" y="389"/>
      <point x="460" y="492"/>
      <point x="309" y="492" type="curve" smooth="yes"/>
      <point x="155" y="492"/>
      <point x="47" y="384"/>
      <point x="47" y="238" type="curve" smooth="yes"/>
      <point x="47" y="87"/>
      <point x="154" y="-15"/>
    </contour>
    <contour>
      <point x="307" y="105" type="curve" smooth="yes"/>
      <point x="237" y="105"/>
      <point x="197" y="149"/>
      <point x="197" y="239" type="curve" smooth="yes"/>
      <point x="197" y="332"/>
      <point x="241" y="372"/>
      <point x="307" y="372" type="curve" smooth="yes"/>
      <point x="377" y="372"/>
      <point x="417" y="327"/>
      <point x="417" y="238" type="curve" smooth="yes"/>
      <point x="417" y="145"/>
      <point x="374" y="105"/>
    </contour>
    <contour>
      <point x="191" y="-163" type="curve" smooth="yes"/>
      <point x="191" y="-208"/>
      <point x="220" y="-232"/>
      <point x="284" y="-235" type="curve" smooth="yes"/>
      <point x="381" y="-239" type="line"/>
      <point x="391" y="-146" type="line"/>
      <point x="336" y="-142" type="line" smooth="yes"/>
      <point x="303" y="-140"/>
      <point x="295" y="-131"/>
      <point x="295" y="-111" type="curve" smooth="yes"/>
      <point x="295" y="-100"/>
      <point x="297" y="-83"/>
      <point x="357" y="2" type="curve"/>
      <point x="297" y="8" type="line"/>
      <point x="215" y="-85"/>
      <point x="191" y="-130"/>
    </contour>
  </outline>
</glyph>
<glyph name="dotlessj" format="2">
  <advance width="614"/>
  <unicode hex="0237"/>
  <anchor x="400" y="502" name="aboveLC"/>
  <outline>
    <contour>
      <point x="468" y="6" type="curve" smooth="yes"/>
      <point x="468" y="477" type="line"/>
      <point x="323" y="477" type="line"/>
      <point x="323" y="-7" type="line" smooth="yes"/>
      <point x="323" y="-74"/>
      <point x="300" y="-99"/>
      <point x="229" y="-104" type="curve" smooth="yes"/>
      <point x="101" y="-112" type="line"/>
      <point x="106" y="-236" type="line"/>
      <point x="240" y="-230" type="line" smooth="yes"/>
      <point x="409" y="-222"/>
      <point x="468" y="-172"/>
    </contour>
    <contour>
      <point x="106" y="477" type="line"/>
      <point x="106" y="355" type="line"/>
      <point x="395" y="355" type="line"/>
      <point x="395" y="477" type="line"/>
    </contour>
  </outline>
</glyph>
<glyph name="schwa" format="2">
  <advance width="614"/>
  <unicode hex="0259"/>
  <outline>
    <contour>
      <point x="231" y="379" type="line" smooth="yes"/>
      <point x="381" y="373"/>
      <point x="419.0" y="343.0"/>
      <point x="419" y="234" type="curve" smooth="yes"/>
      <point x="419" y="144"/>
      <point x="372" y="95"/>
      <point x="298" y="95" type="curve" smooth="yes"/>
      <point x="234" y="95"/>
      <point x="195" y="137"/>
      <point x="195" y="201" type="curve"/>
      <point x="120" y="190" type="line"/>
      <point x="461" y="190" type="line"/>
      <point x="461" y="287" type="line"/>
      <point x="63" y="287" type="line"/>
      <point x="60" y="272"/>
      <point x="57" y="250"/>
      <point x="57" y="225" type="curve" smooth="yes"/>
      <point x="57" y="85"/>
      <point x="152" y="-13"/>
      <point x="299" y="-13" type="curve" smooth="yes"/>
      <point x="459" y="-13"/>
      <point x="557" y="104"/>
      <point x="557" y="244" type="curve" smooth="yes"/>
      <point x="557.0" y="401.0"/>
      <point x="481" y="487"/>
      <point x="279" y="490" type="curve" smooth="yes"/>
      <point x="158" y="492" type="line"/>
      <point x="153" y="382" type="line"/>
    </contour>
  </outline>
</glyph>
<glyph name="ringhalfright" format="2">
  <advance width="614"/>
  <unicode hex="02BE"/>
  <outline>
    <contour>
      <point x="196" y="315" type="line"/>
      <point x="379" y="315"/>
      <point x="460" y="406"/>
      <point x="460" y="525" type="curve" smooth="yes"/>
      <point x="460" y="638"/>
      <point x="379" y="725"/>
      <point x="196" y="725" type="curve"/>
      <point x="196" y="625" type="line"/>
      <point x="310" y="625"/>
      <point x="344" y="585"/>
      <point x="344" y="525" type="curve" smooth="yes"/>
      <point x="344" y="459"/>
      <point x="311" y="415"/>
      <point x="196" y="415" type="curve"/>
    </contour>
  </outline>
</glyph>
<glyph name="tildecmb" format="2">
  <unicode hex="0303"/>
  <anchor x="0" y="502" name="_aboveLC"/>
  <anchor x="0" y="472" name="_aboveLCx"/>
  <outline>
    <contour>
      <point x="-20" y="608" type="curve" smooth="yes"/>
      <point x="32" y="563"/>
      <point x="54" y="553"/>
      <point x="77" y="553" type="curve" smooth="yes"/>
      <point x="118" y="553"/>
      <point x="154" y="566"/>
      <point x="210" y="730" type="curve"/>
      <point x="128" y="759" type="line"/>
      <point x="98" y="668"/>
      <point x="88" y="657"/>
      <point x="77" y="657" type="curve" smooth="yes"/>
      <point x="68" y="657"/>
      <point x="61" y="662"/>
      <point x="19" y="698" type="curve" smooth="yes"/>
      <point x="-33" y="742"/>
      <point x="-54" y="753"/>
      <point x="-78" y="753" type="curve" smooth="yes"/>
      <point x="-119" y="753"/>
      <point x="-155" y="740"/>
      <point x="-211" y="576" type="curve"/>
      <point x="-127" y="547" type="line"/>
      <point x="-97" y="638"/>
      <point x="-89" y="649"/>
      <point x="-78" y="649" type="curve" smooth="yes"/>
      <point x="-69" y="649"/>
      <point x="-62" y="645"/>
    </contour>
  </outline>
</glyph>
<glyph name="macroncmb" format="2">
  <unicode hex="0304"/>
  <anchor x="0" y="502" name="_aboveLC"/>
  <anchor x="0" y="472" name="_aboveLCx"/>
  <outline>
    <contour>
      <point x="-171" y="593" type="line"/>
      <point x="171" y="593" type="line"/>
      <point x="171" y="691" type="line"/>
      <point x="-171" y="691" type="line"/>
    </contour>
  </outline>
</glyph>
<glyph name="brevecmb" format="2">
  <unicode hex="0306"/>
  <anchor x="0" y="502" name="_aboveLC"/>
  <anchor x="0" y="472" name="_aboveLCx"/>
  <outline>
    <contour>
      <point x="0" y="648" type="curve" smooth="yes"/>
      <point x="-43" y="648"/>
      <point x="-85" y="671"/>
      <point x="-114" y="755" type="curve"/>
      <point x="-198" y="725" type="line"/>
      <point x="-164" y="598"/>
      <point x="-82" y="553"/>
      <point x="0" y="553" type="curve" smooth="yes"/>
      <point x="82" y="553"/>
      <point x="164" y="598"/>
      <point x="198" y="725" type="curve"/>
      <point x="114" y="755" type="line"/>
      <point x="86" y="672"/>
      <point x="43" y="648"/>
    </contour>
  </outline>
</glyph>
<glyph name="dotaccentcmb" format="2">
  <unicode hex="0307"/>
  <anchor x="0" y="502" name="_aboveLC"/>
  <anchor x="0" y="472" name="_aboveLCx"/>
  <outline>
    <contour>
      <point x="0" y="573" type="curve" smooth="yes"/>
      <point x="49" y="573"/>
      <point x="80" y="600"/>
      <point x="80" y="649" type="curve" smooth="yes"/>
      <point x="80" y="699"/>
      <point x="52" y="726"/>
      <point x="1" y="726" type="curve" smooth="yes"/>
      <point x="-48" y="726"/>
      <point x="-78" y="694"/>
      <point x="-78" y="649" type="curve" smooth="yes"/>
      <point x="-78" y="600"/>
      <point x="-49" y="573"/>
    </contour>
  </outline>
</glyph>
<glyph name="dieresiscmb" format="2">
  <unicode hex="0308"/>
  <anchor x="0" y="502" name="_aboveLC"/>
  <anchor x="0" y="472" name="_aboveLCx"/>
  <outline>
    <contour>
      <point x="-116" y="573" type="curve" smooth="yes"/>
      <point x="-70" y="573"/>
      <point x="-41" y="598"/>
      <point x="-41" y="644" type="curve" smooth="yes"/>
      <point x="-41" y="691"/>
      <point x="-67" y="716"/>
      <point x="-115" y="716" type="curve" smooth="yes"/>
      <point x="-161" y="716"/>
      <point x="-189" y="686"/>
      <point x="-189" y="644" type="curve" smooth="yes"/>
      <point x="-189" y="598"/>
      <point x="-162" y="573"/>
    </contour>
    <contour>
      <point x="114" y="573" type="curve" smooth="yes"/>
      <point x="160" y="573"/>
      <point x="189" y="598"/>
      <point x="189" y="644" type="curve" smooth="yes"/>
      <point x="189" y="691"/>
      <point x="163" y="716"/>
      <point x="115" y="716" type="curve" smooth="yes"/>
      <point x="69" y="716"/>
      <point x="41" y="686"/>
      <point x="41" y="644" type="curve" smooth="yes"/>
      <point x="41" y="598"/>
      <point x="68" y="573"/>
    </contour>
  </outline>
</glyph>
<glyph name="ringcmb" format="2">
  <unicode hex="030A"/>
  <anchor x="0" y="502" name="_aboveLC"/>
  <anchor x="0" y="472" name="_aboveLCx"/>
  <outline>
    <contour>
      <point x="-1" y="553" type="curve" smooth="yes"/>
      <point x="88" y="553"/>
      <point x="157" y="603"/>
      <point x="157" y="692" type="curve" smooth="yes"/>
      <point x="157" y="776"/>
      <point x="90" y="829"/>
      <point x="1" y="829" type="curve" smooth="yes"/>
      <point x="-89" y="829"/>
      <point x="-157" y="777"/>
      <point x="-157" y="691" type="curve" smooth="yes"/>
      <point x="-157" y="603"/>
      <point x="-89" y="553"/>
    </contour>
    <contour>
      <point x="0" y="632" type="curve" smooth="yes"/>
      <point x="-42" y="632"/>
      <point x="-70" y="645"/>
      <point x="-70" y="690" type="curve" smooth="yes"/>
      <point x="-70" y="734"/>
      <point x="-42" y="750"/>
      <point x="-1" y="750" type="curve" smooth="yes"/>
      <point x="43" y="750"/>
      <point x="70" y="735"/>
      <point x="70" y="693" type="curve" smooth="yes"/>
      <point x="70" y="649"/>
      <point x="42" y="632"/>
    </contour>
  </outline>
</glyph>
<glyph name="caroncmb" format="2">
  <unicode hex="030C"/>
  <anchor x="0" y="502" name="_aboveLC"/>
  <anchor x="0" y="472" name="_aboveLCx"/>
  <outline>
    <contour>
      <point x="188" y="702" type="line"/>
      <point x="141" y="758" type="line"/>
      <point x="-9" y="648" type="line"/>
      <point x="-8" y="553" type="line"/>
      <point x="31" y="553" type="line"/>
    </contour>
    <contour>
      <point x="-188" y="702" type="line"/>
      <point x="-31" y="553" type="line"/>
      <point x="8" y="553" type="line"/>
      <point x="9" y="648" type="line"/>
      <point x="-141" y="758" type="line"/>
    </contour>
  </outline>
</glyph>
<glyph name="commaaboverightcmb" format="2">
  <unicode hex="0315"/>
  <anchor x="0" y="710" name="_topright"/>
  <outline>
    <contour>
      <point x="0" y="486" type="line"/>
      <point x="96" y="486" type="line"/>
      <point x="120" y="710" type="line"/>
      <point x="0" y="710" type="line"/>
    </contour>
  </outline>
</glyph>
<glyph name="dotbelowcmb" format="2">
  <unicode hex="0323"/>
  <anchor x="0" y="-35" name="_below"/>
  <anchor x="0" y="-5" name="_belowx"/>
  <outline>
    <contour>
      <point x="0" y="-249" type="curve" smooth="yes"/>
      <point x="49" y="-249"/>
      <point x="80" y="-222"/>
      <point x="80" y="-173" type="curve" smooth="yes"/>
      <point x="80" y="-123"/>
      <point x="52" y="-96"/>
      <point x="1" y="-96" type="curve" smooth="yes"/>
      <point x="-48" y="-96"/>
      <point x="-78" y="-128"/>
      <point x="-78" y="-173" type="curve" smooth="yes"/>
      <point x="-78" y="-222"/>
      <point x="-49" y="-249"/>
    </contour>
  </outline>
</glyph>
<glyph name="dieresisbelowcmb" format="2">
  <unicode hex="0324"/>
  <anchor x="0" y="-35" name="_below"/>
  <anchor x="0" y="-5" name="_belowx"/>
  <outline>
    <contour>
      <point x="-116" y="-239" type="curve" smooth="yes"/>
      <point x="-70" y="-239"/>
      <point x="-41" y="-214"/>
      <point x="-41" y="-168" type="curve" smooth="yes"/>
      <point x="-41" y="-121"/>
      <point x="-67" y="-96"/>
      <point x="-115" y="-96" type="curve" smooth="yes"/>
      <point x="-161" y="-96"/>
      <point x="-189" y="-126"/>
      <point x="-189" y="-168" type="curve" smooth="yes"/>
      <point x="-189" y="-214"/>
      <point x="-162" y="-239"/>
    </contour>
    <contour>
      <point x="114" y="-239" type="curve" smooth="yes"/>
      <point x="160" y="-239"/>
      <point x="189" y="-214"/>
      <point x="189" y="-168" type="curve" smooth="yes"/>
      <point x="189" y="-121"/>
      <point x="163" y="-96"/>
      <point x="115" y="-96" type="curve" smooth="yes"/>
      <point x="69" y="-96"/>
      <point x="41" y="-126"/>
      <point x="41" y="-168" type="curve" smooth="yes"/>
      <point x="41" y="-214"/>
      <point x="68" y="-239"/>
    </contour>
  </outline>
</glyph>
<glyph name="uni0326" format="2">
  <unicode hex="0326"/>
  <anchor x="0" y="-35" name="_below"/>
  <anchor x="0" y="-5" name="_belowx"/>
  <outline>
    <contour>
      <point x="-96" y="-310" type="line"/>
      <point x="66" y="-283"/>
      <point x="124" y="-234"/>
      <point x="124" y="-181" type="curve" smooth="yes"/>
      <point x="124" y="-132"/>
      <point x="82" y="-95"/>
      <point x="-90" y="-76" type="curve"/>
      <point x="-142" y="-145" type="line"/>
      <point x="-142" y="-147" type="line"/>
      <point x="-15" y="-164"/>
      <point x="0" y="-181"/>
      <point x="0" y="-197" type="curve" smooth="yes"/>
      <point x="0" y="-213"/>
      <point x="-17" y="-226"/>
      <point x="-126" y="-251" type="curve"/>
      <point x="-126" y="-253" type="line"/>
    </contour>
  </outline>
</glyph>
<glyph name="cedillacmb" format="2">
  <unicode hex="0327"/>
  <anchor x="0" y="-10" name="_belowcedilla"/>
  <outline>
    <contour>
      <point x="-26" y="21" type="line"/>
      <point x="-67" y="-102" type="line"/>
      <point x="-61" y="-112" type="line"/>
      <point x="40" y="-117"/>
      <point x="66" y="-127"/>
      <point x="66.0" y="-147" type="curve" smooth="yes"/>
      <point x="66" y="-173"/>
      <point x="36" y="-183"/>
      <point x="-116" y="-196" type="curve"/>
      <point x="-97" y="-265" type="line"/>
      <point x="125" y="-246"/>
      <point x="157" y="-212"/>
      <point x="157.0" y="-145" type="curve" smooth="yes"/>
      <point x="157" y="-99"/>
      <point x="125" y="-67"/>
      <point x="-5" y="-55" type="curve"/>
      <point x="-2" y="-101" type="line"/>
      <point x="36" y="21" type="line"/>
    </contour>
  </outline>
</glyph>
